<svg width="286" height="75" viewBox="0 0 286 75" fill="none" xmlns="http://www.w3.org/2000/svg">
<g clip-path="url(#clip0_60_49)">
<path d="M50.5598 10.4706C55.7955 12.222 60.1231 9.45203 62.1083 8.4003C60.4066 10.5896 56.3905 13.175 50.5598 13.175C44.559 13.175 26.8725 6.91649 19.6033 6.34953C15.5732 6.03524 5.99015 11.694 9.91701 31.5264C13.8438 51.3591 20.8509 69.3283 29.7517 71.26C36.8723 72.8053 38.8096 60.4508 40.4458 56.287C39.0748 66.8085 37.4575 69.3629 34.8245 72.474C31.1726 76.7889 26.0784 73.4307 23.3078 71.7996C19.9699 69.5245 13.8811 63.112 8.22632 51.1611C2.57168 39.2102 0.520457 25.5265 0.411377 19.7312C0.455004 16.3185 1.31777 10.2516 7.12949 4.99732C12.9412 -0.257008 21.5666 -0.132529 25.3625 1.13384C31.5801 3.51631 45.324 8.71913 50.5598 10.4706Z" fill="white"/>
<path d="M49.2507 4.99735C52.9594 3.25878 62.0525 0.438459 68.7541 3.06561C77.1153 6.34325 77.3923 11.7376 77.7186 18.0964L77.7205 18.1331C78.0254 24.0707 74.345 30.6464 72.7228 32.8144C73.2555 29.2414 73.5764 25.4669 73.5319 21.6748C73.3356 4.99735 64.9582 3.64514 49.2507 4.99735Z" fill="white"/>
<path d="M62.1083 8.40027L62.4352 8.6461L61.9134 8.04397L62.1083 8.40027ZM25.3625 1.13383L25.5119 0.756753L25.5034 0.753461L25.4946 0.750575L25.3625 1.13383ZM0.411368 19.7312L8.15898e-05 19.7261L0 19.7323L0.000137029 19.7388L0.411368 19.7312ZM23.3078 71.7996L23.0736 72.1322L23.0849 72.1398L23.0967 72.1468L23.3078 71.7996ZM40.4458 56.287L40.8539 56.3385L40.0622 56.141L40.4458 56.287ZM49.2507 4.99729L49.0738 4.63195L49.2866 5.40043L49.2507 4.99729ZM72.7227 32.8144L72.3158 32.7556L73.0539 33.0542L72.7227 32.8144ZM61.9134 8.04397C59.8867 9.11765 55.7283 11.772 50.6922 10.0874L50.4273 10.8537C55.863 12.672 60.3594 9.78634 62.3033 8.75657L61.9134 8.04397ZM50.6922 10.0874C45.4669 8.33946 31.7326 3.14042 25.5119 0.756753L25.2133 1.51091C31.4276 3.89218 45.1811 9.09874 50.4273 10.8537L50.6922 10.0874ZM25.4946 0.750575C23.5269 0.0941352 20.3557 -0.255263 16.9443 0.219612C13.5279 0.695215 9.83366 2.00291 6.85119 4.69932L7.40778 5.29527C10.2371 2.73737 13.7615 1.48013 17.0597 1.02098C20.3631 0.561132 23.4021 0.907157 25.2306 1.51706L25.4946 0.750575ZM6.85119 4.69932C0.92562 10.0566 0.044531 16.2505 8.15898e-05 19.7261L0.822654 19.7363C0.865486 16.3867 1.70989 10.4467 7.40778 5.29527L6.85119 4.69932ZM0.000137029 19.7388C0.110095 25.5817 2.1711 39.3224 7.85343 51.3318L8.59922 50.9903C2.97223 39.0977 0.930802 25.4711 0.8226 19.7237L0.000137029 19.7388ZM7.85343 51.3318C13.5273 63.3238 19.6567 69.8032 23.0736 72.1322L23.542 71.4669C20.2833 69.2455 14.2345 62.9005 8.59922 50.9903L7.85343 51.3318ZM23.0967 72.1468C24.4595 72.9494 26.4867 74.2373 28.6373 74.7594C29.721 75.0227 30.8592 75.0982 31.9783 74.8098C33.1025 74.5203 34.1777 73.8707 35.1407 72.733L34.5084 72.215C33.6454 73.2348 32.7142 73.7836 31.7699 74.0269C30.82 74.2716 29.8268 74.2147 28.8342 73.9738C26.832 73.4876 24.9268 72.2811 23.519 71.4523L23.0967 72.1468ZM35.1407 72.733C36.4714 71.1604 37.5655 69.7047 38.4929 67.3031C39.4148 64.916 40.167 61.6098 40.8539 56.3385L40.0378 56.2354C39.3536 61.4857 38.6116 64.7175 37.724 67.0157C36.8419 69.2995 35.8106 70.6765 34.5084 72.215L35.1407 72.733ZM40.0622 56.141C39.6454 57.2018 39.2089 58.7844 38.692 60.4845C38.1699 62.2009 37.5584 64.0654 36.781 65.7469C36.0012 67.4339 35.0711 68.8999 33.9309 69.849C32.8088 70.783 31.4811 71.2209 29.8402 70.8648L29.6631 71.6552C31.5826 72.0718 33.1672 71.5449 34.4623 70.4668C35.739 69.4041 36.7306 67.8111 37.5299 66.082C38.3314 64.3476 38.956 62.4394 39.4801 60.7166C40.009 58.9773 40.4283 57.4543 40.8294 56.4329L40.0622 56.141ZM29.8402 70.8648C27.7354 70.408 25.7008 68.9927 23.7622 66.7627C21.826 64.5351 20.0116 61.5246 18.343 57.9375C15.0064 50.7648 12.2808 41.3482 10.3207 31.449L9.51327 31.6039C11.4801 41.5371 14.2214 51.0216 17.5952 58.2745C19.2819 61.9004 21.1336 64.9837 23.1373 67.2888C25.1384 69.5908 27.3176 71.1461 29.6631 71.6552L29.8402 70.8648ZM10.3207 31.449C8.36996 21.5968 9.78874 15.3362 12.1267 11.5949C14.4728 7.84031 17.7422 6.61031 19.5706 6.75291L19.6356 5.9461C17.4343 5.77441 13.897 7.21662 11.4259 11.171C8.94653 15.1386 7.53721 21.6237 9.51327 31.6039L10.3207 31.449ZM19.5706 6.75291C23.1562 7.03255 29.3453 8.72353 35.4486 10.3652C38.4877 11.1826 41.496 11.9848 44.1208 12.5825C46.7354 13.1779 49.0075 13.5797 50.5598 13.5797V12.7703C49.1117 12.7703 46.9226 12.3898 44.3061 11.794C41.6998 11.2005 38.7071 10.4026 35.6655 9.58449C29.6083 7.95518 23.3196 6.23342 19.6356 5.9461L19.5706 6.75291ZM50.5598 13.5797C56.5117 13.5797 60.6515 10.9407 62.4352 8.6461L61.7815 8.15444C60.1617 10.2384 56.2691 12.7703 50.5598 12.7703V13.5797ZM49.4278 5.36261C51.2502 4.50823 54.4143 3.38061 57.9486 2.79329C61.4881 2.20509 65.3506 2.167 68.6019 3.44148L68.9062 2.68962C65.4559 1.33695 61.4209 1.39547 57.8115 1.99525C54.1966 2.59595 50.9601 3.74779 49.0738 4.63195L49.4278 5.36261ZM73.9432 21.6699C73.8442 13.2793 71.6848 8.5824 67.4091 6.22195C65.2941 5.05425 62.7004 4.48292 59.6712 4.28363C56.6412 4.08429 53.1469 4.25566 49.215 4.59416L49.2866 5.40043C53.2083 5.06282 56.6513 4.89612 59.6163 5.09118C62.5816 5.28629 65.0396 5.8418 67.0065 6.92779C70.8956 9.07473 73.0229 13.3926 73.1206 21.6793L73.9432 21.6699ZM73.1296 32.8729C73.6649 29.2832 73.9879 25.4873 73.9432 21.6699L73.1206 21.6793C73.1647 25.4466 72.8461 29.1996 72.3158 32.7556L73.1296 32.8729ZM73.0539 33.0542C73.887 31.9411 75.2292 29.7248 76.3258 27.0383C77.4218 24.354 78.2878 21.1635 78.1312 18.1128L77.3097 18.1535C77.4577 21.0405 76.6362 24.1066 75.5624 26.7367C74.4897 29.3641 73.1806 31.5197 72.3914 32.5743L73.0539 33.0542ZM78.1312 18.1128L78.1293 18.0758L77.3077 18.1168L77.3097 18.1535L78.1312 18.1128ZM78.1293 18.0758C77.9669 14.9146 77.8172 11.8958 76.6252 9.26094C75.4184 6.59404 73.1672 4.35987 68.9062 2.68962L68.6019 3.44148C72.7021 5.04885 74.7699 7.15071 75.8736 9.59007C76.9919 12.0615 77.1435 14.9192 77.3077 18.1168L78.1293 18.0758ZM77.3077 18.1168C77.3083 18.1287 77.3091 18.1416 77.3097 18.1535L78.1312 18.1128C78.1306 18.1001 78.1298 18.0885 78.1293 18.0758L77.3077 18.1168Z" fill="white"/>
<path d="M70.5642 39.3987C73.0773 35.8958 68.5573 36.1362 65.983 36.6941C67.6845 35.342 76.8471 34.2475 72.0696 40.4932C67.2918 46.7393 55.0533 48.7354 50.1447 48.8641C48.7706 48.9003 46.9224 48.7354 45.6287 47.9628C44.6471 47.3762 45.2361 46.3958 45.8906 46.224C45.4324 46.5461 45.887 47.3455 47.3305 47.5119C53.4171 48.2137 67.4229 43.7773 70.5642 39.3987Z" fill="white" stroke="white" stroke-width="0.5"/>
<path d="M66.987 50.0004C68.9575 46.9265 65.4133 47.1375 63.3949 47.6271C64.7292 46.4406 71.9134 45.4802 68.1672 50.9609C64.4212 56.4418 54.825 58.1932 50.9765 58.3063C49.8991 58.3378 48.4499 58.1932 47.4356 57.5153C46.6659 57.0008 47.1277 56.1404 47.6407 55.9896C47.2815 56.2721 47.638 56.9738 48.7697 57.1198C53.5423 57.7354 64.5238 53.8427 66.987 50.0004Z" fill="white" stroke="white" stroke-width="0.5"/>
<path d="M63.1556 60.6828C64.6396 58.4668 61.9704 58.619 60.4502 58.9718C61.4552 58.1164 66.8654 57.4241 64.0443 61.3753C61.2232 65.3266 53.9964 66.5892 51.0981 66.6707C50.2869 66.6936 49.1953 66.5892 48.4317 66.1003C47.852 65.7294 48.1997 65.1092 48.586 65.0007C48.3157 65.2044 48.5841 65.71 49.4364 65.8152C53.0304 66.2593 61.3006 63.4527 63.1556 60.6828Z" fill="white" stroke="white" stroke-width="0.5"/>
<path d="M60.3927 69.9761C61.4144 68.4035 59.5767 68.5114 58.53 68.7618C59.2219 68.1548 62.9473 67.6632 61.0048 70.4673C59.0623 73.2715 54.0865 74.1677 52.0908 74.2254C51.5322 74.2416 50.7809 74.1677 50.255 73.8208C49.8557 73.5574 50.0954 73.1174 50.3614 73.0403C50.1752 73.1849 50.36 73.5437 50.9468 73.6184C53.4213 73.9335 59.1155 71.9417 60.3927 69.9761Z" fill="white" stroke="white" stroke-width="0.5"/>
<path d="M89.7772 39.2377C87.648 39.2377 85.8343 38.8924 84.3369 38.2017C82.8394 37.5111 81.6927 36.5558 80.8972 35.3355C80.1017 34.1153 79.7039 32.734 79.7039 31.1916H83.1435C83.1435 31.9513 83.3423 32.7111 83.7402 33.4708C84.1614 34.2305 84.8516 34.8637 85.811 35.3701C86.7938 35.8764 88.1158 36.1298 89.7772 36.1298C91.3215 36.1298 92.5851 35.911 93.5679 35.4736C94.5506 35.0131 95.2759 34.4261 95.744 33.7125C96.2121 32.9757 96.446 32.1815 96.446 31.3298C96.446 30.2938 95.9897 29.4421 95.0771 28.7744C94.1645 28.0837 92.8308 27.6577 91.0759 27.4967L88.2329 27.2549C85.9632 27.0707 84.1496 26.3801 82.7925 25.183C81.4355 23.986 80.7568 22.4088 80.7568 20.4521C80.7568 18.9097 81.1311 17.563 81.88 16.4118C82.6522 15.2607 83.7169 14.3629 85.074 13.7183C86.431 13.0506 88.0105 12.7168 89.8123 12.7168C91.5905 12.7168 93.1585 13.0392 94.5155 13.6837C95.8726 14.3283 96.9256 15.2377 97.6744 16.4118C98.4466 17.563 98.8327 18.9443 98.8327 20.5557H95.393C95.393 19.7498 95.1942 18.9901 94.7963 18.2766C94.422 17.563 93.8253 16.9759 93.0063 16.5154C92.1872 16.0549 91.1227 15.8248 89.8123 15.8248C88.5487 15.8248 87.4958 16.0436 86.6534 16.4809C85.8343 16.9182 85.2144 17.4939 84.7932 18.2075C84.3953 18.8981 84.1965 19.6462 84.1965 20.4521C84.1965 21.3729 84.5593 22.1903 85.2846 22.9039C86.0098 23.6175 87.0864 24.0319 88.5136 24.1471L91.3566 24.3888C93.1116 24.5269 94.6208 24.8952 95.8844 25.4938C97.1712 26.0693 98.154 26.8522 98.8327 27.842C99.5347 28.8089 99.8856 29.9714 99.8856 31.3298C99.8856 32.8721 99.4645 34.2421 98.6221 35.4391C97.7797 36.6361 96.5981 37.5685 95.0771 38.2362C93.5561 38.904 91.7896 39.2377 89.7772 39.2377ZM103.236 38.6161V20.1758H105.903V28.0837H105.482C105.482 26.2881 105.716 24.7686 106.184 23.5255C106.676 22.2594 107.401 21.2925 108.36 20.6248C109.32 19.957 110.536 19.6233 112.011 19.6233H112.151C113.625 19.6233 114.842 19.957 115.801 20.6248C116.784 21.2925 117.509 22.2594 117.977 23.5255C118.445 24.7686 118.679 26.2881 118.679 28.0837H117.697C117.697 26.2881 117.942 24.7686 118.434 23.5255C118.925 22.2594 119.65 21.2925 120.61 20.6248C121.593 19.957 122.821 19.6233 124.295 19.6233H124.436C125.91 19.6233 127.138 19.957 128.121 20.6248C129.104 21.2925 129.829 22.2594 130.297 23.5255C130.788 24.7686 131.034 26.2881 131.034 28.0837V38.6161H127.665V27.3585C127.665 25.8621 127.29 24.7112 126.542 23.9053C125.793 23.0766 124.751 22.6622 123.418 22.6622C122.037 22.6622 120.926 23.0995 120.083 23.9744C119.241 24.8261 118.82 26.0234 118.82 27.5657V38.6161H115.45V27.3585C115.45 25.8621 115.076 24.7112 114.327 23.9053C113.578 23.0766 112.537 22.6622 111.203 22.6622C109.823 22.6622 108.711 23.0995 107.869 23.9744C107.027 24.8261 106.605 26.0234 106.605 27.5657V38.6161H103.236ZM136.186 38.6161V20.1758H139.555V38.6161H136.186ZM133.308 22.8003V20.1758H139.555V22.8003H133.308ZM137.133 17.2061C136.385 17.2061 135.823 17.0105 135.449 16.619C135.098 16.2275 134.922 15.7328 134.922 15.1341C134.922 14.5355 135.098 14.0406 135.449 13.6492C135.823 13.2578 136.385 13.0622 137.133 13.0622C137.882 13.0622 138.432 13.2578 138.783 13.6492C139.157 14.0406 139.345 14.5355 139.345 15.1341C139.345 15.7328 139.157 16.2275 138.783 16.619C138.432 17.0105 137.882 17.2061 137.133 17.2061ZM144.35 38.6161V13.4075H147.72V38.6161H144.35ZM141.753 16.0319V13.4075H147.72V16.0319H141.753ZM160.22 39.2377C158.582 39.2377 157.166 38.9614 155.973 38.4089C154.779 37.8564 153.808 37.1312 153.059 36.2334C152.311 35.3126 151.749 34.2879 151.375 33.16C151.024 32.032 150.848 30.8808 150.848 29.7067V29.0852C150.848 27.8881 151.024 26.7254 151.375 25.5974C151.749 24.4695 152.311 23.4564 153.059 22.5586C153.808 21.6378 154.756 20.9126 155.902 20.383C157.072 19.8305 158.441 19.5543 160.009 19.5543C162.045 19.5543 163.718 19.9916 165.028 20.8665C166.362 21.7182 167.345 22.8232 167.976 24.1816C168.631 25.54 168.959 26.9903 168.959 28.5326V30.0175H152.322V27.5312H166.502L165.73 28.878C165.73 27.5657 165.519 26.4378 165.098 25.4938C164.677 24.5269 164.045 23.7788 163.203 23.2492C162.361 22.7196 161.296 22.455 160.009 22.455C158.675 22.455 157.564 22.7542 156.675 23.3528C155.809 23.9515 155.154 24.7686 154.709 25.8046C154.288 26.8406 154.077 28.0376 154.077 29.396C154.077 30.7082 154.288 31.8939 154.709 32.9528C155.154 33.9888 155.832 34.8175 156.745 35.4391C157.657 36.0378 158.816 36.337 160.22 36.337C161.694 36.337 162.887 36.0146 163.8 35.3701C164.736 34.7255 165.297 33.9772 165.484 33.1254H168.643C168.386 34.3915 167.871 35.4853 167.099 36.406C166.327 37.3268 165.356 38.029 164.186 38.5125C163.016 38.996 161.694 39.2377 160.22 39.2377ZM178.36 38.6161V13.4075H181.8V38.6161H178.36ZM181.098 38.6161V35.5772H193.523V38.6161H181.098ZM181.098 27.324V24.2852H192.435V27.324H181.098ZM181.098 16.4463V13.4075H193.172V16.4463H181.098ZM196.984 38.6161V20.1758H199.651V28.0837H199.23C199.23 26.2651 199.476 24.7341 199.967 23.4909C200.482 22.2248 201.254 21.2693 202.284 20.6248C203.313 19.957 204.612 19.6233 206.18 19.6233H206.32C208.684 19.6233 210.427 20.3485 211.55 21.7989C212.696 23.2492 213.27 25.3441 213.27 28.0837V38.6161H209.9V27.3931C209.9 25.9657 209.491 24.8261 208.672 23.9744C207.853 23.0995 206.73 22.6622 205.302 22.6622C203.828 22.6622 202.635 23.1111 201.722 24.0089C200.81 24.9068 200.353 26.1038 200.353 27.6003V38.6161H196.984ZM225.472 39.2377C223.834 39.2377 222.418 38.9614 221.225 38.4089C220.031 37.8564 219.06 37.1312 218.312 36.2334C217.563 35.3126 217.001 34.2879 216.627 33.16C216.276 32.032 216.1 30.8808 216.1 29.7067V29.0852C216.1 27.8881 216.276 26.7254 216.627 25.5974C217.001 24.4695 217.563 23.4564 218.312 22.5586C219.06 21.6378 220.008 20.9126 221.155 20.383C222.325 19.8305 223.693 19.5543 225.261 19.5543C227.297 19.5543 228.97 19.9916 230.28 20.8665C231.614 21.7182 232.597 22.8232 233.229 24.1816C233.884 25.54 234.211 26.9903 234.211 28.5326V30.0175H217.575V27.5312H231.754L230.982 28.878C230.982 27.5657 230.772 26.4378 230.35 25.4938C229.929 24.5269 229.297 23.7788 228.455 23.2492C227.613 22.7196 226.548 22.455 225.261 22.455C223.927 22.455 222.816 22.7542 221.927 23.3528C221.061 23.9515 220.406 24.7686 219.961 25.8046C219.54 26.8406 219.329 28.0376 219.329 29.396C219.329 30.7082 219.54 31.8939 219.961 32.9528C220.406 33.9888 221.084 34.8175 221.997 35.4391C222.91 36.0378 224.068 36.337 225.472 36.337C226.946 36.337 228.139 36.0146 229.052 35.3701C229.988 34.7255 230.549 33.9772 230.737 33.1254H233.895C233.638 34.3915 233.123 35.4853 232.351 36.406C231.579 37.3268 230.608 38.029 229.438 38.5125C228.268 38.996 226.946 39.2377 225.472 39.2377ZM237.065 38.6161V20.1758H239.732V27.7729H239.592C239.592 25.0794 240.189 23.1111 241.382 21.8679C242.599 20.6018 244.412 19.9686 246.822 19.9686H247.454V22.9384H246.261C244.389 22.9384 242.95 23.4335 241.944 24.4233C240.938 25.3902 240.434 26.7944 240.434 28.6362V38.6161H237.065ZM256.415 45.7988C255.549 45.7988 254.672 45.7643 253.782 45.6952C252.917 45.6262 252.086 45.5342 251.29 45.419V42.6218C252.133 42.737 253.01 42.829 253.923 42.8981C254.859 42.9901 255.736 43.0362 256.555 43.0362C258.263 43.0362 259.621 42.8061 260.628 42.3456C261.656 41.9083 262.393 41.206 262.838 40.2391C263.307 39.2951 263.54 38.0752 263.54 36.5787V33.0564L264.664 30.4319C264.593 32.2967 264.195 33.8506 263.468 35.0938C262.744 36.314 261.796 37.2348 260.628 37.8564C259.48 38.455 258.205 38.7542 256.801 38.7542C255.49 38.7542 254.286 38.5125 253.186 38.029C252.109 37.5227 251.173 36.832 250.378 35.9571C249.606 35.0822 248.997 34.0808 248.553 32.9528C248.132 31.8016 247.921 30.593 247.921 29.3269V28.7053C247.921 27.416 248.143 26.219 248.588 25.114C249.032 23.986 249.653 23.0075 250.448 22.1787C251.244 21.3499 252.191 20.7054 253.291 20.2449C254.414 19.7844 255.643 19.5543 256.976 19.5543C258.544 19.5543 259.925 19.888 261.118 20.5557C262.311 21.2002 263.246 22.1558 263.926 23.4219C264.628 24.665 265.015 26.1961 265.083 28.0147L264.102 28.0492V20.1758H266.77V36.4406C266.77 38.6506 266.419 40.4347 265.717 41.7931C265.037 43.1744 263.937 44.1874 262.415 44.8319C260.918 45.4764 258.919 45.7988 256.415 45.7988ZM257.433 35.7154C258.556 35.7154 259.574 35.4736 260.485 34.9902C261.423 34.5067 262.16 33.8161 262.698 32.9183C263.26 31.9975 263.54 30.9038 263.54 29.6377V28.0492C263.54 26.8061 263.246 25.7585 262.662 24.9068C262.1 24.0551 261.362 23.4103 260.452 22.973C259.539 22.5356 258.544 22.3168 257.468 22.3168C256.251 22.3168 255.175 22.5931 254.239 23.1456C253.303 23.6981 252.577 24.4808 252.063 25.4938C251.548 26.4837 251.29 27.6577 251.29 29.0161C251.29 30.3745 251.548 31.5599 252.063 32.5729C252.601 33.586 253.326 34.3686 254.239 34.9211C255.175 35.4507 256.239 35.7154 257.433 35.7154ZM269.816 45.7988V42.829H272.517C273.315 42.829 273.982 42.7254 274.519 42.5183C275.081 42.334 275.536 42.0119 275.887 41.5513C276.263 41.0908 276.567 40.4808 276.8 39.7211L282.696 20.1758H285.997L279.748 40.5844C279.375 41.8047 278.849 42.7945 278.169 43.5542C277.491 44.3369 276.661 44.901 275.676 45.2463C274.719 45.6146 273.595 45.7988 272.309 45.7988H269.816ZM275.536 38.2017V35.4391H279.608V38.2017H275.536ZM275.185 38.2017L268.481 20.1758H271.922L278.344 38.2017H275.185Z" fill="white"/>
<path d="M85.7143 69.0154C85.1001 69.0154 84.4595 68.9895 83.7927 68.9377C83.1258 68.8859 82.4852 68.8082 81.871 68.7046V67.4873C82.5028 67.5909 83.1609 67.6686 83.8453 67.7204C84.5473 67.7895 85.2054 67.824 85.8196 67.824C87.2236 67.824 88.3292 67.6427 89.1365 67.2801C89.9437 66.9348 90.5229 66.3564 90.8738 65.5449C91.2248 64.7506 91.4003 63.6888 91.4003 62.3593V59.5621L92.0321 57.6715C92.0146 58.9147 91.7425 60.0111 91.2161 60.9607C90.7071 61.9103 89.9964 62.6614 89.0838 63.2139C88.1712 63.7492 87.1007 64.0168 85.8723 64.0168C84.8369 64.0168 83.9067 63.8269 83.0819 63.447C82.2747 63.0499 81.5902 62.5233 81.0286 61.8672C80.4671 61.1938 80.0371 60.4341 79.7388 59.588C79.4404 58.7247 79.2913 57.8441 79.2913 56.9463V56.6873C79.2913 55.8067 79.4404 54.9521 79.7388 54.1233C80.0371 53.2772 80.4671 52.5262 81.0286 51.87C81.5902 51.1967 82.2834 50.67 83.1083 50.2902C83.9331 49.8931 84.872 49.6945 85.9249 49.6945C87.206 49.6945 88.3116 49.9794 89.2418 50.5492C90.1719 51.119 90.8826 51.8873 91.374 52.8542C91.8829 53.8211 92.1462 54.8916 92.1637 56.0657L91.6372 55.3665V50.1089H92.7692V62.3593C92.7692 63.9823 92.541 65.2772 92.0848 66.2441C91.6285 67.2283 90.8826 67.9362 89.8472 68.3679C88.8118 68.7995 87.4342 69.0154 85.7143 69.0154ZM86.0565 62.7477C87.1095 62.7477 88.0396 62.5233 88.8469 62.0744C89.6542 61.6082 90.2859 60.978 90.7422 60.1837C91.1985 59.3722 91.4267 58.4571 91.4267 57.4384V56.1175C91.4267 55.1334 91.1985 54.2528 90.7422 53.4758C90.3035 52.6816 89.6805 52.0513 88.8732 51.5852C88.0659 51.119 87.1358 50.8859 86.0829 50.8859C84.9246 50.8859 83.9418 51.1621 83.1346 51.7147C82.3448 52.2672 81.7394 52.9924 81.3182 53.8902C80.897 54.788 80.6864 55.7636 80.6864 56.8168C80.6864 57.9046 80.9058 58.906 81.3445 59.8211C81.7833 60.719 82.3975 61.4355 83.1872 61.9708C83.9945 62.4888 84.9509 62.7477 86.0565 62.7477ZM96.5853 63.706V50.1089H97.691V55.8585H97.4804C97.4804 53.8902 97.9279 52.4226 98.8229 51.4557C99.7179 50.4888 101.166 50.0053 103.166 50.0053H103.64V51.2485H102.903C101.271 51.2485 100.043 51.6629 99.2178 52.4916C98.3929 53.3031 97.9805 54.5031 97.9805 56.0916V63.706H96.5853ZM111.422 64.1463C110.264 64.1463 109.237 63.9391 108.342 63.5247C107.447 63.1103 106.693 62.5665 106.078 61.8931C105.482 61.2197 105.025 60.4686 104.71 59.6398C104.411 58.7938 104.262 57.9305 104.262 57.0499V56.7909C104.262 55.8931 104.42 55.0211 104.736 54.1751C105.052 53.329 105.517 52.5693 106.131 51.8959C106.745 51.2226 107.491 50.6873 108.369 50.2902C109.264 49.8931 110.282 49.6945 111.422 49.6945C112.545 49.6945 113.546 49.8931 114.423 50.2902C115.318 50.6873 116.073 51.2226 116.687 51.8959C117.301 52.5693 117.766 53.329 118.082 54.1751C118.416 55.0211 118.582 55.8931 118.582 56.7909V57.0499C118.582 57.9305 118.424 58.7938 118.109 59.6398C117.793 60.4686 117.328 61.2197 116.713 61.8931C116.117 62.5665 115.371 63.1103 114.476 63.5247C113.598 63.9391 112.581 64.1463 111.422 64.1463ZM111.422 62.8772C112.651 62.8772 113.686 62.601 114.528 62.0485C115.388 61.4959 116.038 60.7708 116.476 59.8729C116.933 58.9578 117.161 57.9736 117.161 56.9204C117.161 55.8326 116.933 54.8398 116.476 53.942C116.02 53.0269 115.362 52.3017 114.502 51.7665C113.66 51.2139 112.633 50.9377 111.422 50.9377C110.229 50.9377 109.193 51.2139 108.316 51.7665C107.456 52.3017 106.798 53.0269 106.342 53.942C105.885 54.8398 105.657 55.8326 105.657 56.9204C105.657 57.9736 105.877 58.9578 106.315 59.8729C106.772 60.7708 107.43 61.4959 108.29 62.0485C109.15 62.601 110.194 62.8772 111.422 62.8772ZM126.088 64.0945C124.421 64.0945 123.158 63.5679 122.298 62.5147C121.438 61.4614 121.008 60.037 121.008 58.2413V50.1089H122.429V58.5521C122.429 59.8125 122.763 60.8398 123.43 61.6341C124.114 62.4111 125.097 62.7995 126.378 62.7995C127.677 62.7995 128.703 62.3938 129.458 61.5823C130.23 60.7708 130.616 59.7089 130.616 58.3967V50.1089H132.011V63.706H130.906V58.2154H131.222C131.222 59.3722 131.028 60.3995 130.642 61.2974C130.274 62.178 129.721 62.8686 128.984 63.3693C128.247 63.8528 127.308 64.0945 126.167 64.0945H126.088ZM136.047 68.8859V50.1089H137.152V55.9103L136.731 56.0916C136.749 54.8139 137.021 53.7003 137.547 52.7506C138.091 51.7837 138.828 51.0326 139.758 50.4974C140.689 49.9621 141.768 49.6945 142.996 49.6945C144.049 49.6945 144.988 49.8931 145.813 50.2902C146.638 50.67 147.331 51.1967 147.893 51.87C148.472 52.5262 148.91 53.2772 149.209 54.1233C149.507 54.9693 149.656 55.8585 149.656 56.7909V57.0499C149.656 57.9305 149.507 58.7938 149.209 59.6398C148.91 60.4686 148.472 61.2283 147.893 61.919C147.331 62.5924 146.638 63.1362 145.813 63.5506C144.988 63.9477 144.049 64.1463 142.996 64.1463C141.768 64.1463 140.68 63.8701 139.732 63.3175C138.802 62.765 138.074 62.0053 137.547 61.0384C137.021 60.0542 136.74 58.9406 136.705 57.6974L137.442 59.5103V68.8859H136.047ZM142.812 62.9031C143.97 62.9031 144.953 62.6269 145.76 62.0744C146.585 61.5046 147.208 60.7708 147.629 59.8729C148.051 58.9578 148.261 57.9736 148.261 56.9204C148.261 55.8154 148.042 54.8139 147.603 53.9161C147.182 53.001 146.559 52.2758 145.734 51.7406C144.927 51.2053 143.953 50.9377 142.812 50.9377C141.759 50.9377 140.82 51.1708 139.995 51.637C139.188 52.0859 138.548 52.7161 138.074 53.5276C137.6 54.3218 137.363 55.237 137.363 56.2729V57.5938C137.363 58.578 137.591 59.4758 138.047 60.2873C138.521 61.0816 139.162 61.7204 139.969 62.2039C140.794 62.67 141.742 62.9031 142.812 62.9031Z" fill="white"/>
<path fill-rule="evenodd" clip-rule="evenodd" d="M79.6577 42.6629H246.103V45.3607H79.6577V42.6629Z" fill="white"/>
</g>
<defs>
<clipPath id="clip0_60_49">
<rect width="286" height="75" fill="white"/>
</clipPath>
</defs>
</svg>
