<svg width="10" height="9" viewBox="0 0 10 9" fill="none" xmlns="http://www.w3.org/2000/svg">
<path d="M6.05532 1.25655C6.68237 1.46674 7.20066 1.13432 7.43843 1.0081C7.23462 1.27084 6.75364 1.58111 6.05532 1.58111C5.33663 1.58111 3.21843 0.830032 2.34782 0.761992C1.86517 0.724273 0.717456 1.40338 1.18776 3.78346C1.65804 6.16356 2.49725 8.32004 3.56325 8.55186C4.41605 8.73731 4.64807 7.25465 4.84403 6.75495C4.67982 8.01764 4.48613 8.32418 4.1708 8.69755C3.73343 9.21538 3.12332 8.81236 2.7915 8.61661C2.39173 8.34358 1.66251 7.57402 0.98527 6.1398C0.308044 4.70558 0.0623804 3.0634 0.0493164 2.36792C0.0545413 1.95836 0.157871 1.23028 0.853908 0.599714C1.54995 -0.0308551 2.58296 -0.0159164 3.03757 0.136059C3.78223 0.421979 5.42826 1.04637 6.05532 1.25655Z" fill="white"/>
<path d="M5.89844 0.599741C6.34261 0.391096 7.43163 0.0526309 8.23425 0.367914C9.23563 0.761261 9.2688 1.40864 9.30788 2.17175L9.30811 2.17615C9.34462 2.88873 8.90384 3.67787 8.70955 3.93805C8.77336 3.50925 8.81179 3.05628 8.80647 2.60119C8.78295 0.599741 7.77964 0.437463 5.89844 0.599741Z" fill="white"/>
<path d="M7.43838 1.00811L7.47753 1.03761L7.41503 0.965351L7.43838 1.00811ZM3.03753 0.13607L3.05542 0.0908174L3.05441 0.0904224L3.05335 0.090076L3.03753 0.13607ZM0.0492674 2.36793L9.77157e-06 2.36731L0 2.36806L1.64112e-05 2.36884L0.0492674 2.36793ZM2.79145 8.61662L2.76341 8.65654L2.76475 8.65745L2.76616 8.65829L2.79145 8.61662ZM4.84398 6.75496L4.89285 6.76115L4.79803 6.73745L4.84398 6.75496ZM5.89849 0.599722L5.87731 0.555878L5.90279 0.648102L5.89849 0.599722ZM8.70961 3.93803L8.66087 3.93098L8.74928 3.96682L8.70961 3.93803ZM7.41503 0.965351C7.17231 1.0942 6.67428 1.41275 6.07113 1.21058L6.03941 1.30254C6.6904 1.52075 7.22892 1.17445 7.46173 1.05087L7.41503 0.965351ZM6.07113 1.21058C5.44532 1.00081 3.80044 0.37688 3.05542 0.0908174L3.01966 0.181323C3.76392 0.467098 5.4111 1.09193 6.03941 1.30254L6.07113 1.21058ZM3.05335 0.090076C2.81769 0.0112971 2.43789 -0.0306339 2.02932 0.0263554C1.62016 0.0834323 1.17772 0.240368 0.820531 0.563962L0.88719 0.635482C1.22604 0.328509 1.64814 0.177629 2.04315 0.122527C2.43878 0.0673411 2.80275 0.108867 3.02173 0.182061L3.05335 0.090076ZM0.820531 0.563962C0.110857 1.20688 0.00533324 1.95021 9.77157e-06 2.36731L0.0985249 2.36854C0.103655 1.96656 0.204784 1.2537 0.88719 0.635482L0.820531 0.563962ZM1.64112e-05 2.36884C0.0131855 3.07005 0.260021 4.71906 0.940563 6.1603L1.02988 6.11931C0.355968 4.69209 0.111477 3.05678 0.0985183 2.36702L1.64112e-05 2.36884ZM0.940563 6.1603C1.6201 7.59944 2.35418 8.37703 2.76341 8.65654L2.8195 8.5767C2.42922 8.31011 1.70479 7.54864 1.02988 6.11931L0.940563 6.1603ZM2.76616 8.65829C2.92938 8.75461 3.17217 8.90917 3.42973 8.97182C3.55952 9.00342 3.69584 9.01249 3.82986 8.97788C3.96451 8.94314 4.09328 8.86517 4.20861 8.72864L4.13288 8.66648C4.02953 8.78886 3.91801 8.85472 3.8049 8.88392C3.69114 8.91329 3.5722 8.90646 3.45331 8.87754C3.21352 8.8192 2.98534 8.67441 2.81674 8.57495L2.76616 8.65829ZM4.20861 8.72864C4.36799 8.53992 4.49902 8.36522 4.61009 8.077C4.7205 7.79053 4.81058 7.39375 4.89285 6.76115L4.79511 6.74878C4.71317 7.37886 4.62431 7.7667 4.518 8.04252C4.41236 8.31659 4.28884 8.48184 4.13288 8.66648L4.20861 8.72864ZM4.79803 6.73745C4.74812 6.86475 4.69583 7.05467 4.63393 7.25871C4.5714 7.46469 4.49817 7.68845 4.40506 7.89025C4.31167 8.0927 4.20027 8.26864 4.06372 8.38254C3.92934 8.49463 3.77032 8.54717 3.57381 8.50443L3.55259 8.5993C3.78247 8.64929 3.97226 8.58606 4.12737 8.45668C4.28027 8.32915 4.39902 8.13796 4.49475 7.93046C4.59074 7.72231 4.66556 7.49331 4.72831 7.28656C4.79166 7.07782 4.84188 6.89506 4.88992 6.77248L4.79803 6.73745ZM3.57381 8.50443C3.32172 8.44962 3.07805 8.27977 2.84587 8.01215C2.61398 7.74481 2.39668 7.38352 2.19684 6.95304C1.79724 6.09225 1.4708 4.96217 1.23606 3.77418L1.13935 3.79276C1.37491 4.98484 1.70322 6.12307 2.10728 6.99348C2.30929 7.42862 2.53106 7.79866 2.77102 8.07528C3.01069 8.35155 3.27168 8.5382 3.55259 8.5993L3.57381 8.50443ZM1.23606 3.77418C1.00242 2.59181 1.17234 1.84049 1.45235 1.3915C1.73333 0.94091 2.12489 0.793299 2.34387 0.810413L2.35165 0.713587C2.08801 0.692983 1.66436 0.866062 1.36842 1.34062C1.07148 1.81678 0.902691 2.59505 1.13935 3.79276L1.23606 3.77418ZM2.34387 0.810413C2.77329 0.843971 3.51453 1.0469 4.24549 1.24392C4.60946 1.34202 4.96976 1.43829 5.28411 1.51002C5.59724 1.58147 5.86936 1.62969 6.05527 1.62969V1.53256C5.88184 1.53256 5.61967 1.48689 5.30631 1.41539C4.99416 1.34416 4.63574 1.24841 4.27147 1.15023C3.54602 0.954696 2.79286 0.748069 2.35165 0.713587L2.34387 0.810413ZM6.05527 1.62969C6.76811 1.62969 7.2639 1.31299 7.47753 1.03761L7.39923 0.97861C7.20525 1.22871 6.73904 1.53256 6.05527 1.53256V1.62969ZM5.9197 0.643563C6.13796 0.54103 6.51691 0.405705 6.94019 0.335221C7.3641 0.264631 7.82669 0.26006 8.21608 0.413009L8.25253 0.32278C7.8393 0.160447 7.35605 0.167469 6.92377 0.239449C6.49083 0.311539 6.10322 0.44977 5.87731 0.555878L5.9197 0.643563ZM8.85578 2.60059C8.84392 1.59365 8.5853 1.02997 8.07322 0.746693C7.81992 0.606557 7.50928 0.537993 7.14649 0.514076C6.78361 0.490153 6.36512 0.510719 5.89422 0.551342L5.90279 0.648102C6.37248 0.607586 6.78482 0.587581 7.13993 0.610989C7.49506 0.634404 7.78945 0.701071 8.02501 0.8314C8.49079 1.08905 8.74557 1.60723 8.75726 2.60172L8.85578 2.60059ZM8.75834 3.94506C8.82244 3.51426 8.86113 3.05872 8.85578 2.60059L8.75726 2.60172C8.76254 3.05383 8.72438 3.50422 8.66087 3.93098L8.75834 3.94506ZM8.74928 3.96682C8.84904 3.83323 9.0098 3.56726 9.14113 3.24485C9.27239 2.9227 9.3761 2.53982 9.35735 2.1737L9.25896 2.17859C9.2767 2.52505 9.1783 2.89301 9.0497 3.20865C8.92123 3.52397 8.76445 3.78266 8.66993 3.90922L8.74928 3.96682ZM9.35735 2.1737L9.35712 2.16927L9.25873 2.17419L9.25896 2.17859L9.35735 2.1737ZM9.35712 2.16927C9.33768 1.7899 9.31975 1.42761 9.17699 1.1114C9.03246 0.791346 8.76284 0.523226 8.25253 0.32278L8.21608 0.413009C8.70714 0.605909 8.95479 0.858152 9.08698 1.1509C9.2209 1.44749 9.23906 1.79044 9.25873 2.17419L9.35712 2.16927ZM9.25873 2.17419C9.2588 2.17561 9.2589 2.17717 9.25896 2.17859L9.35735 2.1737C9.35729 2.17218 9.35719 2.17079 9.35712 2.16927L9.25873 2.17419Z" fill="white"/>
<path d="M8.45116 4.7282C8.75215 4.30782 8.2108 4.33667 7.9025 4.40363C8.10627 4.24136 9.20364 4.11 8.63146 4.85956C8.05924 5.60914 6.59351 5.84869 6.00563 5.86414C5.84106 5.86848 5.61972 5.84869 5.46478 5.75597C5.34721 5.68558 5.41775 5.56792 5.49614 5.5473C5.44126 5.58596 5.49571 5.68189 5.66859 5.70187C6.39755 5.78608 8.07494 5.25368 8.45116 4.7282Z" fill="white" stroke="white" stroke-width="0.1"/>
<path d="M8.0226 6.00053C8.25859 5.63163 7.83413 5.65694 7.59239 5.71571C7.75219 5.57332 8.61261 5.45805 8.16394 6.11579C7.71531 6.77355 6.56602 6.98374 6.10511 6.9973C5.97608 7.00109 5.80251 6.98374 5.68104 6.90238C5.58885 6.84063 5.64416 6.73738 5.7056 6.71929C5.66258 6.75318 5.70527 6.8374 5.84081 6.85491C6.41239 6.9288 7.72759 6.46163 8.0226 6.00053Z" fill="white" stroke="white" stroke-width="0.1"/>
<path d="M7.56371 7.28249C7.74144 7.01655 7.42177 7.03481 7.2397 7.07716C7.36006 6.97449 8.00801 6.89142 7.67014 7.3656C7.33228 7.83979 6.46677 7.99132 6.11964 8.00109C6.0225 8.00385 5.89176 7.99132 5.8003 7.93265C5.73088 7.88813 5.77252 7.8137 5.81879 7.80068C5.78641 7.82513 5.81856 7.8858 5.92063 7.89843C6.35107 7.95172 7.34154 7.6149 7.56371 7.28249Z" fill="white" stroke="white" stroke-width="0.1"/>
<path d="M7.23294 8.39778C7.35531 8.20905 7.13521 8.22201 7.00986 8.25205C7.09272 8.1792 7.53889 8.12021 7.30624 8.45674C7.0736 8.79326 6.47768 8.90081 6.23866 8.90774C6.17177 8.90968 6.08179 8.90081 6.0188 8.85918C5.97098 8.82758 5.99968 8.77477 6.03154 8.76551C6.00924 8.78287 6.03138 8.82593 6.10165 8.83489C6.39801 8.87271 7.07997 8.63367 7.23294 8.39778Z" fill="white" stroke="white" stroke-width="0.1"/>
</svg>
