<svg width="113" height="20" viewBox="0 0 113 20" fill="none" xmlns="http://www.w3.org/2000/svg">
<path d="M5.96934 15.4497C4.80794 15.4497 3.8187 15.2609 3.0019 14.8834C2.18511 14.5058 1.55961 13.9836 1.12571 13.3165C0.691815 12.6495 0.474792 11.8944 0.474792 11.0512H2.35098C2.35098 11.4665 2.45942 11.8818 2.67644 12.2971C2.90618 12.7125 3.28264 13.0586 3.80598 13.3354C4.34204 13.6122 5.06311 13.7507 5.96934 13.7507C6.81171 13.7507 7.50092 13.6311 8.03698 13.392C8.57303 13.1403 8.96864 12.8194 9.22395 12.4293C9.47927 12.0265 9.60685 11.5923 9.60685 11.1267C9.60685 10.5604 9.35797 10.0948 8.8602 9.72977C8.36244 9.35222 7.63494 9.11935 6.6777 9.0313L5.12697 8.89916C3.88899 8.79843 2.89975 8.42089 2.15953 7.76651C1.41932 7.11213 1.04914 6.24995 1.04914 5.18026C1.04914 4.33711 1.2533 3.60088 1.66177 2.97157C2.08295 2.34231 2.66373 1.85149 3.40394 1.49911C4.14416 1.13414 5.00567 0.95166 5.98849 0.95166C6.95844 0.95166 7.81367 1.12786 8.55389 1.48024C9.2941 1.83261 9.86845 2.32973 10.2769 2.97157C10.6981 3.60088 10.9087 4.35599 10.9087 5.2369H9.03251C9.03251 4.79637 8.92407 4.38106 8.70705 3.99097C8.50288 3.60088 8.17742 3.27996 7.73066 3.02821C7.2839 2.77645 6.70328 2.65065 5.98849 2.65065C5.29928 2.65065 4.72493 2.77026 4.26546 3.00933C3.8187 3.2484 3.48052 3.56312 3.25078 3.95321C3.03376 4.33077 2.92532 4.73974 2.92532 5.18026C2.92532 5.68362 3.1232 6.13049 3.51881 6.52058C3.91442 6.91067 4.50163 7.1372 5.28013 7.20018L6.83086 7.33232C7.7881 7.40783 8.61132 7.60915 9.30053 7.93641C10.0025 8.25099 10.5385 8.67898 10.9087 9.22008C11.2916 9.74865 11.483 10.3842 11.483 11.1267C11.483 11.9699 11.2533 12.7188 10.7938 13.3732C10.3344 14.0275 9.68986 14.5372 8.8602 14.9023C8.03055 15.2673 7.06702 15.4497 5.96934 15.4497ZM13.3105 15.1099V5.02924H14.7655V9.35222H14.5357C14.5357 8.37059 14.6633 7.53998 14.9186 6.86038C15.1867 6.16825 15.5823 5.63967 16.1056 5.27465C16.6289 4.90963 17.2926 4.7272 18.0967 4.7272H18.1732C18.9773 4.7272 19.641 4.90963 20.1643 5.27465C20.7003 5.63967 21.096 6.16825 21.3513 6.86038C21.6066 7.53998 21.7342 8.37059 21.7342 9.35222H21.1981C21.1981 8.37059 21.3321 7.53998 21.6002 6.86038C21.8682 6.16825 22.2638 5.63967 22.7871 5.27465C23.3232 4.90963 23.9933 4.7272 24.7973 4.7272H24.8739C25.678 4.7272 26.3481 4.90963 26.8841 5.27465C27.4202 5.63967 27.8158 6.16825 28.0711 6.86038C28.3391 7.53998 28.4731 8.37059 28.4731 9.35222V15.1099H26.6352V8.95579C26.6352 8.13772 26.4311 7.50856 26.0226 7.06803C25.6141 6.61497 25.0462 6.38844 24.3187 6.38844C23.5656 6.38844 22.9594 6.6275 22.5 7.10579C22.0405 7.57139 21.8107 8.22592 21.8107 9.06906V15.1099H19.9728V8.95579C19.9728 8.13772 19.7687 7.50856 19.3602 7.06803C18.9517 6.61497 18.3838 6.38844 17.6563 6.38844C16.9032 6.38844 16.297 6.6275 15.8376 7.10579C15.3781 7.57139 15.1484 8.22592 15.1484 9.06906V15.1099H13.3105ZM31.2831 15.1099V5.02924H33.121V15.1099H31.2831ZM29.7132 6.46395V5.02924H33.121V6.46395H29.7132ZM31.8 3.40576C31.3915 3.40576 31.0852 3.29884 30.881 3.08484C30.6896 2.87084 30.5939 2.60036 30.5939 2.2731C30.5939 1.94588 30.6896 1.67531 30.881 1.46136C31.0852 1.24741 31.3915 1.14044 31.8 1.14044C32.2085 1.14044 32.5083 1.24741 32.6998 1.46136C32.9039 1.67531 33.0061 1.94588 33.0061 2.2731C33.0061 2.60036 32.9039 2.87084 32.6998 3.08484C32.5083 3.29884 32.2085 3.40576 31.8 3.40576ZM35.7365 15.1099V1.32921H37.5744V15.1099H35.7365ZM34.3198 2.76392V1.32921H37.5744V2.76392H34.3198ZM44.3925 15.4497C43.4991 15.4497 42.7269 15.2987 42.0759 14.9967C41.425 14.6946 40.8954 14.2982 40.4869 13.8074C40.0784 13.304 39.7721 12.7439 39.568 12.1272C39.3765 11.5106 39.2808 10.8813 39.2808 10.2395V9.89967C39.2808 9.2453 39.3765 8.60966 39.568 7.99304C39.7721 7.37642 40.0784 6.82262 40.4869 6.3318C40.8954 5.82845 41.4123 5.43202 42.0376 5.14251C42.6759 4.84047 43.4225 4.68944 44.2776 4.68944C45.388 4.68944 46.3005 4.92851 47.0153 5.4068C47.7428 5.8724 48.2788 6.47648 48.6235 7.21906C48.9808 7.96163 49.1595 8.75448 49.1595 9.59763V10.4094H40.0849V9.05018H47.8194L47.3982 9.78641C47.3982 9.06906 47.2833 8.45245 47.0536 7.93641C46.8238 7.40783 46.4792 6.99887 46.0198 6.70936C45.5603 6.41985 44.9795 6.27517 44.2776 6.27517C43.5501 6.27517 42.9439 6.43873 42.4588 6.76599C41.9866 7.09325 41.6292 7.53998 41.3867 8.10631C41.157 8.67264 41.0421 9.327 41.0421 10.0696C41.0421 10.7869 41.157 11.4351 41.3867 12.014C41.6292 12.5803 41.9994 13.0334 42.4971 13.3732C42.9949 13.7004 43.6267 13.864 44.3925 13.864C45.1965 13.864 45.8475 13.6877 46.3452 13.3354C46.8557 12.9831 47.162 12.574 47.2642 12.1084H48.9872C48.8468 12.8005 48.566 13.3984 48.1448 13.9017C47.7236 14.4051 47.194 14.789 46.5558 15.0533C45.9176 15.3176 45.1965 15.4497 44.3925 15.4497ZM54.2873 15.1099V1.32921H56.1635V15.1099H54.2873ZM55.7806 15.1099V13.4487H62.5579V15.1099H55.7806ZM55.7806 8.93691V7.27569H61.9644V8.93691H55.7806ZM55.7806 2.99045V1.32921H62.3664V2.99045H55.7806ZM64.4457 15.1099V5.02924H65.9007V9.35222H65.671C65.671 8.35806 65.805 7.5211 66.073 6.8415C66.3538 6.14937 66.7749 5.62699 67.3366 5.27465C67.8982 4.90963 68.6066 4.7272 69.4616 4.7272H69.5382C70.8273 4.7272 71.7782 5.12363 72.3908 5.91649C73.0161 6.70936 73.3289 7.85456 73.3289 9.35222V15.1099H71.491V8.97467C71.491 8.19435 71.2677 7.57139 70.8209 7.10579C70.3742 6.6275 69.7615 6.38844 68.983 6.38844C68.1789 6.38844 67.528 6.63385 67.0303 7.12467C66.5325 7.61549 66.2836 8.26987 66.2836 9.08793V15.1099H64.4457ZM79.9845 15.4497C79.0912 15.4497 78.3189 15.2987 77.668 14.9967C77.0171 14.6946 76.4875 14.2982 76.079 13.8074C75.6705 13.304 75.3642 12.7439 75.16 12.1272C74.9686 11.5106 74.8729 10.8813 74.8729 10.2395V9.89967C74.8729 9.2453 74.9686 8.60966 75.16 7.99304C75.3642 7.37642 75.6705 6.82262 76.079 6.3318C76.4875 5.82845 77.0044 5.43202 77.6297 5.14251C78.2679 4.84047 79.0146 4.68944 79.8697 4.68944C80.9801 4.68944 81.8926 4.92851 82.6074 5.4068C83.3349 5.8724 83.8709 6.47648 84.2155 7.21906C84.5728 7.96163 84.7516 8.75448 84.7516 9.59763V10.4094H75.677V9.05018H83.4114L82.9902 9.78641C82.9902 9.06906 82.8754 8.45245 82.6457 7.93641C82.4159 7.40783 82.0713 6.99887 81.6118 6.70936C81.1524 6.41985 80.5716 6.27517 79.8697 6.27517C79.1422 6.27517 78.536 6.43873 78.0509 6.76599C77.5787 7.09325 77.2213 7.53998 76.9788 8.10631C76.7491 8.67264 76.6342 9.327 76.6342 10.0696C76.6342 10.7869 76.7491 11.4351 76.9788 12.014C77.2213 12.5803 77.5914 13.0334 78.0892 13.3732C78.587 13.7004 79.2187 13.864 79.9845 13.864C80.7886 13.864 81.4395 13.6877 81.9373 13.3354C82.4478 12.9831 82.7541 12.574 82.8562 12.1084H84.5793C84.4388 12.8005 84.1581 13.3984 83.7369 13.9017C83.3157 14.4051 82.7861 14.789 82.1479 15.0533C81.5097 15.3176 80.7886 15.4497 79.9845 15.4497ZM86.3082 15.1099V5.02924H87.7631V9.18232H87.6866C87.6866 7.70988 88.012 6.63385 88.6629 5.95425C89.3266 5.26212 90.3158 4.91598 91.6304 4.91598H91.975V6.53946H91.3241C90.303 6.53946 89.518 6.81009 88.9693 7.3512C88.4205 7.87977 88.146 8.64742 88.146 9.65426V15.1099H86.3082ZM96.8626 19.0365C96.3904 19.0365 95.9118 19.0176 95.4267 18.9798C94.9545 18.9421 94.5014 18.8918 94.0675 18.8288V17.2997C94.5269 17.3627 95.0055 17.413 95.5033 17.4508C96.0138 17.501 96.4924 17.5263 96.9392 17.5263C97.8708 17.5263 98.6112 17.4005 99.1604 17.1487C99.7213 16.9096 100.124 16.5257 100.366 15.9972C100.622 15.4811 100.749 14.8142 100.749 13.9961V12.0706L101.362 10.6359C101.323 11.6553 101.106 12.5048 100.71 13.1844C100.315 13.8515 99.7976 14.3548 99.1604 14.6946C98.5346 15.0219 97.839 15.1854 97.0732 15.1854C96.3584 15.1854 95.7012 15.0533 95.1013 14.789C94.5142 14.5122 94.0036 14.1346 93.5697 13.6563C93.1485 13.1781 92.8166 12.6306 92.5742 12.014C92.3444 11.3847 92.2296 10.724 92.2296 10.0318V9.69202C92.2296 8.9872 92.3509 8.33284 92.5933 7.72875C92.8358 7.11213 93.1741 6.57721 93.608 6.12415C94.0419 5.67108 94.5588 5.31875 95.1587 5.067C95.7713 4.81525 96.4414 4.68944 97.1689 4.68944C98.024 4.68944 98.7771 4.87188 99.4281 5.2369C100.079 5.58923 100.589 6.11161 100.96 6.80375C101.343 7.48334 101.554 8.3203 101.591 9.31447L101.055 9.33334V5.02924H102.511V13.9206C102.511 15.1288 102.319 16.1041 101.936 16.8467C101.565 17.6018 100.966 18.1556 100.136 18.5079C99.319 18.8602 98.2283 19.0365 96.8626 19.0365ZM97.4178 13.5242C98.0304 13.5242 98.5856 13.392 99.0826 13.1278C99.5942 12.8635 99.9965 12.4859 100.29 11.9951C100.596 11.4917 100.749 10.8939 100.749 10.2017V9.33334C100.749 8.65376 100.589 8.08109 100.27 7.61549C99.9636 7.14989 99.5613 6.7974 99.0647 6.55834C98.5665 6.31927 98.024 6.19966 97.4369 6.19966C96.7733 6.19966 96.1861 6.35068 95.6756 6.65272C95.1651 6.95477 94.7694 7.38261 94.4886 7.93641C94.2079 8.47752 94.0675 9.11935 94.0675 9.86192C94.0675 10.6045 94.2079 11.2525 94.4886 11.8063C94.7822 12.3601 95.1779 12.788 95.6756 13.09C96.1861 13.3795 96.7669 13.5242 97.4178 13.5242ZM104.172 19.0365V17.413H105.646C106.081 17.413 106.444 17.3564 106.738 17.2431C107.044 17.1424 107.292 16.9663 107.484 16.7145C107.689 16.4628 107.855 16.1293 107.982 15.714L111.198 5.02924H112.999L109.59 16.1859C109.386 16.853 109.099 17.3941 108.728 17.8094C108.359 18.2373 107.906 18.5457 107.369 18.7344C106.847 18.9357 106.234 19.0365 105.532 19.0365H104.172ZM107.292 14.8834V13.3732H109.514V14.8834H107.292ZM107.101 14.8834L103.444 5.02924H105.321L108.824 14.8834H107.101Z" fill="white"/>
</svg>
