<svg width="39" height="11" viewBox="0 0 39 11" fill="none" xmlns="http://www.w3.org/2000/svg">
<path d="M3.75331 10.7286C3.41828 10.7286 3.06888 10.7144 2.70513 10.6861C2.34138 10.6578 1.99199 10.6153 1.65696 10.5587V9.89324C2.00156 9.94987 2.36053 9.99234 2.73385 10.0207C3.11675 10.0584 3.47571 10.0773 3.81074 10.0773C4.57653 10.0773 5.1796 9.97819 5.61993 9.77997C6.06026 9.59119 6.37614 9.27499 6.56759 8.83137C6.75904 8.39718 6.85476 7.81669 6.85476 7.0899V5.5608L7.19937 4.52725C7.1898 5.20685 7.04143 5.80622 6.75426 6.32535C6.47666 6.84449 6.08897 7.25508 5.59121 7.55712C5.09345 7.84973 4.50953 7.99603 3.83946 7.99603C3.27469 7.99603 2.76736 7.8922 2.31745 7.68455C1.87712 7.46745 1.5038 7.17957 1.19748 6.82089C0.891167 6.45278 0.656642 6.03747 0.493911 5.57496C0.33118 5.10302 0.249817 4.62164 0.249817 4.13082V3.98924C0.249817 3.50786 0.33118 3.04063 0.493911 2.58757C0.656642 2.12507 0.891167 1.71447 1.19748 1.3558C1.5038 0.987683 1.88191 0.699798 2.33181 0.492143C2.78172 0.27505 3.29383 0.166504 3.86818 0.166504C4.56696 0.166504 5.17002 0.322245 5.67736 0.633727C6.1847 0.945209 6.57238 1.36524 6.8404 1.89381C7.118 2.42239 7.26159 3.0076 7.27116 3.64944L6.98399 3.26717V0.393036H7.60141V7.0899C7.60141 7.97715 7.47697 8.68506 7.22809 9.21364C6.97921 9.75165 6.57238 10.1386 6.00761 10.3746C5.44284 10.6106 4.69141 10.7286 3.75331 10.7286ZM3.93997 7.30227C4.51432 7.30227 5.02165 7.17957 5.46198 6.93416C5.90231 6.67931 6.24692 6.33479 6.4958 5.9006C6.74468 5.45698 6.86912 4.95672 6.86912 4.39983V3.67776C6.86912 3.13974 6.74468 2.65836 6.4958 2.23361C6.25649 1.79942 5.91667 1.45491 5.47634 1.20006C5.03601 0.945208 4.52868 0.817784 3.95433 0.817784C3.32255 0.817784 2.7865 0.968805 2.34617 1.27085C1.91541 1.57289 1.58516 1.96932 1.35543 2.46014C1.12569 2.95096 1.01082 3.48426 1.01082 4.06003C1.01082 4.65468 1.13048 5.20213 1.36979 5.70239C1.6091 6.19321 1.94413 6.58492 2.37489 6.87752C2.81522 7.16069 3.33691 7.30227 3.93997 7.30227ZM9.68296 7.82613V0.393036H10.286V3.53617H10.1711C10.1711 2.46014 10.4152 1.65784 10.9034 1.12927C11.3916 0.600691 12.1813 0.336402 13.2726 0.336402H13.5311V1.016H13.129C12.2388 1.016 11.5687 1.24253 11.1188 1.6956C10.6689 2.13922 10.444 2.79522 10.444 3.6636V7.82613H9.68296ZM17.7758 8.06682C17.144 8.06682 16.5841 7.95355 16.0959 7.72702C15.6077 7.50049 15.1961 7.20317 14.861 6.83505C14.5356 6.46694 14.2867 6.05634 14.1144 5.60328C13.9516 5.14078 13.8703 4.66883 13.8703 4.18745V4.04587C13.8703 3.55505 13.9564 3.07839 14.1287 2.61589C14.301 2.15338 14.5547 1.73807 14.8897 1.36996C15.2248 1.00184 15.6316 0.709237 16.1102 0.492143C16.5984 0.27505 17.1536 0.166504 17.7758 0.166504C18.3884 0.166504 18.9341 0.27505 19.4127 0.492143C19.9009 0.709237 20.3125 1.00184 20.6475 1.36996C20.9826 1.73807 21.2362 2.15338 21.4085 2.61589C21.5904 3.07839 21.6813 3.55505 21.6813 4.04587V4.18745C21.6813 4.66883 21.5952 5.14078 21.4229 5.60328C21.2506 6.05634 20.9969 6.46694 20.6619 6.83505C20.3364 7.20317 19.9296 7.50049 19.4414 7.72702C18.9628 7.95355 18.4076 8.06682 17.7758 8.06682ZM17.7758 7.37306C18.4459 7.37306 19.0107 7.22204 19.4701 6.92C19.9392 6.61796 20.2934 6.22152 20.5327 5.7307C20.7815 5.23045 20.906 4.69243 20.906 4.11666C20.906 3.52201 20.7815 2.97928 20.5327 2.48846C20.2838 1.9882 19.9248 1.59177 19.4558 1.29916C18.9963 0.997121 18.4363 0.846101 17.7758 0.846101C17.1249 0.846101 16.5601 0.997121 16.0815 1.29916C15.6125 1.59177 15.2535 1.9882 15.0046 2.48846C14.7557 2.97928 14.6313 3.52201 14.6313 4.11666C14.6313 4.69243 14.7509 5.23045 14.9902 5.7307C15.2391 6.22152 15.5981 6.61796 16.0671 6.92C16.5362 7.22204 17.1057 7.37306 17.7758 7.37306ZM25.7755 8.0385C24.8661 8.0385 24.1769 7.75062 23.7079 7.17485C23.2388 6.59908 23.0043 5.82037 23.0043 4.83873V0.393036H23.7796V5.00863C23.7796 5.69767 23.9615 6.25928 24.3253 6.69347C24.6986 7.11822 25.2346 7.33059 25.9334 7.33059C26.6418 7.33059 27.2018 7.10878 27.6134 6.66515C28.0346 6.22152 28.2452 5.64104 28.2452 4.92368V0.393036H29.0062V7.82613H28.4031V4.82458H28.5754C28.5754 5.45698 28.4701 6.01859 28.2595 6.50941C28.0585 6.99079 27.757 7.36835 27.3549 7.64207C26.9529 7.90636 26.4408 8.0385 25.8186 8.0385H25.7755ZM31.2074 10.6578V0.393036H31.8104V3.56449L31.5807 3.6636C31.5903 2.96512 31.7386 2.35632 32.0258 1.83718C32.3225 1.3086 32.7246 0.898014 33.2319 0.60541C33.7393 0.312806 34.328 0.166504 34.998 0.166504C35.5724 0.166504 36.0845 0.27505 36.5344 0.492143C36.9843 0.699798 37.3624 0.987683 37.6687 1.3558C37.9846 1.71447 38.2239 2.12507 38.3867 2.58757C38.5494 3.05007 38.6308 3.53617 38.6308 4.04587V4.18745C38.6308 4.66883 38.5494 5.14078 38.3867 5.60328C38.2239 6.05634 37.9846 6.47165 37.6687 6.84921C37.3624 7.21732 36.9843 7.51465 36.5344 7.74118C36.0845 7.95827 35.5724 8.06682 34.998 8.06682C34.328 8.06682 33.7345 7.9158 33.2176 7.61376C32.7102 7.31171 32.313 6.8964 32.0258 6.36783C31.7386 5.82981 31.5855 5.22101 31.5663 4.54141L31.9684 5.53249V10.6578H31.2074ZM34.8975 7.38722C35.5293 7.38722 36.0654 7.2362 36.5057 6.93416C36.9556 6.62268 37.2954 6.22152 37.5251 5.7307C37.7549 5.23045 37.8698 4.69243 37.8698 4.11666C37.8698 3.51258 37.7501 2.96512 37.5108 2.4743C37.281 1.97404 36.9412 1.57761 36.4913 1.28501C36.051 0.992403 35.5197 0.846101 34.8975 0.846101C34.3232 0.846101 33.8111 0.973525 33.3612 1.22837C32.9208 1.47378 32.5714 1.8183 32.313 2.26193C32.0545 2.69611 31.9253 3.19637 31.9253 3.76271V4.48478C31.9253 5.02279 32.0497 5.51361 32.2986 5.95724C32.5571 6.39142 32.9065 6.74066 33.3468 7.00495C33.7967 7.2598 34.3136 7.38722 34.8975 7.38722Z" fill="white"/>
</svg>
