<svg width="16" height="16" viewBox="0 0 16 16" fill="none" xmlns="http://www.w3.org/2000/svg">
<rect width="16" height="16" fill="#111111"/>
<path d="M9.05532 5.25655C9.68237 5.46674 10.2007 5.13432 10.4384 5.0081C10.2346 5.27084 9.75364 5.58111 9.05532 5.58111C8.33663 5.58111 6.21843 4.83003 5.34782 4.76199C4.86517 4.72427 3.71746 5.40338 4.18776 7.78346C4.65804 10.1636 5.49725 12.32 6.56325 12.5519C7.41605 12.7373 7.64807 11.2547 7.84403 10.755C7.67982 12.0176 7.48613 12.3242 7.1708 12.6976C6.73343 13.2154 6.12332 12.8124 5.7915 12.6166C5.39173 12.3436 4.66251 11.574 3.98527 10.1398C3.30804 8.70558 3.06238 7.0634 3.04932 6.36792C3.05454 5.95836 3.15787 5.23028 3.85391 4.59971C4.54995 3.96914 5.58296 3.98408 6.03757 4.13606C6.78223 4.42198 8.42826 5.04637 9.05532 5.25655Z" fill="white"/>
<path d="M8.89844 4.59974C9.34261 4.3911 10.4316 4.05263 11.2343 4.36791C12.2356 4.76126 12.2688 5.40864 12.3079 6.17175L12.3081 6.17615C12.3446 6.88873 11.9038 7.67787 11.7096 7.93805C11.7734 7.50925 11.8118 7.05628 11.8065 6.60119C11.783 4.59974 10.7796 4.43746 8.89844 4.59974Z" fill="white"/>
<path d="M10.4384 5.00811L10.4775 5.03761L10.415 4.96535L10.4384 5.00811ZM6.03753 4.13607L6.05542 4.09082L6.05441 4.09042L6.05335 4.09008L6.03753 4.13607ZM3.04927 6.36793L3.00001 6.36731L3 6.36806L3.00002 6.36884L3.04927 6.36793ZM5.79145 12.6166L5.76341 12.6565L5.76475 12.6574L5.76616 12.6583L5.79145 12.6166ZM7.84398 10.755L7.89285 10.7611L7.79803 10.7374L7.84398 10.755ZM8.89849 4.59972L8.87731 4.55588L8.90279 4.6481L8.89849 4.59972ZM11.7096 7.93803L11.6609 7.93098L11.7493 7.96682L11.7096 7.93803ZM10.415 4.96535C10.1723 5.0942 9.67428 5.41275 9.07113 5.21058L9.03941 5.30254C9.6904 5.52075 10.2289 5.17445 10.4617 5.05087L10.415 4.96535ZM9.07113 5.21058C8.44532 5.00081 6.80044 4.37688 6.05542 4.09082L6.01966 4.18132C6.76392 4.4671 8.4111 5.09193 9.03941 5.30254L9.07113 5.21058ZM6.05335 4.09008C5.81769 4.0113 5.43789 3.96937 5.02932 4.02636C4.62016 4.08343 4.17772 4.24037 3.82053 4.56396L3.88719 4.63548C4.22604 4.32851 4.64814 4.17763 5.04315 4.12253C5.43878 4.06734 5.80275 4.10887 6.02173 4.18206L6.05335 4.09008ZM3.82053 4.56396C3.11086 5.20688 3.00533 5.95021 3.00001 6.36731L3.09852 6.36854C3.10365 5.96656 3.20478 5.2537 3.88719 4.63548L3.82053 4.56396ZM3.00002 6.36884C3.01319 7.07005 3.26002 8.71906 3.94056 10.1603L4.02988 10.1193C3.35597 8.69209 3.11148 7.05678 3.09852 6.36702L3.00002 6.36884ZM3.94056 10.1603C4.6201 11.5994 5.35418 12.377 5.76341 12.6565L5.8195 12.5767C5.42922 12.3101 4.70479 11.5486 4.02988 10.1193L3.94056 10.1603ZM5.76616 12.6583C5.92938 12.7546 6.17217 12.9092 6.42973 12.9718C6.55952 13.0034 6.69584 13.0125 6.82986 12.9779C6.96451 12.9431 7.09328 12.8652 7.20861 12.7286L7.13288 12.6665C7.02953 12.7889 6.91801 12.8547 6.8049 12.8839C6.69114 12.9133 6.5722 12.9065 6.45331 12.8775C6.21352 12.8192 5.98534 12.6744 5.81674 12.575L5.76616 12.6583ZM7.20861 12.7286C7.36799 12.5399 7.49902 12.3652 7.61009 12.077C7.7205 11.7905 7.81058 11.3938 7.89285 10.7611L7.79511 10.7488C7.71317 11.3789 7.62431 11.7667 7.518 12.0425C7.41236 12.3166 7.28884 12.4818 7.13288 12.6665L7.20861 12.7286ZM7.79803 10.7374C7.74812 10.8648 7.69583 11.0547 7.63393 11.2587C7.5714 11.4647 7.49817 11.6884 7.40506 11.8902C7.31167 12.0927 7.20027 12.2686 7.06372 12.3825C6.92934 12.4946 6.77032 12.5472 6.57381 12.5044L6.55259 12.5993C6.78247 12.6493 6.97226 12.5861 7.12737 12.4567C7.28027 12.3291 7.39902 12.138 7.49475 11.9305C7.59074 11.7223 7.66556 11.4933 7.72831 11.2866C7.79166 11.0778 7.84188 10.8951 7.88992 10.7725L7.79803 10.7374ZM6.57381 12.5044C6.32172 12.4496 6.07805 12.2798 5.84587 12.0121C5.61398 11.7448 5.39668 11.3835 5.19684 10.953C4.79724 10.0922 4.4708 8.96217 4.23606 7.77418L4.13935 7.79276C4.37491 8.98484 4.70322 10.1231 5.10728 10.9935C5.30929 11.4286 5.53106 11.7987 5.77102 12.0753C6.01069 12.3516 6.27168 12.5382 6.55259 12.5993L6.57381 12.5044ZM4.23606 7.77418C4.00242 6.59181 4.17234 5.84049 4.45235 5.3915C4.73333 4.94091 5.12489 4.7933 5.34387 4.81041L5.35165 4.71359C5.08801 4.69298 4.66436 4.86606 4.36842 5.34062C4.07148 5.81678 3.90269 6.59505 4.13935 7.79276L4.23606 7.77418ZM5.34387 4.81041C5.77329 4.84397 6.51453 5.0469 7.24549 5.24392C7.60946 5.34202 7.96976 5.43829 8.28411 5.51002C8.59724 5.58147 8.86936 5.62969 9.05527 5.62969V5.53256C8.88184 5.53256 8.61967 5.48689 8.30631 5.41539C7.99416 5.34416 7.63574 5.24841 7.27147 5.15023C6.54602 4.9547 5.79286 4.74807 5.35165 4.71359L5.34387 4.81041ZM9.05527 5.62969C9.76811 5.62969 10.2639 5.31299 10.4775 5.03761L10.3992 4.97861C10.2052 5.22871 9.73904 5.53256 9.05527 5.53256V5.62969ZM8.9197 4.64356C9.13796 4.54103 9.51691 4.40571 9.94019 4.33522C10.3641 4.26463 10.8267 4.26006 11.2161 4.41301L11.2525 4.32278C10.8393 4.16045 10.356 4.16747 9.92377 4.23945C9.49083 4.31154 9.10322 4.44977 8.87731 4.55588L8.9197 4.64356ZM11.8558 6.60059C11.8439 5.59365 11.5853 5.02997 11.0732 4.74669C10.8199 4.60656 10.5093 4.53799 10.1465 4.51408C9.78361 4.49015 9.36512 4.51072 8.89422 4.55134L8.90279 4.6481C9.37248 4.60759 9.78482 4.58758 10.1399 4.61099C10.4951 4.6344 10.7894 4.70107 11.025 4.8314C11.4908 5.08905 11.7456 5.60723 11.7573 6.60172L11.8558 6.60059ZM11.7583 7.94506C11.8224 7.51426 11.8611 7.05872 11.8558 6.60059L11.7573 6.60172C11.7625 7.05383 11.7244 7.50422 11.6609 7.93098L11.7583 7.94506ZM11.7493 7.96682C11.849 7.83323 12.0098 7.56726 12.1411 7.24485C12.2724 6.9227 12.3761 6.53982 12.3574 6.1737L12.259 6.17859C12.2767 6.52505 12.1783 6.89301 12.0497 7.20865C11.9212 7.52397 11.7644 7.78266 11.6699 7.90922L11.7493 7.96682ZM12.3574 6.1737L12.3571 6.16927L12.2587 6.17419L12.259 6.17859L12.3574 6.1737ZM12.3571 6.16927C12.3377 5.7899 12.3197 5.42761 12.177 5.1114C12.0325 4.79135 11.7628 4.52323 11.2525 4.32278L11.2161 4.41301C11.7071 4.60591 11.9548 4.85815 12.087 5.1509C12.2209 5.44749 12.2391 5.79044 12.2587 6.17419L12.3571 6.16927ZM12.2587 6.17419C12.2588 6.17561 12.2589 6.17717 12.259 6.17859L12.3574 6.1737C12.3573 6.17218 12.3572 6.17079 12.3571 6.16927L12.2587 6.17419Z" fill="white"/>
<path d="M11.4512 8.7282C11.7521 8.30782 11.2108 8.33667 10.9025 8.40363C11.1063 8.24136 12.2036 8.11 11.6315 8.85956C11.0592 9.60914 9.59351 9.84869 9.00563 9.86414C8.84106 9.86848 8.61972 9.84869 8.46478 9.75597C8.34721 9.68558 8.41775 9.56792 8.49614 9.5473C8.44126 9.58596 8.49571 9.68189 8.66859 9.70187C9.39755 9.78608 11.0749 9.25368 11.4512 8.7282Z" fill="white" stroke="white" stroke-width="0.1"/>
<path d="M11.0226 10.0005C11.2586 9.63163 10.8341 9.65694 10.5924 9.71571C10.7522 9.57332 11.6126 9.45805 11.1639 10.1158C10.7153 10.7735 9.56602 10.9837 9.10511 10.9973C8.97608 11.0011 8.80251 10.9837 8.68104 10.9024C8.58885 10.8406 8.64416 10.7374 8.7056 10.7193C8.66258 10.7532 8.70527 10.8374 8.84081 10.8549C9.41239 10.9288 10.7276 10.4616 11.0226 10.0005Z" fill="white" stroke="white" stroke-width="0.1"/>
<path d="M10.5637 11.2825C10.7414 11.0166 10.4218 11.0348 10.2397 11.0772C10.3601 10.9745 11.008 10.8914 10.6701 11.3656C10.3323 11.8398 9.46677 11.9913 9.11964 12.0011C9.0225 12.0038 8.89176 11.9913 8.8003 11.9326C8.73088 11.8881 8.77252 11.8137 8.81879 11.8007C8.78641 11.8251 8.81856 11.8858 8.92063 11.8984C9.35107 11.9517 10.3415 11.6149 10.5637 11.2825Z" fill="white" stroke="white" stroke-width="0.1"/>
<path d="M10.2329 12.3978C10.3553 12.2091 10.1352 12.222 10.0099 12.2521C10.0927 12.1792 10.5389 12.1202 10.3062 12.4567C10.0736 12.7933 9.47768 12.9008 9.23866 12.9077C9.17177 12.9097 9.08179 12.9008 9.0188 12.8592C8.97098 12.8276 8.99968 12.7748 9.03154 12.7655C9.00924 12.7829 9.03138 12.8259 9.10165 12.8349C9.39801 12.8727 10.08 12.6337 10.2329 12.3978Z" fill="white" stroke="white" stroke-width="0.1"/>
</svg>
