<svg width="93" height="42" viewBox="0 0 93 42" fill="none" xmlns="http://www.w3.org/2000/svg">
<path d="M35.6199 15.4467C35.6199 13.4686 37.1169 11.8647 39.2286 11.8647C40.5384 11.8647 41.2602 12.3726 41.9017 12.9874L40.9929 14.0299C40.4583 13.5488 40.0038 13.2547 39.2019 13.2547C38.0257 13.2547 37.1971 14.217 37.1971 15.4199C37.1971 16.5961 38.0257 17.5852 39.2019 17.5852C40.0038 17.5852 40.485 17.2644 41.0196 16.7832L41.9819 17.8257C41.2602 18.6009 40.485 19.0019 39.1484 19.0019C37.1169 19.0286 35.6199 17.4515 35.6199 15.4467Z" fill="#E2E2E2"/>
<path d="M45.5907 11.945H47.0075L49.9746 18.9218H48.3707L47.7292 17.3714H44.7888L44.1472 18.9218H42.5968L45.5907 11.945ZM47.1946 16.0081L46.2857 13.7627L45.3769 16.0081H47.1946Z" fill="#E2E2E2"/>
<path d="M51.0438 11.9716H53.7436C55.9088 11.9716 57.4325 13.4686 57.4325 15.4467C57.4325 17.3981 55.9356 18.9217 53.7436 18.9217H51.0438V11.9716ZM53.7436 17.5317C55 17.5317 55.8287 16.703 55.8287 15.4467C55.8287 14.2171 55 13.3617 53.7436 13.3617H52.5675V17.5317H53.7436Z" fill="#E2E2E2"/>
<path d="M60.7739 15.3131C60.7739 13.335 62.2708 11.7311 64.3826 11.7311C65.6924 11.7311 66.4141 12.239 67.0557 12.8538L66.1468 13.8963C65.6122 13.4152 65.1578 13.1211 64.3558 13.1211C63.1797 13.1211 62.351 14.0834 62.351 15.2863C62.351 16.4625 63.1797 17.4516 64.3558 17.4516C65.1578 17.4516 65.6389 17.1308 66.1735 16.6496L67.1359 17.6921C66.4141 18.4673 65.6389 18.8683 64.3024 18.8683C62.2975 18.895 60.7739 17.3446 60.7739 15.3131Z" fill="#E2E2E2"/>
<path d="M70.7712 11.8113H72.188L75.1551 18.7881H73.5513L72.9097 17.2377H69.9693L69.3277 18.7881H67.7773L70.7712 11.8113ZM72.3751 15.8744L71.4662 13.629L70.5574 15.8744H72.3751Z" fill="#E2E2E2"/>
<path d="M76.2244 11.8647H77.855L79.6727 14.8051L81.4904 11.8647H83.121V18.7881H81.5973V14.2705L79.6459 17.2377H79.6192L77.6946 14.2972V18.7881H76.1976V11.8647H76.2244Z" fill="#E2E2E2"/>
<path d="M36.4219 21.1938H42.0621V21.9957H37.304V24.6689H41.5542V25.4708H37.304V28.1974H42.1156V28.9993H36.4219V21.1938Z" fill="#B6B6B6"/>
<path d="M43.9066 21.1938H44.7352L49.6537 27.4489V21.1938H50.5091V28.9993H49.8141L44.7619 22.5838V28.9993H43.9066V21.1938Z" fill="#B6B6B6"/>
<path d="M52.7278 21.1938H58.3681V21.9957H53.6099V24.6689H57.8602V25.4708H53.6099V28.1974H58.4215V28.9993H52.7278V21.1938Z" fill="#B6B6B6"/>
<path d="M60.2125 21.1938H63.5539C64.5162 21.1938 65.2914 21.4879 65.7725 21.969C66.1468 22.3433 66.3874 22.9046 66.3874 23.5194C66.3874 24.8025 65.5052 25.5777 64.2756 25.7916L66.6814 28.9726H65.6122L63.34 25.9252H61.0946V28.9726H60.2125V21.1938ZM63.4737 25.1767C64.6499 25.1767 65.4785 24.5619 65.4785 23.5462C65.4785 22.5838 64.73 21.9957 63.4737 21.9957H61.0679V25.1767H63.4737Z" fill="#B6B6B6"/>
<path d="M67.9377 25.0966C67.9377 22.9581 69.5149 21.0602 71.8672 21.0602C73.177 21.0602 74.0057 21.4344 74.7809 22.1027L74.2195 22.771C73.6047 22.2363 72.9365 21.8888 71.8405 21.8888C70.103 21.8888 68.8733 23.3591 68.8733 25.1233C68.8733 26.9945 70.0762 28.3845 71.9741 28.3845C72.8563 28.3845 73.6849 28.037 74.2195 27.6093V25.6579H71.8405V24.856H75.0482V27.9568C74.3265 28.5983 73.2305 29.1597 71.9207 29.1597C69.4347 29.133 67.9377 27.3687 67.9377 25.0966Z" fill="#B6B6B6"/>
<path d="M79.1381 25.9252L75.8769 21.1938H76.9461L79.5925 25.0966L82.2389 21.1938H83.2547L79.9935 25.8985V28.9993H79.1114V25.9252H79.1381Z" fill="#B6B6B6"/>
<path d="M25.8096 19.1623C26.2106 21.087 25.7294 23.1987 24.3127 24.7759C21.9604 27.4222 17.8972 27.6361 15.2509 25.2838C12.6045 22.9314 12.3906 18.8683 14.743 16.2219C16.1864 14.5913 18.2715 13.8963 20.2763 14.1369L23.3236 10.7153C19.3674 9.16493 14.6895 10.154 11.6689 13.4954C7.81963 17.7991 8.16713 24.4551 12.4976 28.3311C16.8013 32.1804 23.4573 31.8329 27.3333 27.5024C30.3004 24.1878 30.7549 19.4831 28.857 15.7408L25.8096 19.1623Z" fill="#E2E2E2"/>
<path d="M26.4779 12.6132C25.6492 11.8914 24.8473 11.4103 24.2058 11.0895C23.1632 12.2657 22.1475 13.4151 21.1049 14.5913C21.7198 14.8051 22.6821 15.2328 23.6444 16.1149C24.5265 16.9169 25.0344 17.7455 25.3017 18.3069C26.3442 17.1842 27.3867 16.0615 28.4025 14.912C28.055 14.324 27.4402 13.4418 26.4779 12.6132Z" fill="#B6B6B6"/>
</svg>
