<svg width="68" height="17" viewBox="0 0 68 17" fill="none" xmlns="http://www.w3.org/2000/svg">
<g clip-path="url(#clip0_41_588)">
<path d="M4.1916 10.4549C6.30175 10.4549 7.78029 9.32539 7.78029 7.42845C7.78029 5.71976 6.67498 4.9523 4.55047 4.431C2.62692 3.96764 2.16758 3.6201 2.16758 2.83816C2.16758 2.1431 2.77048 1.60732 3.80402 1.60732C4.72272 1.60732 5.62708 1.96933 6.53143 2.64992L7.47885 1.30324C6.45965 0.477854 5.29691 0.0289612 3.83273 0.0289612C1.83741 0.0289612 0.401934 1.23083 0.401934 2.96849C0.401934 4.86542 1.60774 5.50256 3.74661 6.00937C5.61273 6.45826 6.01466 6.84924 6.01466 7.57325C6.01466 8.36968 5.32563 8.87649 4.23466 8.87649C2.98579 8.87649 2.02402 8.39864 1.06225 7.55878L0 8.83305C1.20581 9.91908 2.65563 10.4549 4.1916 10.4549Z" fill="#E2E2E2"/>
<path d="M9.4978 10.31H17.0197V8.71721H11.2635V5.99489H16.302V4.40204H11.2635V1.76661H16.9479V0.173767H9.4978V10.31Z" fill="#E2E2E2"/>
<path d="M18.9565 10.31H19.6743V1.30324L26.7512 10.31H27.311V0.173767H26.5933V8.99233L19.6599 0.173767H18.9565V10.31Z" fill="#E2E2E2"/>
<path d="M29.9385 10.31H37.1589V9.615H30.6849V5.546H36.4412V4.85094H30.6849V0.868827H37.0872V0.173767H29.9385V10.31Z" fill="#E2E2E2"/>
<path d="M39.1962 10.31H39.9426V6.11074H43.2299L46.431 10.31H47.3784L44.0625 5.98041C45.7563 5.74872 47.0052 4.77854 47.0052 3.08433C47.0052 2.33135 46.7181 1.65076 46.2444 1.17292C45.6415 0.564738 44.651 0.173767 43.4165 0.173767H39.1962V10.31ZM39.9426 5.43015V0.868827H43.3735C45.1965 0.868827 46.2588 1.72317 46.2588 3.08433C46.2588 4.57582 45.0099 5.43015 43.3304 5.43015H39.9426Z" fill="#E2E2E2"/>
<path d="M53.8188 10.4838C55.4552 10.4838 56.862 9.77428 57.7664 8.96337V5.05367H53.6896V5.74872H57.0486V8.65929C56.3166 9.28194 55.1251 9.81772 53.8475 9.81772C51.1632 9.81772 49.5411 7.86286 49.5411 5.2419C49.5411 2.76576 51.2493 0.680579 53.6896 0.680579C55.2112 0.680579 56.1299 1.20187 56.9195 1.89693L57.4075 1.3322C56.4026 0.492333 55.3691 0 53.7327 0C50.7325 0 48.7659 2.50511 48.7659 5.2419C48.7659 8.12351 50.6464 10.4838 53.8188 10.4838Z" fill="#E2E2E2"/>
<path d="M62.9471 10.31H63.6935V6.2845L68 0.173767H67.11L63.3347 5.6184L59.5737 0.173767H58.6407L62.9471 6.29898V10.31Z" fill="#E2E2E2"/>
<path d="M1.25581 16.9956C1.6725 16.9956 1.94006 16.7611 2.12428 16.4867V16.9469H2.46201V13.7169H2.12428V15.0975C1.94883 14.8408 1.67689 14.6107 1.25581 14.6107C0.711926 14.6107 0.172424 15.0531 0.172424 15.8009C0.172424 16.562 0.711926 16.9956 1.25581 16.9956ZM1.31721 16.6903C0.887373 16.6903 0.518933 16.3451 0.518933 15.8054C0.518933 15.2434 0.8786 14.916 1.31721 14.916C1.73829 14.916 2.13743 15.27 2.13743 15.7965C2.13743 16.3319 1.73829 16.6903 1.31721 16.6903Z" fill="#E2E2E2"/>
<path d="M6.70815 15.9425H8.50649C8.51088 15.8894 8.51088 15.854 8.51088 15.8231C8.51088 15.1505 8.12489 14.6107 7.4538 14.6107C6.82658 14.6107 6.36603 15.1416 6.36603 15.8054C6.36603 16.5177 6.87483 17 7.49767 17C7.92752 17 8.20385 16.8274 8.43192 16.5708L8.22139 16.3806C8.03716 16.5752 7.81786 16.7036 7.50644 16.7036C7.1073 16.7036 6.75641 16.4248 6.70815 15.9425ZM6.70815 15.6682C6.75641 15.2257 7.05467 14.8983 7.44503 14.8983C7.89242 14.8983 8.12928 15.2523 8.16875 15.6682H6.70815Z" fill="#E2E2E2"/>
<path d="M12.3917 16.9469H12.7295V15.6372C12.7295 15.2081 13.0189 14.9204 13.4094 14.9204C13.8085 14.9204 14.0366 15.1859 14.0366 15.6106V16.9469H14.3743V15.5267C14.3743 14.9823 14.0542 14.6107 13.5059 14.6107C13.1154 14.6107 12.8786 14.8099 12.7295 15.0576V14.6593H12.3917V16.9469Z" fill="#E2E2E2"/>
<path d="M19.143 16.9867C19.3053 16.9867 19.4325 16.9514 19.5509 16.8893V16.5973C19.4325 16.6548 19.336 16.677 19.2219 16.677C18.9938 16.677 18.8404 16.5752 18.8404 16.2965V14.9603H19.5597V14.6593H18.8404V13.9691H18.5026V14.6593H18.1868V14.9603H18.5026V16.3407C18.5026 16.8053 18.7789 16.9867 19.143 16.9867Z" fill="#E2E2E2"/>
<path d="M24.1227 16.9956C24.5218 16.9956 24.7806 16.8097 24.9384 16.6062V16.9469H25.2718V15.5487C25.2718 15.2567 25.1929 15.0355 25.0349 14.8762C24.8727 14.7125 24.6226 14.624 24.3025 14.624C23.9691 14.624 23.7279 14.7037 23.4779 14.8186L23.5788 15.0974C23.7893 15.0001 23.9998 14.9337 24.2673 14.9337C24.6929 14.9337 24.9384 15.1461 24.9384 15.5532V15.6239C24.7367 15.5664 24.5349 15.5267 24.2455 15.5267C23.6709 15.5267 23.2761 15.7832 23.2761 16.2744C23.2761 16.7522 23.6972 16.9956 24.1227 16.9956ZM24.1884 16.7213C23.8814 16.7213 23.6183 16.5532 23.6183 16.2655C23.6183 15.9824 23.8594 15.7965 24.2805 15.7965C24.5569 15.7965 24.7762 15.8452 24.9428 15.8939V16.1062C24.9428 16.4691 24.6051 16.7213 24.1884 16.7213Z" fill="#E2E2E2"/>
<path d="M29.3076 16.947H29.6453V13.7169H29.3076V16.947Z" fill="#E2E2E2"/>
<path d="M39.0733 16.9912C39.5251 16.9912 39.8804 16.7389 39.8804 16.3054C39.8804 15.885 39.5032 15.7479 39.1524 15.6417C38.8496 15.5487 38.5689 15.4647 38.5689 15.2479C38.5689 15.0488 38.74 14.9072 39.0076 14.9072C39.2269 14.9072 39.4682 14.9912 39.6787 15.1285L39.8322 14.8718C39.5997 14.717 39.2926 14.6196 39.0164 14.6196C38.5689 14.6196 38.2444 14.8807 38.2444 15.2745C38.2444 15.7036 38.6391 15.8275 38.9944 15.9292C39.2926 16.0133 39.5603 16.1018 39.5603 16.3319C39.5603 16.562 39.3629 16.7036 39.0909 16.7036C38.8234 16.7036 38.5514 16.5974 38.3058 16.4115L38.1347 16.6549C38.3891 16.8629 38.7487 16.9912 39.0733 16.9912Z" fill="#E2E2E2"/>
<path d="M44.5135 16.9867C44.6758 16.9867 44.803 16.9514 44.9215 16.8893V16.5973C44.803 16.6548 44.7065 16.677 44.5925 16.677C44.3644 16.677 44.2108 16.5752 44.2108 16.2965V14.9603H44.9301V14.6593H44.2108V13.9691H43.8731V14.6593H43.5573V14.9603H43.8731V16.3407C43.8731 16.8053 44.1495 16.9867 44.5135 16.9867Z" fill="#E2E2E2"/>
<path d="M49.651 16.9956C50.0413 16.9956 50.2738 16.7965 50.4274 16.5487V16.9469H50.7608V14.6594H50.4274V15.9691C50.4274 16.3983 50.1334 16.6859 49.7475 16.6859C49.3484 16.6859 49.1203 16.4204 49.1203 15.9957V14.6594H48.7825V16.0797C48.7825 16.6239 49.1027 16.9956 49.651 16.9956Z" fill="#E2E2E2"/>
<path d="M55.7619 16.9956C56.1786 16.9956 56.4461 16.7611 56.6303 16.4867V16.9469H56.9681V13.7169H56.6303V15.0975C56.4549 14.8408 56.183 14.6107 55.7619 14.6107C55.218 14.6107 54.6785 15.0531 54.6785 15.8009C54.6785 16.562 55.218 16.9956 55.7619 16.9956ZM55.8233 16.6903C55.3934 16.6903 55.0251 16.3451 55.0251 15.8054C55.0251 15.2434 55.3847 14.916 55.8233 14.916C56.2444 14.916 56.6435 15.27 56.6435 15.7965C56.6435 16.3319 56.2444 16.6903 55.8233 16.6903Z" fill="#E2E2E2"/>
<path d="M61.0212 14.1595H61.4072V13.7833H61.0212V14.1595ZM61.0432 16.9469H61.3809V14.6594H61.0432V16.9469Z" fill="#E2E2E2"/>
<path d="M66.4895 17C67.1737 17 67.6781 16.4514 67.6781 15.8054C67.6781 15.1505 67.1781 14.6107 66.4982 14.6107C65.814 14.6107 65.314 15.1594 65.314 15.8054C65.314 16.4602 65.8096 17 66.4895 17ZM66.4982 16.6947C66.0201 16.6947 65.6604 16.2965 65.6604 15.8054C65.6604 15.3142 65.9982 14.9116 66.4895 14.9116C66.9675 14.9116 67.3316 15.3142 67.3316 15.8054C67.3316 16.2965 66.9895 16.6947 66.4982 16.6947Z" fill="#E2E2E2"/>
</g>
<defs>
<clipPath id="clip0_41_588">
<rect width="68" height="17" fill="white"/>
</clipPath>
</defs>
</svg>
