<svg width="75" height="21" viewBox="0 0 75 21" fill="none" xmlns="http://www.w3.org/2000/svg">
<path d="M26.6199 5.44668C26.6199 3.46858 28.1169 1.86472 30.2286 1.86472C31.5384 1.86472 32.2602 2.37261 32.9017 2.98742L31.9929 4.02993C31.4583 3.54877 31.0038 3.25473 30.2019 3.25473C29.0257 3.25473 28.1971 4.21705 28.1971 5.41995C28.1971 6.59611 29.0257 7.58516 30.2019 7.58516C31.0038 7.58516 31.485 7.26439 32.0196 6.78323L32.9819 7.82574C32.2602 8.60094 31.485 9.00191 30.1484 9.00191C28.1169 9.02864 26.6199 7.45151 26.6199 5.44668Z" fill="#E2E2E2"/>
<path d="M36.5907 1.94501H38.0075L40.9746 8.92181H39.3707L38.7292 7.37141H35.7888L35.1472 8.92181H33.5968L36.5907 1.94501ZM38.1946 6.00813L37.2857 3.76272L36.3769 6.00813H38.1946Z" fill="#E2E2E2"/>
<path d="M42.0438 1.97165H44.7436C46.9088 1.97165 48.4325 3.46859 48.4325 5.44669C48.4325 7.39805 46.9356 8.92172 44.7436 8.92172H42.0438V1.97165ZM44.7436 7.53171C46 7.53171 46.8287 6.70304 46.8287 5.44669C46.8287 4.21706 46 3.36166 44.7436 3.36166H43.5675V7.53171H44.7436Z" fill="#E2E2E2"/>
<path d="M51.7739 5.31307C51.7739 3.33497 53.2708 1.73111 55.3826 1.73111C56.6924 1.73111 57.4141 2.239 58.0557 2.85381L57.1468 3.89632C56.6122 3.41517 56.1578 3.12113 55.3558 3.12113C54.1797 3.12113 53.351 4.08344 53.351 5.28634C53.351 6.46251 54.1797 7.45155 55.3558 7.45155C56.1578 7.45155 56.6389 7.13078 57.1735 6.64962L58.1359 7.69213C57.4141 8.46734 56.6389 8.8683 55.3024 8.8683C53.2975 8.89503 51.7739 7.34463 51.7739 5.31307Z" fill="#E2E2E2"/>
<path d="M61.7712 1.81128H63.188L66.1551 8.78808H64.5513L63.9097 7.23768H60.9693L60.3277 8.78808H58.7773L61.7712 1.81128ZM63.3751 5.8744L62.4662 3.62899L61.5574 5.8744H63.3751Z" fill="#E2E2E2"/>
<path d="M67.2244 1.86472H68.855L70.6727 4.80513L72.4904 1.86472H74.121V8.78806H72.5973V4.27051L70.6459 7.23766H70.6192L68.6946 4.29724V8.78806H67.1976V1.86472H67.2244Z" fill="#E2E2E2"/>
<path d="M27.4219 11.1938H33.0621V11.9957H28.304V14.6689H32.5542V15.4708H28.304V18.1974H33.1156V18.9993H27.4219V11.1938Z" fill="#B6B6B6"/>
<path d="M34.9066 11.1938H35.7352L40.6537 17.4489V11.1938H41.5091V18.9993H40.8141L35.7619 12.5838V18.9993H34.9066V11.1938Z" fill="#B6B6B6"/>
<path d="M43.7278 11.1938H49.3681V11.9957H44.6099V14.6689H48.8602V15.4708H44.6099V18.1974H49.4215V18.9993H43.7278V11.1938Z" fill="#B6B6B6"/>
<path d="M51.2125 11.1938H54.5539C55.5162 11.1938 56.2914 11.4879 56.7725 11.969C57.1468 12.3433 57.3874 12.9046 57.3874 13.5194C57.3874 14.8025 56.5052 15.5777 55.2756 15.7916L57.6814 18.9726H56.6122L54.34 15.9252H52.0946V18.9726H51.2125V11.1938ZM54.4737 15.1767C55.6499 15.1767 56.4785 14.5619 56.4785 13.5462C56.4785 12.5838 55.73 11.9957 54.4737 11.9957H52.0679V15.1767H54.4737Z" fill="#B6B6B6"/>
<path d="M58.9377 15.0966C58.9377 12.9581 60.5149 11.0602 62.8672 11.0602C64.177 11.0602 65.0057 11.4344 65.7809 12.1027L65.2195 12.771C64.6047 12.2363 63.9365 11.8888 62.8405 11.8888C61.103 11.8888 59.8733 13.3591 59.8733 15.1233C59.8733 16.9945 61.0762 18.3845 62.9741 18.3845C63.8563 18.3845 64.6849 18.037 65.2195 17.6093V15.6579H62.8405V14.856H66.0482V17.9568C65.3265 18.5983 64.2305 19.1597 62.9207 19.1597C60.4347 19.133 58.9377 17.3687 58.9377 15.0966Z" fill="#B6B6B6"/>
<path d="M70.1381 15.9252L66.8769 11.1938H67.9461L70.5925 15.0966L73.2389 11.1938H74.2547L70.9935 15.8985V18.9993H70.1114V15.9252H70.1381Z" fill="#B6B6B6"/>
<path d="M16.8096 9.16235C17.2106 11.087 16.7294 13.1987 15.3127 14.7759C12.9604 17.4222 8.89724 17.6361 6.25086 15.2838C3.60449 12.9314 3.39064 8.86831 5.74297 6.22193C7.18645 4.59134 9.27147 3.89633 11.2763 4.13691L14.3236 0.715335C10.3674 -0.835066 5.68951 0.153982 2.6689 3.49536C-1.18037 7.79906 -0.832866 14.4551 3.49756 18.3311C7.80126 22.1804 14.4573 21.8329 18.3333 17.5024C21.3004 14.1878 21.7549 9.48312 19.857 5.74077L16.8096 9.16235Z" fill="#E2E2E2"/>
<path d="M17.4779 2.61318C16.6492 1.89144 15.8473 1.41028 15.2058 1.08951C14.1632 2.26567 13.1475 3.41511 12.1049 4.59128C12.7198 4.80513 13.6821 5.23282 14.6444 6.11495C15.5265 6.91688 16.0344 7.74554 16.3017 8.30689C17.3442 7.18419 18.3867 6.06148 19.4025 4.91205C19.055 4.32397 18.4402 3.44184 17.4779 2.61318Z" fill="#B6B6B6"/>
</svg>
