<svg width="89" height="35" viewBox="0 0 89 35" fill="none" xmlns="http://www.w3.org/2000/svg">
<path d="M26.5396 18.1731C26.5396 16.0252 28.1302 14.2467 30.297 14.2467C31.6371 14.2467 32.4137 14.779 33.1839 15.4929L32.8207 15.8749C32.1632 15.2361 31.4117 14.7602 30.2845 14.7602C28.4809 14.7602 27.1157 16.2444 27.1157 18.1794C27.1157 20.1019 28.4997 21.5986 30.297 21.5986C31.3804 21.5986 32.1193 21.1728 32.8833 20.415L33.2591 20.7845C32.4638 21.5798 31.6058 22.1059 30.2719 22.1059C28.124 22.0996 26.5396 20.3775 26.5396 18.1731Z" fill="#E2E2E2"/>
<path d="M35.3195 18.1732C35.3195 16.1003 36.8349 14.2467 39.1082 14.2467C41.3814 14.2467 42.8781 16.0816 42.8781 18.1732C42.8781 20.246 41.3626 22.0996 39.0894 22.0996C36.8162 22.0996 35.3195 20.2648 35.3195 18.1732ZM42.2957 18.1732C42.2957 16.2945 40.943 14.7539 39.0831 14.7539C37.2232 14.7539 35.8956 16.2757 35.8956 18.1732C35.8956 20.0519 37.2482 21.5924 39.1082 21.5924C40.9681 21.5924 42.2957 20.0706 42.2957 18.1732Z" fill="#E2E2E2"/>
<path d="M45.8526 14.372H46.3786L51.5638 20.9788V14.372H52.1024V21.9682H51.6828L46.3912 15.2175V21.9682H45.8526V14.372Z" fill="#E2E2E2"/>
<path d="M57.488 14.8918H54.8704V14.372H60.6693V14.8918H58.0453V21.9682H57.488V14.8918Z" fill="#E2E2E2"/>
<path d="M62.5104 18.1732C62.5104 16.1003 64.0259 14.2467 66.2991 14.2467C68.5723 14.2467 70.069 16.0816 70.069 18.1732C70.069 20.246 68.5535 22.0996 66.2803 22.0996C64.0071 22.0996 62.5104 20.2648 62.5104 18.1732ZM69.4929 18.1732C69.4929 16.2945 68.1402 14.7539 66.2803 14.7539C64.4204 14.7539 63.0928 16.2757 63.0928 18.1732C63.0928 20.0519 64.4454 21.5924 66.3053 21.5924C68.159 21.5924 69.4929 20.0706 69.4929 18.1732Z" fill="#E2E2E2"/>
<path d="M72.9246 18.812V14.372H73.482V18.7557C73.482 20.5467 74.4401 21.58 76.0245 21.58C77.5462 21.58 78.5231 20.6469 78.5231 18.812V14.372H79.0805V18.7431C79.0805 20.9224 77.8217 22.0872 75.9994 22.0872C74.2021 22.0872 72.9246 20.9412 72.9246 18.812Z" fill="#E2E2E2"/>
<path d="M82.2742 14.372H85.4304C86.3509 14.372 87.0961 14.6664 87.547 15.1235C87.904 15.4805 88.1169 15.994 88.1169 16.5576C88.1169 17.8288 87.1838 18.5553 85.9188 18.7306L88.3987 21.9745H87.6911L85.2989 18.8245H82.8378V21.9745H82.2804V14.372H82.2742ZM85.3678 18.311C86.6265 18.311 87.5596 17.6723 87.5596 16.5513C87.5596 15.5306 86.7642 14.8918 85.3991 14.8918H82.8315V18.311H85.3678Z" fill="#E2E2E2"/>
<path d="M26.3768 28.1679C26.3768 27.2724 27.0406 26.7276 27.6982 26.7276C28.243 26.7276 28.5937 27.0407 28.8191 27.3851V25.6066H29.0821V29.5393H28.8191V28.9256C28.5874 29.2888 28.2367 29.6019 27.6982 29.6019C27.0406 29.6019 26.3768 29.0697 26.3768 28.1679ZM28.8317 28.1616C28.8317 27.454 28.2868 26.9843 27.7232 26.9843C27.1346 26.9843 26.6586 27.4227 26.6586 28.1679C26.6586 28.8881 27.1534 29.3515 27.7232 29.3515C28.2868 29.3515 28.8317 28.8693 28.8317 28.1616Z" fill="#E2E2E2"/>
<path d="M30.9482 28.1616C30.9482 27.3663 31.4993 26.7276 32.2383 26.7276C33.0023 26.7276 33.4845 27.3538 33.4845 28.1679C33.4845 28.218 33.4845 28.2305 33.4782 28.2744H31.2238C31.2739 28.9569 31.7561 29.3577 32.2884 29.3577C32.708 29.3577 32.996 29.1699 33.2215 28.9256L33.4031 29.0885C33.1275 29.389 32.8019 29.6082 32.2759 29.6082C31.5619 29.602 30.9482 29.0258 30.9482 28.1616ZM33.2027 28.0364C33.1651 27.479 32.852 26.9718 32.2258 26.9718C31.6872 26.9718 31.2739 27.4289 31.2238 28.0364H33.2027Z" fill="#E2E2E2"/>
<path d="M35.3131 26.7964H35.5761V27.31C35.7577 26.9843 36.0583 26.7338 36.5593 26.7338C37.2482 26.7338 37.649 27.2098 37.649 27.8673V29.5456H37.3797V27.9111C37.3797 27.3475 37.0666 26.9718 36.5155 26.9718C35.9832 26.9718 35.5699 27.3788 35.5699 27.955V29.5456H35.3131V26.7964Z" fill="#E2E2E2"/>
<path d="M39.7844 28.8316V27.0343H39.3899V26.7901H39.7844V25.9134H40.0474V26.7901H40.9993V27.0343H40.0474V28.8065C40.0474 29.2011 40.2791 29.3388 40.5923 29.3388C40.7238 29.3388 40.8365 29.3138 40.993 29.2449V29.4954C40.8553 29.558 40.7238 29.5893 40.5484 29.5893C40.1288 29.5893 39.7844 29.3576 39.7844 28.8316Z" fill="#E2E2E2"/>
<path d="M42.6149 28.7314C42.6149 28.1615 43.0971 27.8359 43.8048 27.8359C44.1805 27.8359 44.4435 27.886 44.7065 27.9548V27.8359C44.7065 27.2785 44.3684 26.9967 43.811 26.9967C43.4791 26.9967 43.2098 27.0906 42.9594 27.2159L42.8654 26.9842C43.166 26.8464 43.4541 26.7462 43.8298 26.7462C44.1993 26.7462 44.4936 26.8464 44.6878 27.0468C44.8694 27.2284 44.9633 27.4852 44.9633 27.8233V29.5329H44.7065V29.0758C44.5187 29.3388 44.1868 29.5956 43.667 29.5956C43.1598 29.6018 42.6149 29.3138 42.6149 28.7314ZM44.7065 28.5122V28.1991C44.4748 28.1427 44.1742 28.0738 43.786 28.0738C43.2098 28.0738 42.8905 28.3306 42.8905 28.7251C42.8905 29.1259 43.2662 29.3576 43.6795 29.3576C44.2369 29.3576 44.7065 29.0132 44.7065 28.5122Z" fill="#E2E2E2"/>
<path d="M46.9986 25.6066H47.2616V29.5393H46.9986V25.6066Z" fill="#E2E2E2"/>
<path d="M52.0523 25.6066H52.3153V29.5393H52.0523V25.6066Z" fill="#E2E2E2"/>
<path d="M54.1815 28.7314C54.1815 28.1615 54.6637 27.8359 55.3713 27.8359C55.747 27.8359 56.01 27.886 56.2731 27.9548V27.8359C56.2731 27.2785 55.9349 26.9967 55.3776 26.9967C55.0457 26.9967 54.7764 27.0906 54.5259 27.2159L54.4319 26.9842C54.7325 26.8464 55.0206 26.7462 55.3963 26.7462C55.7658 26.7462 56.0601 26.8464 56.2543 27.0468C56.4359 27.2284 56.5298 27.4852 56.5298 27.8233V29.5329H56.2731V29.0758C56.0852 29.3388 55.7533 29.5956 55.2335 29.5956C54.7263 29.6018 54.1815 29.3138 54.1815 28.7314ZM56.2793 28.5122V28.1991C56.0476 28.1427 55.747 28.0738 55.3588 28.0738C54.7826 28.0738 54.4633 28.3306 54.4633 28.7251C54.4633 29.1259 54.839 29.3576 55.2523 29.3576C55.8034 29.3576 56.2793 29.0132 56.2793 28.5122Z" fill="#E2E2E2"/>
<path d="M58.7905 28.9444V29.5393H58.5275V25.6066H58.7905V27.4039C59.0223 27.0407 59.3729 26.7276 59.9115 26.7276C60.569 26.7276 61.2328 27.2598 61.2328 28.1679C61.2328 29.0634 60.569 29.6082 59.9115 29.6082C59.3667 29.602 59.016 29.2951 58.7905 28.9444ZM60.951 28.1679C60.951 27.4477 60.4563 26.9843 59.8865 26.9843C59.3228 26.9843 58.778 27.4665 58.778 28.1741C58.778 28.8818 59.3228 29.3515 59.8865 29.3515C60.4751 29.3515 60.951 28.9131 60.951 28.1679Z" fill="#E2E2E2"/>
<path d="M62.9236 28.1679C62.9236 27.3976 63.5185 26.7276 64.3263 26.7276C65.1342 26.7276 65.7166 27.3851 65.7166 28.1679C65.7166 28.9382 65.1279 29.6082 64.3138 29.6082C63.5122 29.602 62.9236 28.9444 62.9236 28.1679ZM65.4348 28.1679C65.4348 27.5041 64.9275 26.9781 64.3138 26.9781C63.7001 26.9781 63.2054 27.5104 63.2054 28.1679C63.2054 28.8317 63.6938 29.3577 64.3263 29.3577C64.9275 29.3577 65.4348 28.8254 65.4348 28.1679Z" fill="#E2E2E2"/>
<path d="M67.5891 26.7964H67.8521V27.5792C68.065 27.0908 68.5159 26.7338 69.0545 26.7526V27.0407H69.0294C68.4032 27.0407 67.8521 27.5229 67.8521 28.4121V29.5393H67.5891V26.7964Z" fill="#E2E2E2"/>
<path d="M70.4259 28.7314C70.4259 28.1615 70.9081 27.8359 71.6157 27.8359C71.9915 27.8359 72.2545 27.886 72.5175 27.9548V27.8359C72.5175 27.2785 72.1794 26.9967 71.622 26.9967C71.2901 26.9967 71.0208 27.0906 70.7703 27.2159L70.6764 26.9842C70.977 26.8464 71.2713 26.7462 71.6408 26.7462C72.0103 26.7462 72.3046 26.8464 72.4987 27.0468C72.6803 27.2284 72.7743 27.4852 72.7743 27.8233V29.5329H72.5175V29.0758C72.3296 29.3388 71.9977 29.5956 71.478 29.5956C70.9707 29.6018 70.4259 29.3138 70.4259 28.7314ZM72.5238 28.5122V28.1991C72.2921 28.1427 71.9915 28.0738 71.6032 28.0738C71.0271 28.0738 70.7077 28.3306 70.7077 28.7251C70.7077 29.1259 71.0835 29.3576 71.4968 29.3576C72.0478 29.3576 72.5238 29.0132 72.5238 28.5122Z" fill="#E2E2E2"/>
<path d="M74.916 28.8316V27.0343H74.5215V26.7901H74.916V25.9134H75.179V26.7901H76.1309V27.0343H75.179V28.8065C75.179 29.2011 75.4107 29.3388 75.7239 29.3388C75.8554 29.3388 75.9681 29.3138 76.1246 29.2449V29.4954C75.9869 29.558 75.8554 29.5893 75.68 29.5893C75.2604 29.5893 74.916 29.3576 74.916 28.8316Z" fill="#E2E2E2"/>
<path d="M77.7026 28.1679C77.7026 27.3976 78.2976 26.7276 79.1054 26.7276C79.9132 26.7276 80.4956 27.3851 80.4956 28.1679C80.4956 28.9382 79.907 29.6082 79.0929 29.6082C78.2913 29.602 77.7026 28.9444 77.7026 28.1679ZM80.2138 28.1679C80.2138 27.5041 79.7066 26.9781 79.0929 26.9781C78.4792 26.9781 77.9844 27.5104 77.9844 28.1679C77.9844 28.8317 78.4729 29.3577 79.1054 29.3577C79.7066 29.3577 80.2138 28.8254 80.2138 28.1679Z" fill="#E2E2E2"/>
<path d="M82.3681 26.7964H82.6311V27.5792C82.844 27.0908 83.2949 26.7338 83.8335 26.7526V27.0407H83.8084C83.1822 27.0407 82.6311 27.5229 82.6311 28.4121V29.5393H82.3681V26.7964Z" fill="#E2E2E2"/>
<path d="M85.3553 30.2971L85.4429 30.0654C85.587 30.1343 85.7059 30.1656 85.9063 30.1656C86.1881 30.1656 86.376 29.9965 86.5764 29.5206L85.2676 26.7902H85.5744L86.7016 29.245L87.6848 26.7902H87.9729L86.7956 29.6333C86.5576 30.2094 86.2758 30.4161 85.8875 30.4161C85.6872 30.4161 85.5369 30.3785 85.3553 30.2971Z" fill="#E2E2E2"/>
<path d="M19.3067 21.8806L17.7098 24.4544L18.5615 17.6598L19.3067 21.8806Z" fill="#E2E2E2"/>
<path d="M16.8707 4.75311L16.2131 9.86942L17.8225 13.3199L18.3361 9.39974L16.8707 4.75311Z" fill="#B6B6B6"/>
<path d="M15.6245 3.21883L16.4135 3.45053L16.2758 2.43604L15.5994 1.25246L14.4033 0L10.6522 0.626231L6.53161 1.86617L3.8576 3.74486C5.11633 4.89713 6.90735 6.50654 7.4146 6.91359L14.1591 3.30024L15.6245 3.21883Z" fill="#B6B6B6"/>
<path d="M4.55268 9.78175L5.2979 9.85063L7.0263 7.29561C6.33118 6.732 4.44622 5.02239 3.61334 4.26465L3.00589 8.08466L2.38593 10.0009L2.7554 11.7732L3.40668 10.6898L4.55268 9.78175Z" fill="#B6B6B6"/>
<path d="M4.71556 10.3453L3.78248 11.0843L2.91828 12.5559L2.92454 12.581L2.21064 13.4577L1.89752 16.1568L4.99737 10.3704L4.71556 10.3453Z" fill="#E2E2E2"/>
<path d="M1.90371 12.9756L2.33581 12.437L2.19178 11.7481L1.6908 12.8065L1.90371 12.9756Z" fill="#E2E2E2"/>
<path d="M15.5618 3.7699L14.3094 3.83878L7.58366 7.44587L5.65487 10.2952L1.72214 17.6347L1.59063 18.812L1.49669 18.5364L0 24.5858L0.419574 26.6211L1.53427 27.216L4.50886 18.9372L11.7043 10.815L15.6871 9.70031L16.4135 4.02039L15.5618 3.7699Z" fill="#B6B6B6"/>
<path d="M12.0048 11.2972L4.98477 19.2253L2.00391 27.5166L2.90568 28.2869L4.07673 31.8501L5.34172 33.1277L13.6581 10.8338L12.0048 11.2972Z" fill="#B6B6B6"/>
<path d="M6.75079 34.3299L8.48545 34.5491L11.0593 35L13.1509 34.0106L16.6139 25.8069L17.2589 24.8676L18.2672 16.8017L17.7161 14.3532L15.7873 10.2388L14.3031 10.6521L5.77386 33.5221L6.75079 34.3299Z" fill="#B6B6B6"/>
<path d="M17.785 25.0618L17.0836 26.0888L14.0401 33.3092L14.9168 32.5953L16.5701 30.8168L17.1462 30.1217C17.8351 28.8442 18.9247 26.7777 19.0312 26.5084C19.0625 26.2829 19.2128 25.4939 19.4758 24.1537L19.2503 22.6821L17.785 25.0555V25.0618Z" fill="#E2E2E2"/>
</svg>
