<svg width="93" height="42" viewBox="0 0 93 42" fill="none" xmlns="http://www.w3.org/2000/svg">
<path d="M22.2724 18.8548H28.9102V17.4606H23.8298V15.0841H28.2778V13.6943H23.8298V11.3898H28.8492V10H22.2724V18.8548Z" fill="#E2E2E2"/>
<path d="M17.7663 22.816C19.6708 22.816 20.9886 21.8181 20.9886 20.1497C20.9886 18.6261 19.9981 17.9635 18.0906 17.5025C16.3619 17.087 15.9464 16.7826 15.9464 16.0936C15.9464 15.4803 16.4869 15.0083 17.4163 15.0083C18.3127 15.0399 19.1738 15.3642 19.8694 15.9296L20.7187 14.7377C19.7907 13.9832 18.6237 13.5832 17.4281 13.6104C15.6493 13.6104 14.3816 14.673 14.3816 16.2076C14.3816 17.8797 15.4633 18.443 17.3869 18.8739C19.0627 19.2548 19.4245 19.6166 19.4245 20.2563C19.4245 20.9571 18.8039 21.399 17.8252 21.399C16.7612 21.3894 15.742 20.9718 14.9765 20.2335L14 21.3835C15.0346 22.3115 16.3766 22.8226 17.7663 22.8152" fill="#E2E2E2"/>
<path d="M33.0163 22.8159H34.5929V15.3582H37.4151V13.9074H30.1941V15.3582H33.0163V22.8159Z" fill="#E2E2E2"/>
<path d="M39.0717 22.8159H40.6372V19.7121H42.5645L44.7771 22.8159H46.6206L44.2175 19.4415C45.4632 19.0871 46.3426 18.2076 46.3426 16.7451C46.3426 15.0273 45.1198 13.9074 43.0329 13.9074H39.0717V22.8159ZM40.6372 18.3216V15.3318H42.9226C44.0653 15.3318 44.7661 15.8539 44.7661 16.8098C44.7661 17.7657 44.0536 18.3334 42.9381 18.3334L40.638 18.3216H40.6372Z" fill="#E2E2E2"/>
<path d="M47.5148 22.816H49.1185L50.0171 20.6644H54.2254L55.1321 22.816H56.7888L52.8658 13.8472H51.4187L47.5148 22.816ZM50.6076 19.2776L52.1312 15.7164L53.6548 19.2776H50.6083H50.6076Z" fill="#E2E2E2"/>
<path d="M58.3086 22.8115H61.6293C64.425 22.8115 66.3597 20.8695 66.3597 18.3635C66.3597 15.8575 64.425 13.9074 61.6293 13.9074H58.3086V22.8115ZM59.8741 21.3909V15.3318H61.6301C63.2426 15.2399 64.6251 16.473 64.717 18.0856C64.7229 18.1834 64.7229 18.2812 64.7192 18.379C64.7192 20.146 63.4963 21.4254 61.6308 21.4254L59.8748 21.3909H59.8741Z" fill="#E2E2E2"/>
<path d="M68.2562 22.8159H74.9212V21.4144H69.8217V19.0224H74.2852V17.6245H69.8217V15.309H74.8565V13.9074H68.2562V22.8159Z" fill="#E2E2E2"/>
<path d="M78.189 21.0712H76.4978V22.8117H78.189V21.0712Z" fill="#E2E2E2"/>
<path d="M39.2768 31.0532H40.6784V30.7524H39.6048V30.2384H40.5453V29.9377H39.6048V29.4384H40.6637V29.1377H39.2768V31.0532Z" fill="#E2E2E2"/>
<path d="M41.0711 31.0532H41.4483L41.9432 30.326L42.4344 31.0532H42.8226L42.141 30.0745L42.7925 29.1377H42.4189L41.9505 29.8237L41.4858 29.1377H41.1012L41.7527 30.0789L41.0711 31.0532Z" fill="#E2E2E2"/>
<path d="M43.3256 31.0531H43.6528V30.4361H44.0337C44.3977 30.4891 44.7359 30.2361 44.7889 29.8714C44.7933 29.8413 44.7955 29.8111 44.7955 29.781C44.7999 29.4273 44.5168 29.1376 44.1639 29.1331C44.1374 29.1331 44.1102 29.1339 44.0837 29.1376H43.3256V31.0531ZM43.6528 30.1317V29.4427H44.0337C44.2815 29.4427 44.4374 29.5611 44.4374 29.7854C44.4352 29.981 44.2749 30.1376 44.0793 30.1354C44.0639 30.1354 44.0492 30.1339 44.0337 30.1317H43.6528Z" fill="#E2E2E2"/>
<path d="M45.2375 31.0532H46.6353V30.7524H45.5654V30.2384H46.5022V29.9377H45.5654V29.4384H46.6199V29.1377H45.2375V31.0532Z" fill="#E2E2E2"/>
<path d="M48.0368 31.084C48.3294 31.095 48.6103 30.9692 48.7986 30.745L48.589 30.5281C48.4537 30.6832 48.2581 30.7737 48.0522 30.7759C47.6765 30.7479 47.3948 30.4207 47.4235 30.0449C47.4485 29.7089 47.7162 29.4412 48.0522 29.4162C48.2515 29.4229 48.4405 29.5082 48.578 29.6523L48.7876 29.4045C48.4059 29.0125 47.7794 29.0045 47.3875 29.3854C46.9956 29.767 46.9875 30.3935 47.3684 30.7854C47.5419 30.9641 47.7772 31.0707 48.0258 31.0832" fill="#E2E2E2"/>
<path d="M49.7465 31.0532H50.0781V29.4502H50.6722V29.1377H49.1567V29.4502H49.7465V31.0532Z" fill="#E2E2E2"/>
<path d="M52.1121 31.0532H52.4357V29.6862L53.0225 30.5811H53.0335L53.6203 29.6789V31.0532H53.9475V29.1377H53.6012L53.0335 30.0443L52.4621 29.1377H52.1121V31.0532Z" fill="#E2E2E2"/>
<path d="M55.471 31.0841C56.018 31.0922 56.4681 30.6561 56.4761 30.1091C56.4842 29.562 56.0482 29.112 55.5011 29.1039C54.954 29.0958 54.504 29.5318 54.4959 30.0789C54.4959 30.0841 54.4959 30.0892 54.4959 30.0944C54.4834 30.6282 54.9062 31.0716 55.4401 31.0841C55.4504 31.0841 55.4607 31.0841 55.471 31.0841ZM55.471 30.7753C55.1114 30.7672 54.8261 30.4694 54.8342 30.1098C54.8342 30.1047 54.8342 30.0988 54.8342 30.0936C54.8195 29.7385 55.0952 29.4384 55.4504 29.4237C55.457 29.4237 55.4636 29.4237 55.4702 29.4237C55.8298 29.434 56.1129 29.7333 56.1026 30.0929C56.1026 30.0973 56.1026 30.101 56.1026 30.1054C56.1276 30.4554 55.8644 30.7606 55.5136 30.7856C55.5004 30.7863 55.4871 30.787 55.4739 30.787" fill="#E2E2E2"/>
<path d="M56.9946 31.0532H57.3218V30.387H57.7255L58.1784 31.0532H58.5593L58.0527 30.326C58.3226 30.2671 58.5101 30.023 58.4983 29.7472C58.4983 29.3664 58.2431 29.1377 57.8049 29.1377H56.9747L56.9938 31.0532H56.9946ZM57.3218 30.0855V29.4421H57.7975C58.0409 29.4421 58.1784 29.5561 58.1784 29.762C58.1784 29.9678 58.0299 30.0855 57.7975 30.0855H57.3218Z" fill="#E2E2E2"/>
<path d="M59.0704 31.0532H60.4676V30.7524H59.3977V30.2384H60.3345V29.9377H59.3977V29.4384H60.4528V29.1377H59.0704V31.0532Z" fill="#E2E2E2"/>
<path d="M61.3022 30.6767H60.9477V31.0502H61.3022V30.6767Z" fill="#E2E2E2"/>
<path d="M63.7015 31.084C63.989 31.0825 64.2662 30.9774 64.4824 30.7869V29.9832H63.6868V30.2766H64.1625V30.6347C64.0316 30.7296 63.8743 30.7803 63.7132 30.7796C63.364 30.7832 63.0787 30.5024 63.075 30.1538C63.075 30.134 63.075 30.1141 63.0772 30.0942C63.0617 29.7428 63.3316 29.4442 63.6831 29.4236C63.8787 29.417 64.0677 29.4898 64.2089 29.6258L64.4147 29.3744C64.2206 29.1957 63.9625 29.1023 63.6985 29.1155C63.1662 29.1236 62.7419 29.5619 62.75 30.0942C62.722 30.6134 63.1206 31.0561 63.6397 31.0833C63.6655 31.0847 63.6919 31.0847 63.7177 31.084" fill="#E2E2E2"/>
<path d="M65.0567 31.0532H66.4545V30.7524H65.3846V30.2384H66.3214V29.9377H65.3846V29.4384H66.4398V29.1377H65.0567V31.0532Z" fill="#E2E2E2"/>
<path d="M67.4488 31.0532H67.7804V29.4502H68.3746V29.1377H66.8583V29.4502H67.4488V31.0532Z" fill="#E2E2E2"/>
<path d="M69.8144 31.0532H70.1379V29.6862L70.724 30.5811H70.7357L71.3225 29.6789V31.0532H71.6534V29.1377H71.3034L70.7357 30.0443L70.1644 29.1377H69.8144V31.0532Z" fill="#E2E2E2"/>
<path d="M73.1733 31.0841C73.7204 31.0922 74.1704 30.6561 74.1785 30.1091C74.1866 29.562 73.7506 29.112 73.2035 29.1039C72.6564 29.0958 72.2064 29.5318 72.1983 30.0789C72.1983 30.0841 72.1983 30.0892 72.1983 30.0944C72.1858 30.6282 72.6086 31.0716 73.1425 31.0841C73.1528 31.0841 73.163 31.0841 73.1733 31.0841ZM73.1733 30.7753C72.7961 30.8113 72.4615 30.5348 72.4262 30.1576C72.3902 29.7804 72.6667 29.4458 73.0439 29.4105C73.4211 29.3745 73.7557 29.651 73.791 30.0282C73.7932 30.0502 73.794 30.0716 73.794 30.0936C73.819 30.4436 73.5557 30.7488 73.205 30.7738C73.1917 30.7745 73.1785 30.7753 73.1653 30.7753" fill="#E2E2E2"/>
<path d="M74.6961 31.0532H75.0234V30.387H75.4271L75.8918 31.0532H76.2727L75.766 30.326C76.0359 30.2671 76.2234 30.023 76.2116 29.7472C76.2116 29.3664 75.9565 29.1377 75.5182 29.1377H74.688L74.6954 31.0532H74.6961ZM75.0234 30.0855V29.4421H75.4991C75.7425 29.4421 75.88 29.5561 75.88 29.762C75.88 29.9678 75.7315 30.0855 75.4991 30.0855H75.0234Z" fill="#E2E2E2"/>
<path d="M76.7719 31.0532H78.1697V30.7524H77.0998V30.2384H78.0366V29.9377H77.0998V29.4384H78.158V29.1377H76.7719V31.0532Z" fill="#E2E2E2"/>
<path d="M79 30.6767H78.6456V31.0502H79V30.6767Z" fill="#E2E2E2"/>
</svg>
