<svg width="74" height="9" viewBox="0 0 74 9" fill="none" xmlns="http://www.w3.org/2000/svg">
<path d="M74 4.46824C74 5.41683 73.8202 6.22383 73.4606 6.88925C73.1038 7.55467 72.6168 8.06294 71.9995 8.41406C71.3851 8.76235 70.6941 8.93649 69.9268 8.93649C69.1538 8.93649 68.46 8.76093 67.8456 8.40981C67.2311 8.0587 66.7455 7.55043 66.3887 6.885C66.0319 6.21958 65.8535 5.41399 65.8535 4.46824C65.8535 3.51966 66.0319 2.71266 66.3887 2.04724C66.7455 1.38181 67.2311 0.87496 67.8456 0.526676C68.46 0.175559 69.1538 0 69.9268 0C70.6941 0 71.3851 0.175559 71.9995 0.526676C72.6168 0.87496 73.1038 1.38181 73.4606 2.04724C73.8202 2.71266 74 3.51966 74 4.46824ZM72.1354 4.46824C72.1354 3.85379 72.0434 3.33561 71.8593 2.9137C71.6781 2.4918 71.4219 2.17183 71.0906 1.9538C70.7593 1.73576 70.3713 1.62675 69.9268 1.62675C69.4822 1.62675 69.0943 1.73576 68.763 1.9538C68.4317 2.17183 68.174 2.4918 67.99 2.9137C67.8088 3.33561 67.7182 3.85379 67.7182 4.46824C67.7182 5.0827 67.8088 5.60088 67.99 6.02279C68.174 6.44469 68.4317 6.76466 68.763 6.98269C69.0943 7.20073 69.4822 7.30974 69.9268 7.30974C70.3713 7.30974 70.7593 7.20073 71.0906 6.98269C71.4219 6.76466 71.6781 6.44469 71.8593 6.02279C72.0434 5.60088 72.1354 5.0827 72.1354 4.46824Z" fill="#E2E2E2"/>
<path d="M64.4933 0.118896V8.81753H62.6541V0.118896H64.4933Z" fill="#E2E2E2"/>
<path d="M57.036 8.81753H53.9524V0.118896H57.0614C57.9364 0.118896 58.6896 0.293039 59.3211 0.641325C59.9525 0.986778 60.4381 1.48372 60.7779 2.13215C61.1205 2.78059 61.2918 3.55644 61.2918 4.45972C61.2918 5.36583 61.1205 6.14451 60.7779 6.79578C60.4381 7.44704 59.9497 7.94682 59.3126 8.2951C58.6783 8.64339 57.9194 8.81753 57.036 8.81753ZM55.7915 7.24175H56.9595C57.5032 7.24175 57.9605 7.14548 58.3314 6.95293C58.7052 6.75755 58.9855 6.45599 59.1724 6.04824C59.3621 5.63766 59.457 5.10815 59.457 4.45972C59.457 3.81695 59.3621 3.29169 59.1724 2.88394C58.9855 2.47619 58.7066 2.17604 58.3357 1.9835C57.9647 1.79095 57.5074 1.69467 56.9638 1.69467H55.7915V7.24175Z" fill="#E2E2E2"/>
<path d="M50.6001 0.118896H52.4393V5.76791C52.4393 6.40219 52.2878 6.95718 51.9848 7.43289C51.6846 7.90859 51.2641 8.27953 50.7233 8.5457C50.1825 8.80904 49.5525 8.94071 48.8332 8.94071C48.1112 8.94071 47.4797 8.80904 46.9389 8.5457C46.3981 8.27953 45.9776 7.90859 45.6774 7.43289C45.3773 6.95718 45.2272 6.40219 45.2272 5.76791V0.118896H47.0663V5.61076C47.0663 5.94206 47.1385 6.23654 47.2829 6.49422C47.4302 6.75189 47.6369 6.95435 47.9031 7.10159C48.1692 7.24883 48.4793 7.32245 48.8332 7.32245C49.19 7.32245 49.5001 7.24883 49.7634 7.10159C50.0296 6.95435 50.2349 6.75189 50.3793 6.49422C50.5265 6.23654 50.6001 5.94206 50.6001 5.61076V0.118896Z" fill="#E2E2E2"/>
<path d="M36.9065 1.63521V0.118896H44.0506V1.63521H41.3875V8.81753H39.5696V1.63521H36.9065Z" fill="#E2E2E2"/>
<path d="M34.1192 2.62063C34.0852 2.27801 33.9394 2.01184 33.6817 1.82213C33.4241 1.63241 33.0744 1.53755 32.6326 1.53755C32.3325 1.53755 32.0791 1.58003 31.8724 1.66497C31.6657 1.74709 31.5071 1.86177 31.3967 2.00901C31.2891 2.15625 31.2353 2.32332 31.2353 2.5102C31.2296 2.66594 31.2622 2.80186 31.3329 2.91795C31.4066 3.03405 31.5071 3.13457 31.6345 3.21951C31.7619 3.30163 31.9092 3.37384 32.0762 3.43613C32.2433 3.49559 32.4217 3.54656 32.6114 3.58904L33.3929 3.77592C33.7724 3.86087 34.1206 3.97413 34.4378 4.11571C34.7549 4.25729 35.0296 4.43143 35.2618 4.63814C35.494 4.84485 35.6738 5.08836 35.8012 5.36869C35.9314 5.64902 35.998 5.9704 36.0008 6.33284C35.998 6.86518 35.8621 7.32673 35.5931 7.71749C35.3269 8.10542 34.9418 8.40698 34.4378 8.62218C33.9366 8.83455 33.332 8.94074 32.6241 8.94074C31.9219 8.94074 31.3103 8.83314 30.7893 8.61794C30.2711 8.40273 29.8662 8.08418 29.5745 7.66227C29.2857 7.23754 29.1342 6.71228 29.1201 6.0865H30.8997C30.9195 6.37815 31.0031 6.62167 31.1503 6.81705C31.3004 7.00959 31.5 7.15542 31.7492 7.25453C32.0012 7.3508 32.2858 7.39894 32.6029 7.39894C32.9144 7.39894 33.1848 7.35363 33.4142 7.26302C33.6463 7.17241 33.8262 7.0464 33.9536 6.885C34.081 6.7236 34.1447 6.53813 34.1447 6.3286C34.1447 6.13322 34.0867 5.96899 33.9706 5.8359C33.8573 5.70282 33.6902 5.58955 33.4694 5.49611C33.2513 5.40267 32.9838 5.31772 32.6666 5.24127L31.7195 5.00341C30.9861 4.82502 30.407 4.54611 29.9823 4.16668C29.5575 3.78725 29.3466 3.27615 29.3494 2.63338C29.3466 2.1067 29.4867 1.64657 29.7699 1.25298C30.0559 0.859387 30.4481 0.55216 30.9464 0.331296C31.4448 0.110432 32.0111 0 32.6454 0C33.291 0 33.8545 0.110432 34.3358 0.331296C34.82 0.55216 35.1966 0.859387 35.4656 1.25298C35.7346 1.64657 35.8734 2.10245 35.8819 2.62063H34.1192Z" fill="#E2E2E2"/>
<path d="M21.0139 8.81753H17.9303V0.118896H21.0394C21.9143 0.118896 22.6675 0.293039 23.299 0.641325C23.9304 0.986778 24.416 1.48372 24.7558 2.13215C25.0985 2.78059 25.2698 3.55644 25.2698 4.45972C25.2698 5.36583 25.0985 6.14451 24.7558 6.79578C24.416 7.44704 23.9276 7.94682 23.2905 8.2951C22.6562 8.64339 21.8974 8.81753 21.0139 8.81753ZM19.7694 7.24175H20.9374C21.4811 7.24175 21.9384 7.14548 22.3093 6.95293C22.6831 6.75755 22.9634 6.45599 23.1503 6.04824C23.34 5.63766 23.4349 5.10815 23.4349 4.45972C23.4349 3.81695 23.34 3.29169 23.1503 2.88394C22.9634 2.47619 22.6845 2.17604 22.3136 1.9835C21.9427 1.79095 21.4854 1.69467 20.9417 1.69467H19.7694V7.24175Z" fill="#B6B6B6"/>
<path d="M10.4825 8.81753H8.51169L11.5146 0.118896H13.8846L16.8833 8.81753H14.9125L12.7336 2.10667H12.6656L10.4825 8.81753ZM10.3593 5.39839H15.0144V6.834H10.3593V5.39839Z" fill="#B6B6B6"/>
<path d="M7.82792 3.1643H5.96757C5.93359 2.92361 5.86422 2.70983 5.75945 2.52294C5.65468 2.33323 5.52018 2.17183 5.35595 2.03874C5.19172 1.90566 5.002 1.80372 4.7868 1.73293C4.57443 1.66214 4.34366 1.62675 4.09448 1.62675C3.64425 1.62675 3.25208 1.73859 2.91795 1.96229C2.58382 2.18315 2.32473 2.50595 2.14068 2.93069C1.95663 3.3526 1.8646 3.86512 1.8646 4.46824C1.8646 5.08836 1.95663 5.60937 2.14068 6.03128C2.32756 6.45319 2.58807 6.77174 2.9222 6.98694C3.25633 7.20214 3.64284 7.30974 4.08173 7.30974C4.32808 7.30974 4.55602 7.27718 4.76556 7.21205C4.97793 7.14693 5.16623 7.05207 5.33046 6.92748C5.4947 6.80006 5.63061 6.64574 5.73821 6.46451C5.84864 6.28329 5.9251 6.07659 5.96757 5.8444L7.82792 5.85289C7.77979 6.25214 7.65944 6.63724 7.4669 7.00818C7.27718 7.37629 7.02092 7.70616 6.69812 7.99782C6.37815 8.28664 5.99589 8.516 5.55133 8.68589C5.1096 8.85296 4.60982 8.93649 4.052 8.93649C3.27615 8.93649 2.58241 8.76093 1.97078 8.40981C1.36199 8.0587 0.880624 7.55043 0.526675 6.885C0.175558 6.21958 0 5.41399 0 4.46824C0 3.51966 0.17839 2.71266 0.53517 2.04724C0.89195 1.38181 1.37615 0.87496 1.98777 0.526676C2.5994 0.175559 3.28747 0 4.052 0C4.55602 0 5.02324 0.0707897 5.45364 0.212369C5.88687 0.353949 6.27055 0.560654 6.60468 0.832486C6.93881 1.10149 7.21064 1.43137 7.42018 1.82213C7.63254 2.21289 7.76846 2.66028 7.82792 3.1643Z" fill="#B6B6B6"/>
</svg>
