<svg width="87" height="42" viewBox="0 0 87 42" fill="none" xmlns="http://www.w3.org/2000/svg">
<path d="M80 21.4682C80 22.4168 79.8202 23.2238 79.4606 23.8893C79.1038 24.5547 78.6168 25.0629 77.9995 25.4141C77.3851 25.7623 76.6941 25.9365 75.9268 25.9365C75.1538 25.9365 74.46 25.7609 73.8456 25.4098C73.2311 25.0587 72.7455 24.5504 72.3887 23.885C72.0319 23.2196 71.8535 22.414 71.8535 21.4682C71.8535 20.5197 72.0319 19.7127 72.3887 19.0472C72.7455 18.3818 73.2311 17.875 73.8456 17.5267C74.46 17.1756 75.1538 17 75.9268 17C76.6941 17 77.3851 17.1756 77.9995 17.5267C78.6168 17.875 79.1038 18.3818 79.4606 19.0472C79.8202 19.7127 80 20.5197 80 21.4682ZM78.1354 21.4682C78.1354 20.8538 78.0434 20.3356 77.8593 19.9137C77.6781 19.4918 77.4219 19.1718 77.0906 18.9538C76.7593 18.7358 76.3713 18.6267 75.9268 18.6267C75.4822 18.6267 75.0943 18.7358 74.763 18.9538C74.4317 19.1718 74.174 19.4918 73.99 19.9137C73.8088 20.3356 73.7182 20.8538 73.7182 21.4682C73.7182 22.0827 73.8088 22.6009 73.99 23.0228C74.174 23.4447 74.4317 23.7647 74.763 23.9827C75.0943 24.2007 75.4822 24.3097 75.9268 24.3097C76.3713 24.3097 76.7593 24.2007 77.0906 23.9827C77.4219 23.7647 77.6781 23.4447 77.8593 23.0228C78.0434 22.6009 78.1354 22.0827 78.1354 21.4682Z" fill="#E2E2E2"/>
<path d="M70.4933 17.1189V25.8175H68.6541V17.1189H70.4933Z" fill="#E2E2E2"/>
<path d="M63.036 25.8175H59.9524V17.1189H63.0614C63.9364 17.1189 64.6896 17.293 65.3211 17.6413C65.9525 17.9868 66.4381 18.4837 66.7779 19.1322C67.1205 19.7806 67.2918 20.5564 67.2918 21.4597C67.2918 22.3658 67.1205 23.1445 66.7779 23.7958C66.4381 24.447 65.9497 24.9468 65.3126 25.2951C64.6783 25.6434 63.9194 25.8175 63.036 25.8175ZM61.7915 24.2418H62.9595C63.5032 24.2418 63.9605 24.1455 64.3314 23.9529C64.7052 23.7576 64.9855 23.456 65.1724 23.0482C65.3621 22.6377 65.457 22.1082 65.457 21.4597C65.457 20.8169 65.3621 20.2917 65.1724 19.8839C64.9855 19.4762 64.7066 19.176 64.3357 18.9835C63.9647 18.7909 63.5074 18.6947 62.9638 18.6947H61.7915V24.2418Z" fill="#E2E2E2"/>
<path d="M56.6001 17.1189H58.4393V22.7679C58.4393 23.4022 58.2878 23.9572 57.9848 24.4329C57.6846 24.9086 57.2641 25.2795 56.7233 25.5457C56.1825 25.809 55.5525 25.9407 54.8332 25.9407C54.1112 25.9407 53.4797 25.809 52.9389 25.5457C52.3981 25.2795 51.9776 24.9086 51.6774 24.4329C51.3773 23.9572 51.2272 23.4022 51.2272 22.7679V17.1189H53.0663V22.6108C53.0663 22.9421 53.1385 23.2365 53.2829 23.4942C53.4302 23.7519 53.6369 23.9543 53.9031 24.1016C54.1692 24.2488 54.4793 24.3225 54.8332 24.3225C55.19 24.3225 55.5001 24.2488 55.7634 24.1016C56.0296 23.9543 56.2349 23.7519 56.3793 23.4942C56.5265 23.2365 56.6001 22.9421 56.6001 22.6108V17.1189Z" fill="#E2E2E2"/>
<path d="M42.9065 18.6352V17.1189H50.0506V18.6352H47.3875V25.8175H45.5696V18.6352H42.9065Z" fill="#E2E2E2"/>
<path d="M40.1192 19.6206C40.0852 19.278 39.9394 19.0118 39.6817 18.8221C39.4241 18.6324 39.0744 18.5376 38.6326 18.5376C38.3325 18.5376 38.0791 18.58 37.8724 18.665C37.6657 18.7471 37.5071 18.8618 37.3967 19.009C37.2891 19.1563 37.2353 19.3233 37.2353 19.5102C37.2296 19.6659 37.2622 19.8019 37.3329 19.918C37.4066 20.034 37.5071 20.1346 37.6345 20.2195C37.7619 20.3016 37.9092 20.3738 38.0762 20.4361C38.2433 20.4956 38.4217 20.5466 38.6114 20.589L39.3929 20.7759C39.7724 20.8609 40.1206 20.9741 40.4378 21.1157C40.7549 21.2573 41.0296 21.4314 41.2618 21.6381C41.494 21.8448 41.6738 22.0884 41.8012 22.3687C41.9314 22.649 41.998 22.9704 42.0008 23.3328C41.998 23.8652 41.8621 24.3267 41.5931 24.7175C41.3269 25.1054 40.9418 25.407 40.4378 25.6222C39.9366 25.8346 39.332 25.9407 38.6241 25.9407C37.9219 25.9407 37.3103 25.8331 36.7893 25.6179C36.2711 25.4027 35.8662 25.0842 35.5745 24.6623C35.2857 24.2375 35.1342 23.7123 35.1201 23.0865H36.8997C36.9195 23.3782 37.0031 23.6217 37.1503 23.817C37.3004 24.0096 37.5 24.1554 37.7492 24.2545C38.0012 24.3508 38.2858 24.3989 38.6029 24.3989C38.9144 24.3989 39.1848 24.3536 39.4142 24.263C39.6463 24.1724 39.8262 24.0464 39.9536 23.885C40.081 23.7236 40.1447 23.5381 40.1447 23.3286C40.1447 23.1332 40.0867 22.969 39.9706 22.8359C39.8573 22.7028 39.6902 22.5896 39.4694 22.4961C39.2513 22.4027 38.9838 22.3177 38.6666 22.2413L37.7195 22.0034C36.9861 21.825 36.407 21.5461 35.9823 21.1667C35.5575 20.7872 35.3466 20.2761 35.3494 19.6334C35.3466 19.1067 35.4867 18.6466 35.7699 18.253C36.0559 17.8594 36.4481 17.5522 36.9464 17.3313C37.4448 17.1104 38.0111 17 38.6454 17C39.291 17 39.8545 17.1104 40.3358 17.3313C40.82 17.5522 41.1966 17.8594 41.4656 18.253C41.7346 18.6466 41.8734 19.1025 41.8819 19.6206H40.1192Z" fill="#E2E2E2"/>
<path d="M27.0139 25.8175H23.9303V17.1189H27.0394C27.9143 17.1189 28.6675 17.293 29.299 17.6413C29.9304 17.9868 30.416 18.4837 30.7558 19.1322C31.0985 19.7806 31.2698 20.5564 31.2698 21.4597C31.2698 22.3658 31.0985 23.1445 30.7558 23.7958C30.416 24.447 29.9276 24.9468 29.2905 25.2951C28.6562 25.6434 27.8974 25.8175 27.0139 25.8175ZM25.7694 24.2418H26.9374C27.4811 24.2418 27.9384 24.1455 28.3093 23.9529C28.6831 23.7576 28.9634 23.456 29.1503 23.0482C29.34 22.6377 29.4349 22.1082 29.4349 21.4597C29.4349 20.8169 29.34 20.2917 29.1503 19.8839C28.9634 19.4762 28.6845 19.176 28.3136 18.9835C27.9427 18.7909 27.4854 18.6947 26.9417 18.6947H25.7694V24.2418Z" fill="#B6B6B6"/>
<path d="M16.4825 25.8175H14.5117L17.5146 17.1189H19.8846L22.8833 25.8175H20.9125L18.7336 19.1067H18.6656L16.4825 25.8175ZM16.3593 22.3984H21.0144V23.834H16.3593V22.3984Z" fill="#B6B6B6"/>
<path d="M13.8279 20.1643H11.9676C11.9336 19.9236 11.8642 19.7098 11.7594 19.5229C11.6547 19.3332 11.5202 19.1718 11.3559 19.0387C11.1917 18.9057 11.002 18.8037 10.7868 18.7329C10.5744 18.6621 10.3437 18.6267 10.0945 18.6267C9.64425 18.6267 9.25208 18.7386 8.91795 18.9623C8.58382 19.1832 8.32473 19.506 8.14068 19.9307C7.95663 20.3526 7.8646 20.8651 7.8646 21.4682C7.8646 22.0884 7.95663 22.6094 8.14068 23.0313C8.32756 23.4532 8.58807 23.7717 8.9222 23.9869C9.25633 24.2021 9.64284 24.3097 10.0817 24.3097C10.3281 24.3097 10.556 24.2772 10.7656 24.2121C10.9779 24.1469 11.1662 24.0521 11.3305 23.9275C11.4947 23.8001 11.6306 23.6457 11.7382 23.4645C11.8486 23.2833 11.9251 23.0766 11.9676 22.8444L13.8279 22.8529C13.7798 23.2521 13.6594 23.6372 13.4669 24.0082C13.2772 24.3763 13.0209 24.7062 12.6981 24.9978C12.3782 25.2866 11.9959 25.516 11.5513 25.6859C11.1096 25.853 10.6098 25.9365 10.052 25.9365C9.27615 25.9365 8.58241 25.7609 7.97078 25.4098C7.36199 25.0587 6.88062 24.5504 6.52668 23.885C6.17556 23.2196 6 22.414 6 21.4682C6 20.5197 6.17839 19.7127 6.53517 19.0472C6.89195 18.3818 7.37615 17.875 7.98777 17.5267C8.5994 17.1756 9.28747 17 10.052 17C10.556 17 11.0232 17.0708 11.4536 17.2124C11.8869 17.3539 12.2706 17.5607 12.6047 17.8325C12.9388 18.1015 13.2106 18.4314 13.4202 18.8221C13.6325 19.2129 13.7685 19.6603 13.8279 20.1643Z" fill="#B6B6B6"/>
</svg>
