<svg width="65" height="22" viewBox="0 0 65 22" fill="none" xmlns="http://www.w3.org/2000/svg">
<path d="M8.27242 8.85481H14.9102V7.46063H9.82984V5.08405H14.2778V3.69429H9.82984V1.38977H14.8492V0H8.27242V8.85481Z" fill="#E2E2E2"/>
<path d="M3.76635 12.816C5.67085 12.816 6.98855 11.8181 6.98855 10.1497C6.98855 8.62607 5.99807 7.96354 4.09063 7.50249C2.36187 7.08703 1.94641 6.7826 1.94641 6.0936C1.94641 5.48034 2.48688 5.00826 3.41633 5.00826C4.3127 5.03988 5.17376 5.36416 5.86938 5.92962L6.71869 4.73766C5.7907 3.98321 4.62374 3.5832 3.4281 3.6104C1.64934 3.6104 0.381635 4.67295 0.381635 6.20758C0.381635 7.87971 1.4633 8.44297 3.38692 8.87388C5.06273 9.25478 5.42451 9.61656 5.42451 10.2563C5.42451 10.9571 4.80389 11.399 3.82517 11.399C2.76115 11.3894 1.74199 10.9718 0.976515 10.2335L0 11.3835C1.03461 12.3115 2.37658 12.8226 3.76635 12.8152" fill="#E2E2E2"/>
<path d="M19.0163 12.8159H20.5929V5.35824H23.4151V3.90744H16.1941V5.35824H19.0163V12.8159Z" fill="#E2E2E2"/>
<path d="M25.0717 12.8159H26.6372V9.71211H28.5645L30.7771 12.8159H32.6206L30.2175 9.44151C31.4632 9.08709 32.3426 8.20763 32.3426 6.74507C32.3426 5.02734 31.1198 3.90744 29.0329 3.90744H25.0717V12.8159ZM26.6372 8.32161V5.33177H28.9226C30.0653 5.33177 30.7661 5.85385 30.7661 6.80978C30.7661 7.7657 30.0536 8.33338 28.9381 8.33338L26.638 8.32161H26.6372Z" fill="#E2E2E2"/>
<path d="M33.5148 12.816H35.1185L36.0171 10.6644H40.2254L41.1321 12.816H42.7888L38.8658 3.84717H37.4187L33.5148 12.816ZM36.6076 9.27756L38.1312 5.71637L39.6548 9.27756H36.6083H36.6076Z" fill="#E2E2E2"/>
<path d="M44.3086 12.8115H47.6293C50.425 12.8115 52.3597 10.8695 52.3597 8.36352C52.3597 5.85753 50.425 3.90744 47.6293 3.90744H44.3086V12.8115ZM45.8741 11.3909V5.33177H47.6301C49.2426 5.23985 50.6251 6.473 50.717 8.08557C50.7229 8.18337 50.7229 8.28117 50.7192 8.37897C50.7192 10.146 49.4963 11.4254 47.6308 11.4254L45.8748 11.3909H45.8741Z" fill="#E2E2E2"/>
<path d="M54.2562 12.8159H60.9212V11.4144H55.8217V9.02238H60.2852V7.62452H55.8217V5.30897H60.8565V3.90744H54.2562V12.8159Z" fill="#E2E2E2"/>
<path d="M64.189 11.0712H62.4978V12.8117H64.189V11.0712Z" fill="#E2E2E2"/>
<path d="M25.2768 21.0532H26.6784V20.7524H25.6048V20.2384H26.5453V19.9377H25.6048V19.4384H26.6637V19.1377H25.2768V21.0532Z" fill="#E2E2E2"/>
<path d="M27.0711 21.0532H27.4483L27.9432 20.326L28.4344 21.0532H28.8226L28.141 20.0745L28.7925 19.1377H28.4189L27.9505 19.8237L27.4858 19.1377H27.1012L27.7527 20.0789L27.0711 21.0532Z" fill="#E2E2E2"/>
<path d="M29.3256 21.0531H29.6528V20.4361H30.0337C30.3977 20.4891 30.7359 20.2361 30.7889 19.8714C30.7933 19.8413 30.7955 19.8111 30.7955 19.781C30.7999 19.4273 30.5168 19.1376 30.1639 19.1331C30.1374 19.1331 30.1102 19.1339 30.0837 19.1376H29.3256V21.0531ZM29.6528 20.1317V19.4427H30.0337C30.2815 19.4427 30.4374 19.5611 30.4374 19.7854C30.4352 19.981 30.2749 20.1376 30.0793 20.1354C30.0639 20.1354 30.0492 20.1339 30.0337 20.1317H29.6528Z" fill="#E2E2E2"/>
<path d="M31.2375 21.0532H32.6353V20.7524H31.5654V20.2384H32.5022V19.9377H31.5654V19.4384H32.6199V19.1377H31.2375V21.0532Z" fill="#E2E2E2"/>
<path d="M34.0368 21.084C34.3294 21.095 34.6103 20.9692 34.7986 20.745L34.589 20.5281C34.4537 20.6832 34.2581 20.7737 34.0522 20.7759C33.6765 20.7479 33.3948 20.4207 33.4235 20.0449C33.4485 19.7089 33.7162 19.4412 34.0522 19.4162C34.2515 19.4229 34.4405 19.5082 34.578 19.6523L34.7876 19.4045C34.4059 19.0125 33.7794 19.0045 33.3875 19.3854C32.9956 19.767 32.9875 20.3935 33.3684 20.7854C33.5419 20.9641 33.7772 21.0707 34.0258 21.0832" fill="#E2E2E2"/>
<path d="M35.7465 21.0532H36.0781V19.4502H36.6722V19.1377H35.1567V19.4502H35.7465V21.0532Z" fill="#E2E2E2"/>
<path d="M38.1121 21.0532H38.4357V19.6862L39.0225 20.5811H39.0335L39.6203 19.6789V21.0532H39.9475V19.1377H39.6012L39.0335 20.0443L38.4621 19.1377H38.1121V21.0532Z" fill="#E2E2E2"/>
<path d="M41.471 21.0841C42.018 21.0922 42.4681 20.6561 42.4761 20.1091C42.4842 19.562 42.0482 19.112 41.5011 19.1039C40.954 19.0958 40.504 19.5318 40.4959 20.0789C40.4959 20.0841 40.4959 20.0892 40.4959 20.0944C40.4834 20.6282 40.9062 21.0716 41.4401 21.0841C41.4504 21.0841 41.4607 21.0841 41.471 21.0841ZM41.471 20.7753C41.1114 20.7672 40.8261 20.4694 40.8342 20.1098C40.8342 20.1047 40.8342 20.0988 40.8342 20.0936C40.8195 19.7385 41.0952 19.4384 41.4504 19.4237C41.457 19.4237 41.4636 19.4237 41.4702 19.4237C41.8298 19.434 42.1129 19.7333 42.1026 20.0929C42.1026 20.0973 42.1026 20.101 42.1026 20.1054C42.1276 20.4554 41.8644 20.7606 41.5136 20.7856C41.5004 20.7863 41.4871 20.787 41.4739 20.787" fill="#E2E2E2"/>
<path d="M42.9946 21.0532H43.3218V20.387H43.7255L44.1784 21.0532H44.5593L44.0527 20.326C44.3226 20.2671 44.5101 20.023 44.4983 19.7472C44.4983 19.3664 44.2431 19.1377 43.8049 19.1377H42.9747L42.9938 21.0532H42.9946ZM43.3218 20.0855V19.4421H43.7975C44.0409 19.4421 44.1784 19.5561 44.1784 19.762C44.1784 19.9678 44.0299 20.0855 43.7975 20.0855H43.3218Z" fill="#E2E2E2"/>
<path d="M45.0704 21.0532H46.4676V20.7524H45.3977V20.2384H46.3345V19.9377H45.3977V19.4384H46.4528V19.1377H45.0704V21.0532Z" fill="#E2E2E2"/>
<path d="M47.3022 20.6767H46.9477V21.0502H47.3022V20.6767Z" fill="#E2E2E2"/>
<path d="M49.7015 21.084C49.989 21.0825 50.2662 20.9774 50.4824 20.7869V19.9832H49.6868V20.2766H50.1625V20.6347C50.0316 20.7296 49.8743 20.7803 49.7132 20.7796C49.364 20.7832 49.0787 20.5024 49.075 20.1538C49.075 20.134 49.075 20.1141 49.0772 20.0942C49.0617 19.7428 49.3316 19.4442 49.6831 19.4236C49.8787 19.417 50.0677 19.4898 50.2089 19.6258L50.4147 19.3744C50.2206 19.1957 49.9625 19.1023 49.6985 19.1155C49.1662 19.1236 48.7419 19.5619 48.75 20.0942C48.722 20.6134 49.1206 21.0561 49.6397 21.0833C49.6655 21.0847 49.6919 21.0847 49.7177 21.084" fill="#E2E2E2"/>
<path d="M51.0567 21.0532H52.4545V20.7524H51.3846V20.2384H52.3214V19.9377H51.3846V19.4384H52.4398V19.1377H51.0567V21.0532Z" fill="#E2E2E2"/>
<path d="M53.4488 21.0532H53.7804V19.4502H54.3746V19.1377H52.8583V19.4502H53.4488V21.0532Z" fill="#E2E2E2"/>
<path d="M55.8144 21.0532H56.1379V19.6862L56.724 20.5811H56.7357L57.3225 19.6789V21.0532H57.6534V19.1377H57.3034L56.7357 20.0443L56.1644 19.1377H55.8144V21.0532Z" fill="#E2E2E2"/>
<path d="M59.1733 21.0841C59.7204 21.0922 60.1704 20.6561 60.1785 20.1091C60.1866 19.562 59.7506 19.112 59.2035 19.1039C58.6564 19.0958 58.2064 19.5318 58.1983 20.0789C58.1983 20.0841 58.1983 20.0892 58.1983 20.0944C58.1858 20.6282 58.6086 21.0716 59.1425 21.0841C59.1528 21.0841 59.163 21.0841 59.1733 21.0841ZM59.1733 20.7753C58.7961 20.8113 58.4615 20.5348 58.4262 20.1576C58.3902 19.7804 58.6667 19.4458 59.0439 19.4105C59.4211 19.3745 59.7557 19.651 59.791 20.0282C59.7932 20.0502 59.794 20.0716 59.794 20.0936C59.819 20.4436 59.5557 20.7488 59.205 20.7738C59.1917 20.7745 59.1785 20.7753 59.1653 20.7753" fill="#E2E2E2"/>
<path d="M60.6961 21.0532H61.0234V20.387H61.4271L61.8918 21.0532H62.2727L61.766 20.326C62.0359 20.2671 62.2234 20.023 62.2116 19.7472C62.2116 19.3664 61.9565 19.1377 61.5182 19.1377H60.688L60.6954 21.0532H60.6961ZM61.0234 20.0855V19.4421H61.4991C61.7425 19.4421 61.88 19.5561 61.88 19.762C61.88 19.9678 61.7315 20.0855 61.4991 20.0855H61.0234Z" fill="#E2E2E2"/>
<path d="M62.7719 21.0532H64.1697V20.7524H63.0998V20.2384H64.0366V19.9377H63.0998V19.4384H64.158V19.1377H62.7719V21.0532Z" fill="#E2E2E2"/>
<path d="M65 20.6767H64.6456V21.0502H65V20.6767Z" fill="#E2E2E2"/>
</svg>
