<svg width="98" height="42" viewBox="0 0 98 42" fill="none" xmlns="http://www.w3.org/2000/svg">
<path d="M31.5396 19.1731C31.5396 17.0252 33.1302 15.2467 35.297 15.2467C36.6371 15.2467 37.4137 15.779 38.1839 16.4929L37.8207 16.8749C37.1632 16.2361 36.4117 15.7602 35.2845 15.7602C33.4809 15.7602 32.1157 17.2444 32.1157 19.1794C32.1157 21.1019 33.4997 22.5986 35.297 22.5986C36.3804 22.5986 37.1193 22.1728 37.8833 21.415L38.2591 21.7845C37.4638 22.5798 36.6058 23.1059 35.2719 23.1059C33.124 23.0996 31.5396 21.3775 31.5396 19.1731Z" fill="#E2E2E2"/>
<path d="M40.3195 19.1732C40.3195 17.1003 41.8349 15.2467 44.1082 15.2467C46.3814 15.2467 47.8781 17.0816 47.8781 19.1732C47.8781 21.246 46.3626 23.0996 44.0894 23.0996C41.8162 23.0996 40.3195 21.2648 40.3195 19.1732ZM47.2957 19.1732C47.2957 17.2945 45.943 15.7539 44.0831 15.7539C42.2232 15.7539 40.8956 17.2757 40.8956 19.1732C40.8956 21.0519 42.2482 22.5924 44.1082 22.5924C45.9681 22.5924 47.2957 21.0706 47.2957 19.1732Z" fill="#E2E2E2"/>
<path d="M50.8526 15.372H51.3786L56.5638 21.9788V15.372H57.1024V22.9682H56.6828L51.3912 16.2175V22.9682H50.8526V15.372Z" fill="#E2E2E2"/>
<path d="M62.488 15.8918H59.8704V15.372H65.6693V15.8918H63.0453V22.9682H62.488V15.8918Z" fill="#E2E2E2"/>
<path d="M67.5104 19.1732C67.5104 17.1003 69.0259 15.2467 71.2991 15.2467C73.5723 15.2467 75.069 17.0816 75.069 19.1732C75.069 21.246 73.5535 23.0996 71.2803 23.0996C69.0071 23.0996 67.5104 21.2648 67.5104 19.1732ZM74.4929 19.1732C74.4929 17.2945 73.1402 15.7539 71.2803 15.7539C69.4204 15.7539 68.0928 17.2757 68.0928 19.1732C68.0928 21.0519 69.4454 22.5924 71.3053 22.5924C73.159 22.5924 74.4929 21.0706 74.4929 19.1732Z" fill="#E2E2E2"/>
<path d="M77.9246 19.812V15.372H78.482V19.7557C78.482 21.5467 79.4401 22.58 81.0245 22.58C82.5462 22.58 83.5231 21.6469 83.5231 19.812V15.372H84.0805V19.7431C84.0805 21.9224 82.8217 23.0872 80.9994 23.0872C79.2021 23.0872 77.9246 21.9412 77.9246 19.812Z" fill="#E2E2E2"/>
<path d="M87.2742 15.372H90.4304C91.3509 15.372 92.0961 15.6664 92.547 16.1235C92.904 16.4805 93.1169 16.994 93.1169 17.5576C93.1169 18.8288 92.1838 19.5553 90.9188 19.7306L93.3987 22.9745H92.6911L90.2989 19.8245H87.8378V22.9745H87.2804V15.372H87.2742ZM90.3678 19.311C91.6265 19.311 92.5596 18.6723 92.5596 17.5513C92.5596 16.5306 91.7642 15.8918 90.3991 15.8918H87.8315V19.311H90.3678Z" fill="#E2E2E2"/>
<path d="M31.3768 29.1679C31.3768 28.2724 32.0406 27.7276 32.6982 27.7276C33.243 27.7276 33.5937 28.0407 33.8191 28.3851V26.6066H34.0821V30.5393H33.8191V29.9256C33.5874 30.2888 33.2367 30.6019 32.6982 30.6019C32.0406 30.6019 31.3768 30.0697 31.3768 29.1679ZM33.8317 29.1616C33.8317 28.454 33.2868 27.9843 32.7232 27.9843C32.1346 27.9843 31.6586 28.4227 31.6586 29.1679C31.6586 29.8881 32.1534 30.3515 32.7232 30.3515C33.2868 30.3515 33.8317 29.8693 33.8317 29.1616Z" fill="#E2E2E2"/>
<path d="M35.9482 29.1616C35.9482 28.3663 36.4993 27.7276 37.2383 27.7276C38.0023 27.7276 38.4845 28.3538 38.4845 29.1679C38.4845 29.218 38.4845 29.2305 38.4782 29.2744H36.2238C36.2739 29.9569 36.7561 30.3577 37.2884 30.3577C37.708 30.3577 37.996 30.1699 38.2215 29.9256L38.4031 30.0885C38.1275 30.389 37.8019 30.6082 37.2759 30.6082C36.5619 30.602 35.9482 30.0258 35.9482 29.1616ZM38.2027 29.0364C38.1651 28.479 37.852 27.9718 37.2258 27.9718C36.6872 27.9718 36.2739 28.4289 36.2238 29.0364H38.2027Z" fill="#E2E2E2"/>
<path d="M40.3131 27.7964H40.5761V28.31C40.7577 27.9843 41.0583 27.7338 41.5593 27.7338C42.2482 27.7338 42.649 28.2098 42.649 28.8673V30.5456H42.3797V28.9111C42.3797 28.3475 42.0666 27.9718 41.5155 27.9718C40.9832 27.9718 40.5699 28.3788 40.5699 28.955V30.5456H40.3131V27.7964Z" fill="#E2E2E2"/>
<path d="M44.7844 29.8316V28.0343H44.3899V27.7901H44.7844V26.9134H45.0474V27.7901H45.9993V28.0343H45.0474V29.8065C45.0474 30.2011 45.2791 30.3388 45.5923 30.3388C45.7238 30.3388 45.8365 30.3138 45.993 30.2449V30.4954C45.8553 30.558 45.7238 30.5893 45.5484 30.5893C45.1288 30.5893 44.7844 30.3576 44.7844 29.8316Z" fill="#E2E2E2"/>
<path d="M47.6149 29.7314C47.6149 29.1615 48.0971 28.8359 48.8048 28.8359C49.1805 28.8359 49.4435 28.886 49.7065 28.9548V28.8359C49.7065 28.2785 49.3684 27.9967 48.811 27.9967C48.4791 27.9967 48.2098 28.0906 47.9594 28.2159L47.8654 27.9842C48.166 27.8464 48.4541 27.7462 48.8298 27.7462C49.1993 27.7462 49.4936 27.8464 49.6878 28.0468C49.8694 28.2284 49.9633 28.4852 49.9633 28.8233V30.5329H49.7065V30.0758C49.5187 30.3388 49.1868 30.5956 48.667 30.5956C48.1598 30.6018 47.6149 30.3138 47.6149 29.7314ZM49.7065 29.5122V29.1991C49.4748 29.1427 49.1742 29.0738 48.786 29.0738C48.2098 29.0738 47.8905 29.3306 47.8905 29.7251C47.8905 30.1259 48.2662 30.3576 48.6795 30.3576C49.2369 30.3576 49.7065 30.0132 49.7065 29.5122Z" fill="#E2E2E2"/>
<path d="M51.9986 26.6066H52.2616V30.5393H51.9986V26.6066Z" fill="#E2E2E2"/>
<path d="M57.0523 26.6066H57.3153V30.5393H57.0523V26.6066Z" fill="#E2E2E2"/>
<path d="M59.1815 29.7314C59.1815 29.1615 59.6637 28.8359 60.3713 28.8359C60.747 28.8359 61.01 28.886 61.2731 28.9548V28.8359C61.2731 28.2785 60.9349 27.9967 60.3776 27.9967C60.0457 27.9967 59.7764 28.0906 59.5259 28.2159L59.4319 27.9842C59.7325 27.8464 60.0206 27.7462 60.3963 27.7462C60.7658 27.7462 61.0601 27.8464 61.2543 28.0468C61.4359 28.2284 61.5298 28.4852 61.5298 28.8233V30.5329H61.2731V30.0758C61.0852 30.3388 60.7533 30.5956 60.2335 30.5956C59.7263 30.6018 59.1815 30.3138 59.1815 29.7314ZM61.2793 29.5122V29.1991C61.0476 29.1427 60.747 29.0738 60.3588 29.0738C59.7826 29.0738 59.4633 29.3306 59.4633 29.7251C59.4633 30.1259 59.839 30.3576 60.2523 30.3576C60.8034 30.3576 61.2793 30.0132 61.2793 29.5122Z" fill="#E2E2E2"/>
<path d="M63.7905 29.9444V30.5393H63.5275V26.6066H63.7905V28.4039C64.0223 28.0407 64.3729 27.7276 64.9115 27.7276C65.569 27.7276 66.2328 28.2598 66.2328 29.1679C66.2328 30.0634 65.569 30.6082 64.9115 30.6082C64.3667 30.602 64.016 30.2951 63.7905 29.9444ZM65.951 29.1679C65.951 28.4477 65.4563 27.9843 64.8865 27.9843C64.3228 27.9843 63.778 28.4665 63.778 29.1741C63.778 29.8818 64.3228 30.3515 64.8865 30.3515C65.4751 30.3515 65.951 29.9131 65.951 29.1679Z" fill="#E2E2E2"/>
<path d="M67.9236 29.1679C67.9236 28.3976 68.5185 27.7276 69.3263 27.7276C70.1342 27.7276 70.7166 28.3851 70.7166 29.1679C70.7166 29.9382 70.1279 30.6082 69.3138 30.6082C68.5122 30.602 67.9236 29.9444 67.9236 29.1679ZM70.4348 29.1679C70.4348 28.5041 69.9275 27.9781 69.3138 27.9781C68.7001 27.9781 68.2054 28.5104 68.2054 29.1679C68.2054 29.8317 68.6938 30.3577 69.3263 30.3577C69.9275 30.3577 70.4348 29.8254 70.4348 29.1679Z" fill="#E2E2E2"/>
<path d="M72.5891 27.7964H72.8521V28.5792C73.065 28.0908 73.5159 27.7338 74.0545 27.7526V28.0407H74.0294C73.4032 28.0407 72.8521 28.5229 72.8521 29.4121V30.5393H72.5891V27.7964Z" fill="#E2E2E2"/>
<path d="M75.4259 29.7314C75.4259 29.1615 75.9081 28.8359 76.6157 28.8359C76.9915 28.8359 77.2545 28.886 77.5175 28.9548V28.8359C77.5175 28.2785 77.1794 27.9967 76.622 27.9967C76.2901 27.9967 76.0208 28.0906 75.7703 28.2159L75.6764 27.9842C75.977 27.8464 76.2713 27.7462 76.6408 27.7462C77.0103 27.7462 77.3046 27.8464 77.4987 28.0468C77.6803 28.2284 77.7743 28.4852 77.7743 28.8233V30.5329H77.5175V30.0758C77.3296 30.3388 76.9977 30.5956 76.478 30.5956C75.9707 30.6018 75.4259 30.3138 75.4259 29.7314ZM77.5238 29.5122V29.1991C77.2921 29.1427 76.9915 29.0738 76.6032 29.0738C76.0271 29.0738 75.7077 29.3306 75.7077 29.7251C75.7077 30.1259 76.0835 30.3576 76.4968 30.3576C77.0478 30.3576 77.5238 30.0132 77.5238 29.5122Z" fill="#E2E2E2"/>
<path d="M79.916 29.8316V28.0343H79.5215V27.7901H79.916V26.9134H80.179V27.7901H81.1309V28.0343H80.179V29.8065C80.179 30.2011 80.4107 30.3388 80.7239 30.3388C80.8554 30.3388 80.9681 30.3138 81.1246 30.2449V30.4954C80.9869 30.558 80.8554 30.5893 80.68 30.5893C80.2604 30.5893 79.916 30.3576 79.916 29.8316Z" fill="#E2E2E2"/>
<path d="M82.7026 29.1679C82.7026 28.3976 83.2976 27.7276 84.1054 27.7276C84.9132 27.7276 85.4956 28.3851 85.4956 29.1679C85.4956 29.9382 84.907 30.6082 84.0929 30.6082C83.2913 30.602 82.7026 29.9444 82.7026 29.1679ZM85.2138 29.1679C85.2138 28.5041 84.7066 27.9781 84.0929 27.9781C83.4792 27.9781 82.9844 28.5104 82.9844 29.1679C82.9844 29.8317 83.4729 30.3577 84.1054 30.3577C84.7066 30.3577 85.2138 29.8254 85.2138 29.1679Z" fill="#E2E2E2"/>
<path d="M87.3681 27.7964H87.6311V28.5792C87.844 28.0908 88.2949 27.7338 88.8335 27.7526V28.0407H88.8084C88.1822 28.0407 87.6311 28.5229 87.6311 29.4121V30.5393H87.3681V27.7964Z" fill="#E2E2E2"/>
<path d="M90.3553 31.2971L90.4429 31.0654C90.587 31.1343 90.7059 31.1656 90.9063 31.1656C91.1881 31.1656 91.376 30.9965 91.5764 30.5206L90.2676 27.7902H90.5744L91.7016 30.245L92.6848 27.7902H92.9729L91.7956 30.6333C91.5576 31.2094 91.2758 31.4161 90.8875 31.4161C90.6872 31.4161 90.5369 31.3785 90.3553 31.2971Z" fill="#E2E2E2"/>
<path d="M24.3067 22.8806L22.7098 25.4544L23.5615 18.6598L24.3067 22.8806Z" fill="#E2E2E2"/>
<path d="M21.8707 5.75311L21.2131 10.8694L22.8225 14.3199L23.3361 10.3997L21.8707 5.75311Z" fill="#B6B6B6"/>
<path d="M20.6245 4.21883L21.4135 4.45053L21.2758 3.43604L20.5994 2.25246L19.4033 1L15.6522 1.62623L11.5316 2.86617L8.8576 4.74486C10.1163 5.89713 11.9073 7.50654 12.4146 7.91359L19.1591 4.30024L20.6245 4.21883Z" fill="#B6B6B6"/>
<path d="M9.55268 10.7817L10.2979 10.8506L12.0263 8.29561C11.3312 7.732 9.44622 6.02239 8.61334 5.26465L8.00589 9.08466L7.38593 11.0009L7.7554 12.7732L8.40668 11.6898L9.55268 10.7817Z" fill="#B6B6B6"/>
<path d="M9.71556 11.3453L8.78248 12.0843L7.91828 13.5559L7.92454 13.581L7.21064 14.4577L6.89752 17.1568L9.99737 11.3704L9.71556 11.3453Z" fill="#E2E2E2"/>
<path d="M6.90371 13.9756L7.33581 13.437L7.19178 12.7481L6.6908 13.8065L6.90371 13.9756Z" fill="#E2E2E2"/>
<path d="M20.5618 4.7699L19.3094 4.83878L12.5837 8.44587L10.6549 11.2952L6.72214 18.6347L6.59063 19.812L6.49669 19.5364L5 25.5858L5.41957 27.6211L6.53427 28.216L9.50886 19.9372L16.7043 11.815L20.6871 10.7003L21.4135 5.02039L20.5618 4.7699Z" fill="#B6B6B6"/>
<path d="M17.0048 12.2972L9.98477 20.2253L7.00391 28.5166L7.90568 29.2869L9.07673 32.8501L10.3417 34.1277L18.6581 11.8338L17.0048 12.2972Z" fill="#B6B6B6"/>
<path d="M11.7508 35.3299L13.4854 35.5491L16.0593 36L18.1509 35.0106L21.6139 26.8069L22.2589 25.8676L23.2672 17.8017L22.7161 15.3532L20.7873 11.2388L19.3031 11.6521L10.7739 34.5221L11.7508 35.3299Z" fill="#B6B6B6"/>
<path d="M22.785 26.0618L22.0836 27.0888L19.0401 34.3092L19.9168 33.5953L21.5701 31.8168L22.1462 31.1217C22.8351 29.8442 23.9247 27.7777 24.0312 27.5084C24.0625 27.2829 24.2128 26.4939 24.4758 25.1537L24.2503 23.6821L22.785 26.0555V26.0618Z" fill="#E2E2E2"/>
</svg>
