<svg width="78" height="42" viewBox="0 0 78 42" fill="none" xmlns="http://www.w3.org/2000/svg">
<g clip-path="url(#clip0_41_668)">
<path d="M9.1916 24.4549C11.3018 24.4549 12.7803 23.3254 12.7803 21.4285C12.7803 19.7198 11.675 18.9523 9.55047 18.431C7.62692 17.9676 7.16758 17.6201 7.16758 16.8382C7.16758 16.1431 7.77048 15.6073 8.80402 15.6073C9.72272 15.6073 10.6271 15.9693 11.5314 16.6499L12.4788 15.3032C11.4597 14.4779 10.2969 14.029 8.83273 14.029C6.83741 14.029 5.40193 15.2308 5.40193 16.9685C5.40193 18.8654 6.60774 19.5026 8.74661 20.0094C10.6127 20.4583 11.0147 20.8492 11.0147 21.5733C11.0147 22.3697 10.3256 22.8765 9.23466 22.8765C7.98579 22.8765 7.02402 22.3986 6.06225 21.5588L5 22.833C6.20581 23.9191 7.65563 24.4549 9.1916 24.4549Z" fill="#E2E2E2"/>
<path d="M14.4978 24.31H22.0197V22.7172H16.2635V19.9949H21.302V18.402H16.2635V15.7666H21.9479V14.1738H14.4978V24.31Z" fill="#E2E2E2"/>
<path d="M23.9565 24.31H24.6743V15.3032L31.7512 24.31H32.311V14.1738H31.5933V22.9923L24.6599 14.1738H23.9565V24.31Z" fill="#E2E2E2"/>
<path d="M34.9385 24.31H42.1589V23.615H35.6849V19.546H41.4412V18.8509H35.6849V14.8688H42.0872V14.1738H34.9385V24.31Z" fill="#E2E2E2"/>
<path d="M44.1962 24.31H44.9426V20.1107H48.2299L51.431 24.31H52.3784L49.0625 19.9804C50.7563 19.7487 52.0052 18.7785 52.0052 17.0843C52.0052 16.3314 51.7181 15.6508 51.2444 15.1729C50.6415 14.5647 49.651 14.1738 48.4165 14.1738H44.1962V24.31ZM44.9426 19.4302V14.8688H48.3735C50.1965 14.8688 51.2588 15.7232 51.2588 17.0843C51.2588 18.5758 50.0099 19.4302 48.3304 19.4302H44.9426Z" fill="#E2E2E2"/>
<path d="M58.8189 24.4838C60.4552 24.4838 61.862 23.7743 62.7664 22.9634V19.0537H58.6896V19.7487H62.0487V22.6593C61.3166 23.2819 60.1252 23.8177 58.8476 23.8177C56.1632 23.8177 54.5411 21.8629 54.5411 19.2419C54.5411 16.7658 56.2494 14.6806 58.6896 14.6806C60.2112 14.6806 61.1299 15.2019 61.9195 15.8969L62.4075 15.3322C61.4027 14.4923 60.3692 14 58.7327 14C55.7325 14 53.7659 16.5051 53.7659 19.2419C53.7659 22.1235 55.6464 24.4838 58.8189 24.4838Z" fill="#E2E2E2"/>
<path d="M67.9471 24.31H68.6935V20.2845L73 14.1738H72.11L68.3347 19.6184L64.5737 14.1738H63.6407L67.9471 20.299V24.31Z" fill="#E2E2E2"/>
<path d="M6.25581 30.9956C6.6725 30.9956 6.94006 30.7611 7.12428 30.4867V30.9469H7.46201V27.7169H7.12428V29.0975C6.94883 28.8408 6.67689 28.6107 6.25581 28.6107C5.71193 28.6107 5.17242 29.0531 5.17242 29.8009C5.17242 30.562 5.71193 30.9956 6.25581 30.9956ZM6.31721 30.6903C5.88737 30.6903 5.51893 30.3451 5.51893 29.8054C5.51893 29.2434 5.8786 28.916 6.31721 28.916C6.73829 28.916 7.13743 29.27 7.13743 29.7965C7.13743 30.3319 6.73829 30.6903 6.31721 30.6903Z" fill="#E2E2E2"/>
<path d="M11.7082 29.9425H13.5065C13.5109 29.8894 13.5109 29.854 13.5109 29.8231C13.5109 29.1505 13.1249 28.6107 12.4538 28.6107C11.8266 28.6107 11.366 29.1416 11.366 29.8054C11.366 30.5177 11.8748 31 12.4977 31C12.9275 31 13.2038 30.8274 13.4319 30.5708L13.2214 30.3806C13.0372 30.5752 12.8179 30.7036 12.5064 30.7036C12.1073 30.7036 11.7564 30.4248 11.7082 29.9425ZM11.7082 29.6682C11.7564 29.2257 12.0547 28.8983 12.445 28.8983C12.8924 28.8983 13.1293 29.2523 13.1688 29.6682H11.7082Z" fill="#E2E2E2"/>
<path d="M17.3917 30.9469H17.7295V29.6372C17.7295 29.2081 18.0189 28.9204 18.4094 28.9204C18.8085 28.9204 19.0366 29.1859 19.0366 29.6106V30.9469H19.3743V29.5267C19.3743 28.9823 19.0542 28.6107 18.5059 28.6107C18.1154 28.6107 17.8786 28.8099 17.7295 29.0576V28.6593H17.3917V30.9469Z" fill="#E2E2E2"/>
<path d="M24.143 30.9867C24.3053 30.9867 24.4325 30.9514 24.5509 30.8893V30.5973C24.4325 30.6548 24.336 30.677 24.2219 30.677C23.9938 30.677 23.8404 30.5752 23.8404 30.2965V28.9603H24.5597V28.6593H23.8404V27.9691H23.5026V28.6593H23.1868V28.9603H23.5026V30.3407C23.5026 30.8053 23.7789 30.9867 24.143 30.9867Z" fill="#E2E2E2"/>
<path d="M29.1227 30.9956C29.5218 30.9956 29.7806 30.8097 29.9384 30.6062V30.9469H30.2718V29.5487C30.2718 29.2567 30.1929 29.0355 30.0349 28.8762C29.8727 28.7125 29.6226 28.624 29.3025 28.624C28.9691 28.624 28.7279 28.7037 28.4779 28.8186L28.5788 29.0974C28.7893 29.0001 28.9998 28.9337 29.2673 28.9337C29.6929 28.9337 29.9384 29.1461 29.9384 29.5532V29.6239C29.7367 29.5664 29.5349 29.5267 29.2455 29.5267C28.6709 29.5267 28.2761 29.7832 28.2761 30.2744C28.2761 30.7522 28.6972 30.9956 29.1227 30.9956ZM29.1884 30.7213C28.8814 30.7213 28.6183 30.5532 28.6183 30.2655C28.6183 29.9824 28.8594 29.7965 29.2805 29.7965C29.5569 29.7965 29.7762 29.8452 29.9428 29.8939V30.1062C29.9428 30.4691 29.6051 30.7213 29.1884 30.7213Z" fill="#E2E2E2"/>
<path d="M34.3076 30.947H34.6453V27.7169H34.3076V30.947Z" fill="#E2E2E2"/>
<path d="M44.0733 30.9912C44.5251 30.9912 44.8804 30.7389 44.8804 30.3054C44.8804 29.885 44.5032 29.7479 44.1524 29.6417C43.8496 29.5487 43.5689 29.4647 43.5689 29.2479C43.5689 29.0488 43.74 28.9072 44.0076 28.9072C44.2269 28.9072 44.4682 28.9912 44.6787 29.1285L44.8322 28.8718C44.5997 28.717 44.2926 28.6196 44.0164 28.6196C43.5689 28.6196 43.2444 28.8807 43.2444 29.2745C43.2444 29.7036 43.6391 29.8275 43.9944 29.9292C44.2926 30.0133 44.5603 30.1018 44.5603 30.3319C44.5603 30.562 44.3629 30.7036 44.0909 30.7036C43.8234 30.7036 43.5514 30.5974 43.3058 30.4115L43.1347 30.6549C43.3891 30.8629 43.7487 30.9912 44.0733 30.9912Z" fill="#E2E2E2"/>
<path d="M49.5134 30.9867C49.6758 30.9867 49.803 30.9514 49.9214 30.8893V30.5973C49.803 30.6548 49.7065 30.677 49.5925 30.677C49.3644 30.677 49.2108 30.5752 49.2108 30.2965V28.9603H49.9301V28.6593H49.2108V27.9691H48.8731V28.6593H48.5573V28.9603H48.8731V30.3407C48.8731 30.8053 49.1494 30.9867 49.5134 30.9867Z" fill="#E2E2E2"/>
<path d="M54.651 30.9956C55.0413 30.9956 55.2738 30.7965 55.4274 30.5487V30.9469H55.7608V28.6594H55.4274V29.9691C55.4274 30.3983 55.1334 30.6859 54.7475 30.6859C54.3484 30.6859 54.1203 30.4204 54.1203 29.9957V28.6594H53.7825V30.0797C53.7825 30.6239 54.1027 30.9956 54.651 30.9956Z" fill="#E2E2E2"/>
<path d="M60.7619 30.9956C61.1786 30.9956 61.4461 30.7611 61.6303 30.4867V30.9469H61.9681V27.7169H61.6303V29.0975C61.4549 28.8408 61.183 28.6107 60.7619 28.6107C60.218 28.6107 59.6785 29.0531 59.6785 29.8009C59.6785 30.562 60.218 30.9956 60.7619 30.9956ZM60.8233 30.6903C60.3934 30.6903 60.0251 30.3451 60.0251 29.8054C60.0251 29.2434 60.3847 28.916 60.8233 28.916C61.2444 28.916 61.6435 29.27 61.6435 29.7965C61.6435 30.3319 61.2444 30.6903 60.8233 30.6903Z" fill="#E2E2E2"/>
<path d="M66.0212 28.1595H66.4072V27.7833H66.0212V28.1595ZM66.0432 30.9469H66.3809V28.6594H66.0432V30.9469Z" fill="#E2E2E2"/>
<path d="M71.4895 31C72.1737 31 72.6781 30.4514 72.6781 29.8054C72.6781 29.1505 72.1781 28.6107 71.4982 28.6107C70.814 28.6107 70.314 29.1594 70.314 29.8054C70.314 30.4602 70.8096 31 71.4895 31ZM71.4982 30.6947C71.0201 30.6947 70.6604 30.2965 70.6604 29.8054C70.6604 29.3142 70.9982 28.9116 71.4895 28.9116C71.9675 28.9116 72.3316 29.3142 72.3316 29.8054C72.3316 30.2965 71.9895 30.6947 71.4982 30.6947Z" fill="#E2E2E2"/>
</g>
<defs>
<clipPath id="clip0_41_668">
<rect width="68" height="17" fill="white" transform="translate(5 14)"/>
</clipPath>
</defs>
</svg>
