<svg width="185" height="184" viewBox="0 0 185 184" fill="none" xmlns="http://www.w3.org/2000/svg">
<g clip-path="url(#clip0_60_1207)">
<path d="M49.4489 77.9804C50.0655 76.9907 50.3624 75.7879 50.2025 74.509C49.9132 72.1642 48.0329 70.2534 45.6881 69.926C44.1427 69.7129 42.6963 70.1696 41.6 71.0451C37.7555 68.9059 33.2716 67.7792 28.5059 68.038C16.2188 68.6851 6.246 78.6123 5.538 90.8918C5.07362 98.9538 8.5603 106.239 14.2395 110.982C14.9322 111.561 15.6555 112.109 16.4167 112.604L17.3912 110.099L23.4434 94.5764L24.4635 91.9576H10.3265L13.1508 85.7303H47.6751L44.7061 91.9576H31.1476L30.1275 94.5764L22.979 112.916L22.0274 115.359C22.8496 115.641 23.6946 115.877 24.5625 116.067C26.2982 116.456 28.0948 116.654 29.9448 116.638C42.6582 116.577 53.3086 106.544 54.0927 93.8532C54.4581 87.9075 52.6767 82.3806 49.4489 77.9804ZM45.2618 72.5144C46.6093 72.6743 47.6522 73.8771 47.6294 75.2398C47.6294 75.4073 47.6066 75.5671 47.5761 75.7194C47.3934 76.6482 46.7311 77.4018 45.8708 77.7216C45.2542 77.95 44.5386 77.9576 43.8001 77.6607C43.0617 77.3638 42.5059 76.7015 42.3232 75.9173C42.209 75.4453 42.2014 74.9886 42.308 74.5622C42.5212 73.6487 43.2063 72.9103 44.0818 72.621C44.4472 72.4992 44.8507 72.4535 45.2694 72.5068L45.2618 72.5144ZM20.6343 94.584L15.252 108.401C11.3999 104.907 8.80391 100.042 8.23295 94.584H20.6343ZM11.4684 83.1191L8.21011 90.3056C9.23023 79.2746 18.5331 70.6188 29.823 70.6188C33.5076 70.6188 36.979 71.5399 40.0166 73.1691C39.6664 74.0141 39.5293 74.9581 39.6664 75.9478C39.9785 78.224 41.7903 80.0739 44.059 80.4394C45.3379 80.6449 46.5484 80.3937 47.5533 79.8151C48.2841 80.8504 48.9312 81.9619 49.4793 83.1191H11.4684ZM30.3254 114.02C28.681 114.058 27.0747 113.913 25.5293 113.593L32.9366 94.5764H46.358L50.5299 85.8216C51.2836 88.2121 51.6337 90.7852 51.4967 93.4497C50.9257 104.717 41.6 113.761 30.3178 114.02H30.3254Z" fill="#DBDBDB"/>
</g>
<g clip-path="url(#clip1_60_1207)">
<path d="M69.4858 98.0858H67.7805V88.6078H65.6413V87.032H71.6402V88.6078H69.4858V98.0858Z" fill="#DBDBDB"/>
<path d="M80.494 95.6802L80.0448 98.0858H78.37L80.494 87.032H82.8311L85.0693 98.0858H83.3107L82.8463 95.6802H80.494ZM81.6511 89.1484L80.7528 94.1043H82.5571L81.6435 89.1484H81.6511Z" fill="#DBDBDB"/>
<path d="M94.5777 96.51H97.973V98.0858H92.8724V87.032H94.5777V96.51Z" fill="#DBDBDB"/>
<path d="M107.375 96.51H110.77V98.0858H105.67V87.032H107.375V96.51Z" fill="#DBDBDB"/>
<path d="M120.568 95.6802L120.119 98.0858H118.444L120.568 87.032H122.905L125.143 98.0858H123.385L122.92 95.6802H120.568ZM121.725 89.1484L120.827 94.1043H122.631L121.717 89.1484H121.725Z" fill="#DBDBDB"/>
<path d="M132.946 87.032H135.649C137.819 87.032 138.846 88.1435 138.846 90.4958V94.622C138.846 96.9744 137.819 98.0858 135.649 98.0858H132.946V87.032ZM135.497 96.51C136.707 96.51 137.134 95.8781 137.134 94.1576V90.9602C137.134 89.2169 136.7 88.6078 135.497 88.6078H134.652V96.51H135.497Z" fill="#DBDBDB"/>
<path d="M148.743 98.0858H147.038V87.032H148.743V98.0858Z" fill="#DBDBDB"/>
<path d="M162.911 87.032V94.523C162.911 95.9162 162.743 96.6242 162.279 97.256C161.799 97.9031 160.985 98.2533 159.995 98.2533C159.005 98.2533 158.175 97.9031 157.688 97.256C157.224 96.6242 157.056 95.9162 157.056 94.523V87.032H158.762V94.8047C158.762 96.1141 159.112 96.647 159.987 96.647C160.863 96.647 161.198 96.1141 161.198 94.8047V87.032H162.903H162.911Z" fill="#DBDBDB"/>
<path d="M179.255 98.0858H177.634V89.9477L175.715 98.0858H174.756L172.853 89.9477V98.0858H171.231V87.032H173.736L175.259 93.9749L176.796 87.032H179.263V98.0858H179.255Z" fill="#DBDBDB"/>
</g>
<defs>
<clipPath id="clip0_60_1207">
<rect width="48.6384" height="48.6384" fill="white" transform="translate(5.5 68)"/>
</clipPath>
<clipPath id="clip1_60_1207">
<rect width="113.614" height="11.2213" fill="white" transform="translate(65.6413 87.032)"/>
</clipPath>
</defs>
</svg>
