<svg width="29" height="29" viewBox="0 0 29 29" fill="none" xmlns="http://www.w3.org/2000/svg">
<path fill-rule="evenodd" clip-rule="evenodd" d="M26.9702 2.02977C27.1839 2.24345 27.1839 2.5899 26.9702 2.80358L13.6786 16.0952C13.4649 16.3089 13.1185 16.3089 12.9048 16.0952C12.6911 15.8816 12.6911 15.5351 12.9048 15.3214L26.1964 2.02977C26.4101 1.81609 26.7566 1.81609 26.9702 2.02977Z" fill="white"/>
<path fill-rule="evenodd" clip-rule="evenodd" d="M26.9703 2.02978C27.1189 2.17842 27.1692 2.39905 27.0998 2.59745L18.6415 26.7641C18.5674 26.9759 18.3715 27.1209 18.1473 27.1301C17.9232 27.1392 17.7161 27.0106 17.625 26.8056L12.8771 16.1229L2.19445 11.375C1.98944 11.2839 1.86082 11.0769 1.86996 10.8527C1.87911 10.6286 2.02417 10.4327 2.23592 10.3586L26.4026 1.90024C26.601 1.8308 26.8216 1.88115 26.9703 2.02978ZM3.9001 10.9355L13.5139 15.2084C13.6377 15.2634 13.7367 15.3623 13.7917 15.4861L18.0645 25.0999L25.6915 3.30856L3.9001 10.9355Z" fill="white"/>
</svg>
