<svg width="23" height="22" viewBox="0 0 23 22" fill="none" xmlns="http://www.w3.org/2000/svg">
<path d="M0.5 22L2.04641 16.3505C1.09217 14.6969 0.59075 12.8223 0.591666 10.9001C0.594416 4.89041 5.48482 0 11.4936 0C14.4095 0.000916665 17.1466 1.13666 19.2055 3.19733C21.2634 5.25799 22.3964 7.99698 22.3955 10.9101C22.3927 16.9207 17.5023 21.8111 11.4936 21.8111C9.6694 21.8102 7.87182 21.3528 6.27957 20.4838L0.5 22ZM6.54724 18.5102C8.08357 19.4223 9.55023 19.9686 11.4899 19.9695C16.4839 19.9695 20.552 15.905 20.5548 10.9083C20.5566 5.90149 16.5077 1.8425 11.4972 1.84066C6.49957 1.84066 2.43416 5.90515 2.43233 10.901C2.43141 12.9406 3.02908 14.4677 4.03283 16.0655L3.11708 19.4095L6.54724 18.5102ZM16.9853 13.5016C16.9175 13.3879 16.736 13.3201 16.4628 13.1835C16.1905 13.0469 14.8513 12.3878 14.6011 12.2971C14.3517 12.2063 14.1702 12.1605 13.9878 12.4336C13.8063 12.7059 13.2838 13.3201 13.1252 13.5016C12.9666 13.6831 12.8071 13.706 12.5349 13.5694C12.2626 13.4328 11.3845 13.1459 10.3441 12.2173C9.53465 11.495 8.9874 10.6031 8.82881 10.3299C8.67023 10.0576 8.81231 9.91006 8.94798 9.77439C9.07081 9.65248 9.22023 9.45631 9.35681 9.29681C9.49523 9.13915 9.54015 9.02548 9.63181 8.84306C9.72256 8.66156 9.67765 8.50206 9.6089 8.36548C9.54015 8.22982 8.99565 6.88873 8.76923 6.34332C8.5474 5.81257 8.32282 5.88407 8.15598 5.87582L7.63348 5.86665C7.45198 5.86665 7.15682 5.93449 6.90749 6.20765C6.65815 6.48082 5.95415 7.13898 5.95415 8.48006C5.95415 9.82115 6.9304 11.1164 7.06607 11.2979C7.20265 11.4794 8.98648 14.2312 11.7191 15.411C12.369 15.6915 12.8768 15.8592 13.2719 15.9848C13.9246 16.192 14.5186 16.1626 14.9879 16.093C15.5113 16.015 16.5994 15.4339 16.8267 14.7977C17.054 14.1606 17.054 13.6152 16.9853 13.5016Z" fill="white"/>
</svg>
