<svg width="169" height="80" viewBox="0 0 169 80" fill="none" xmlns="http://www.w3.org/2000/svg">
<path d="M162.003 40.3593C162.003 42.3462 161.626 44.0366 160.873 45.4304C160.125 46.8243 159.105 47.8889 157.812 48.6243C156.525 49.3539 155.078 49.7186 153.471 49.7186C151.852 49.7186 150.398 49.3509 149.111 48.6155C147.824 47.88 146.807 46.8154 146.06 45.4215C145.312 44.0277 144.939 42.3403 144.939 40.3593C144.939 38.3724 145.312 36.682 146.06 35.2882C146.807 33.8944 147.824 32.8327 149.111 32.1032C150.398 31.3677 151.852 31 153.471 31C155.078 31 156.525 31.3677 157.812 32.1032C159.105 32.8327 160.125 33.8944 160.873 35.2882C161.626 36.682 162.003 38.3724 162.003 40.3593ZM158.097 40.3593C158.097 39.0723 157.904 37.9869 157.519 37.1031C157.139 36.2194 156.602 35.5492 155.908 35.0925C155.214 34.6358 154.402 34.4074 153.471 34.4074C152.54 34.4074 151.727 34.6358 151.033 35.0925C150.339 35.5492 149.799 36.2194 149.414 37.1031C149.034 37.9869 148.844 39.0723 148.844 40.3593C148.844 41.6464 149.034 42.7318 149.414 43.6155C149.799 44.4993 150.339 45.1695 151.033 45.6262C151.727 46.0829 152.54 46.3112 153.471 46.3112C154.402 46.3112 155.214 46.0829 155.908 45.6262C156.602 45.1695 157.139 44.4993 157.519 43.6155C157.904 42.7318 158.097 41.6464 158.097 40.3593Z" fill="#111111"/>
<path d="M142.09 31.249V49.4694H138.237V31.249H142.09Z" fill="#111111"/>
<path d="M126.469 49.4694H120.01V31.249H126.523C128.355 31.249 129.933 31.6138 131.256 32.3433C132.578 33.0669 133.595 34.1078 134.307 35.4661C135.025 36.8243 135.384 38.4494 135.384 40.3414C135.384 42.2394 135.025 43.8705 134.307 45.2346C133.595 46.5988 132.572 47.6456 131.238 48.3752C129.909 49.1047 128.32 49.4694 126.469 49.4694ZM123.862 46.1688H126.309C127.448 46.1688 128.406 45.9671 129.183 45.5638C129.966 45.1546 130.553 44.5229 130.944 43.6688C131.342 42.8088 131.54 41.6997 131.54 40.3414C131.54 38.9951 131.342 37.8949 130.944 37.0408C130.553 36.1867 129.969 35.558 129.192 35.1547C128.415 34.7514 127.457 34.5497 126.318 34.5497H123.862V46.1688Z" fill="#111111"/>
<path d="M112.989 31.249H116.841V43.0816C116.841 44.4102 116.523 45.5727 115.889 46.5691C115.26 47.5656 114.379 48.3425 113.247 48.9001C112.114 49.4517 110.794 49.7275 109.287 49.7275C107.775 49.7275 106.452 49.4517 105.32 48.9001C104.187 48.3425 103.306 47.5656 102.677 46.5691C102.049 45.5727 101.734 44.4102 101.734 43.0816V31.249H105.586V42.7524C105.586 43.4464 105.738 44.0632 106.04 44.603C106.349 45.1427 106.782 45.5668 107.339 45.8752C107.897 46.1836 108.546 46.3378 109.287 46.3378C110.035 46.3378 110.684 46.1836 111.236 45.8752C111.793 45.5668 112.223 45.1427 112.526 44.603C112.834 44.0632 112.989 43.4464 112.989 42.7524V31.249Z" fill="#111111"/>
<path d="M84.3055 34.4251V31.249H99.2698V34.4251H93.6916V49.4694H89.8838V34.4251H84.3055Z" fill="#111111"/>
<path d="M78.4671 36.4893C78.396 35.7716 78.0905 35.2141 77.5508 34.8167C77.011 34.4193 76.2786 34.2206 75.3533 34.2206C74.7246 34.2206 74.1938 34.3096 73.7608 34.4875C73.3278 34.6595 72.9957 34.8997 72.7644 35.2081C72.539 35.5166 72.4263 35.8665 72.4263 36.2579C72.4144 36.5842 72.4826 36.8689 72.6309 37.112C72.7851 37.3552 72.9957 37.5658 73.2626 37.7437C73.5295 37.9157 73.8379 38.0669 74.1878 38.1974C74.5378 38.322 74.9114 38.4287 75.3088 38.5177L76.9458 38.9092C77.7406 39.0871 78.4701 39.3243 79.1344 39.6209C79.7987 39.9175 80.374 40.2822 80.8603 40.7152C81.3467 41.1482 81.7233 41.6582 81.9902 42.2454C82.2631 42.8326 82.4024 43.5058 82.4084 44.265C82.4024 45.38 82.1177 46.3468 81.5543 47.1653C80.9968 47.9779 80.1901 48.6095 79.1344 49.0603C78.0846 49.5051 76.8183 49.7275 75.3355 49.7275C73.8646 49.7275 72.5835 49.5022 71.4921 49.0514C70.4067 48.6006 69.5586 47.9334 68.9477 47.0496C68.3427 46.16 68.0254 45.0597 67.9957 43.749H71.7234C71.765 44.3599 71.9399 44.8699 72.2483 45.2792C72.5627 45.6825 72.9808 45.988 73.5028 46.1956C74.0306 46.3972 74.6267 46.498 75.291 46.498C75.9434 46.498 76.5099 46.4031 76.9903 46.2133C77.4766 46.0235 77.8533 45.7596 78.1202 45.4215C78.3871 45.0835 78.5205 44.695 78.5205 44.2561C78.5205 43.8468 78.3989 43.5028 78.1558 43.2241C77.9185 42.9453 77.5686 42.708 77.1059 42.5123C76.6492 42.3166 76.0888 42.1387 75.4245 41.9785L73.4405 41.4803C71.9043 41.1066 70.6914 40.5224 69.8018 39.7277C68.9121 38.9329 68.4702 37.8623 68.4761 36.5159C68.4702 35.4128 68.7638 34.449 69.3569 33.6245C69.956 32.8001 70.7774 32.1566 71.8213 31.6939C72.8652 31.2313 74.0514 31 75.38 31C76.7323 31 77.9126 31.2313 78.9209 31.6939C79.9351 32.1566 80.7239 32.8001 81.2874 33.6245C81.8508 34.449 82.1415 35.4039 82.1593 36.4893H78.4671Z" fill="#111111"/>
<path d="M51.0164 49.4694H44.5574V31.249H51.0698C52.9025 31.249 54.4802 31.6138 55.8028 32.3433C57.1255 33.0669 58.1427 34.1078 58.8544 35.4661C59.5721 36.8243 59.9309 38.4494 59.9309 40.3414C59.9309 42.2394 59.5721 43.8705 58.8544 45.2346C58.1427 46.5988 57.1195 47.6456 55.785 48.3752C54.4565 49.1047 52.8669 49.4694 51.0164 49.4694ZM48.4097 46.1688H50.8563C51.995 46.1688 52.9529 45.9671 53.7299 45.5638C54.5128 45.1546 55.1 44.5229 55.4914 43.6688C55.8888 42.8088 56.0875 41.6997 56.0875 40.3414C56.0875 38.9951 55.8888 37.8949 55.4914 37.0408C55.1 36.1867 54.5158 35.558 53.7388 35.1547C52.9618 34.7514 52.0039 34.5497 50.8652 34.5497H48.4097V46.1688Z" fill="#AF0009"/>
<path d="M28.9569 49.4694H24.8289L31.1188 31.249H36.0832L42.3642 49.4694H38.2362L33.6722 35.4127H33.5298L28.9569 49.4694ZM28.6989 42.3076H38.4497V45.3147H28.6989V42.3076Z" fill="#AF0009"/>
<path d="M23.3966 37.628H19.4999C19.4287 37.1239 19.2834 36.6761 19.0639 36.2846C18.8445 35.8872 18.5627 35.5492 18.2187 35.2704C17.8747 34.9916 17.4773 34.7781 17.0266 34.6299C16.5817 34.4816 16.0984 34.4074 15.5764 34.4074C14.6334 34.4074 13.8119 34.6417 13.112 35.1103C12.4122 35.5729 11.8695 36.249 11.4839 37.1387C11.0984 38.0225 10.9056 39.096 10.9056 40.3593C10.9056 41.6582 11.0984 42.7496 11.4839 43.6333C11.8754 44.517 12.4211 45.1843 13.1209 45.6351C13.8208 46.0858 14.6304 46.3112 15.5497 46.3112C16.0657 46.3112 16.5432 46.243 16.9821 46.1066C17.4269 45.9702 17.8213 45.7715 18.1654 45.5105C18.5094 45.2436 18.7941 44.9204 19.0194 44.5408C19.2507 44.1612 19.4109 43.7282 19.4999 43.2418L23.3966 43.2596C23.2958 44.0959 23.0437 44.9026 22.6404 45.6795C22.243 46.4506 21.7062 47.1416 21.0301 47.7525C20.3599 48.3574 19.5592 48.8379 18.628 49.1937C17.7027 49.5437 16.6559 49.7186 15.4874 49.7186C13.8623 49.7186 12.4092 49.3509 11.1281 48.6155C9.85287 47.88 8.84458 46.8154 8.10319 45.4215C7.36773 44.0277 7 42.3403 7 40.3593C7 38.3724 7.37366 36.682 8.12098 35.2882C8.86831 33.8944 9.88253 32.8327 11.1637 32.1032C12.4448 31.3677 13.886 31 15.4874 31C16.5432 31 17.5218 31.1483 18.4234 31.4448C19.3308 31.7414 20.1345 32.1744 20.8344 32.7438C21.5342 33.3072 22.1036 33.9982 22.5425 34.8167C22.9874 35.6352 23.2721 36.5723 23.3966 37.628Z" fill="#AF0009"/>
</svg>
