<svg width="169" height="80" viewBox="0 0 169 80" fill="none" xmlns="http://www.w3.org/2000/svg">
<path d="M53.0363 40.893C53.0363 37.0052 55.9153 33.7861 59.837 33.7861C62.2627 33.7861 63.6682 34.7496 65.0623 36.0417L64.4049 36.7331C63.2148 35.577 61.8546 34.7156 59.8144 34.7156C56.55 34.7156 54.079 37.4019 54.079 40.9043C54.079 44.384 56.584 47.093 59.837 47.093C61.7979 47.093 63.1354 46.3223 64.5183 44.9508L65.1983 45.6195C63.7588 47.059 62.206 48.0111 59.7917 48.0111C55.9039 47.9998 53.0363 44.8828 53.0363 40.893Z" fill="#111111"/>
<path d="M68.9275 40.893C68.9275 37.1412 71.6704 33.7861 75.7849 33.7861C79.8994 33.7861 82.6084 37.1072 82.6084 40.893C82.6084 44.6447 79.8654 47.9998 75.7509 47.9998C71.6364 47.9998 68.9275 44.6787 68.9275 40.893ZM81.5543 40.893C81.5543 37.4926 79.106 34.7042 75.7396 34.7042C72.3732 34.7042 69.9702 37.4586 69.9702 40.893C69.9702 44.2934 72.4185 47.0817 75.7849 47.0817C79.1513 47.0817 81.5543 44.3274 81.5543 40.893Z" fill="#111111"/>
<path d="M87.9923 34.0132H88.9444L98.3295 45.9712V34.0132H99.3043V47.7621H98.5449L88.9671 35.5434V47.7621H87.9923V34.0132Z" fill="#111111"/>
<path d="M109.052 34.954H104.314V34.0132H114.81V34.954H110.061V47.7621H109.052V34.954Z" fill="#111111"/>
<path d="M118.142 40.893C118.142 37.1412 120.885 33.7861 125 33.7861C129.114 33.7861 131.823 37.1072 131.823 40.893C131.823 44.6447 129.08 47.9998 124.966 47.9998C120.851 47.9998 118.142 44.6787 118.142 40.893ZM130.781 40.893C130.781 37.4926 128.332 34.7042 124.966 34.7042C121.6 34.7042 119.197 37.4586 119.197 40.893C119.197 44.2934 121.645 47.0817 125.011 47.0817C128.366 47.0817 130.781 44.3274 130.781 40.893Z" fill="#111111"/>
<path d="M136.992 42.0495V34.0132H138.001V41.9474C138.001 45.1892 139.735 47.0594 142.603 47.0594C145.357 47.0594 147.125 45.3705 147.125 42.0495V34.0132H148.134V41.9248C148.134 45.8692 145.856 47.9775 142.557 47.9775C139.304 47.9775 136.992 45.9032 136.992 42.0495Z" fill="#111111"/>
<path d="M153.915 34.0132H159.627C161.294 34.0132 162.642 34.5459 163.458 35.3733C164.105 36.0194 164.49 36.9489 164.49 37.969C164.49 40.2699 162.801 41.5847 160.511 41.9021L165 47.7735H163.719L159.389 42.0721H154.935V47.7735H153.926V34.0132H153.915ZM159.514 41.1427C161.792 41.1427 163.481 39.9866 163.481 37.9576C163.481 36.1101 162.042 34.954 159.571 34.954H154.923V41.1427H159.514Z" fill="#111111"/>
<path d="M52.7416 58.9835C52.7416 57.3627 53.9431 56.3766 55.1332 56.3766C56.1193 56.3766 56.7541 56.9433 57.1621 57.5667V54.3477H57.6382V61.4658H57.1621V60.355C56.7427 61.0124 56.108 61.5792 55.1332 61.5792C53.9431 61.5792 52.7416 60.6157 52.7416 58.9835ZM57.1848 58.9722C57.1848 57.6914 56.1987 56.8413 55.1786 56.8413C54.1131 56.8413 53.2517 57.6347 53.2517 58.9835C53.2517 60.287 54.1471 61.1258 55.1786 61.1258C56.1987 61.1258 57.1848 60.253 57.1848 58.9722Z" fill="#111111"/>
<path d="M61.0159 58.9721C61.0159 57.5326 62.0134 56.3765 63.3509 56.3765C64.7337 56.3765 65.6065 57.5099 65.6065 58.9834C65.6065 59.0741 65.6065 59.0968 65.5951 59.1761H61.5147C61.6053 60.4116 62.4781 61.137 63.4415 61.137C64.201 61.137 64.7224 60.797 65.1304 60.3549L65.4591 60.6496C64.9604 61.1937 64.371 61.5904 63.4189 61.5904C62.1267 61.5791 61.0159 60.5363 61.0159 58.9721ZM65.0964 58.7454C65.0284 57.7366 64.4617 56.8185 63.3282 56.8185C62.3534 56.8185 61.6053 57.6459 61.5147 58.7454H65.0964Z" fill="#111111"/>
<path d="M68.9162 56.501H69.3923V57.4305C69.721 56.8411 70.265 56.3877 71.1718 56.3877C72.4186 56.3877 73.144 57.2491 73.144 58.4393V61.477H72.6566V58.5186C72.6566 57.4985 72.0899 56.8184 71.0925 56.8184C70.129 56.8184 69.3809 57.5552 69.3809 58.598V61.477H68.9162V56.501Z" fill="#111111"/>
<path d="M77.0092 60.1848V56.9317H76.2951V56.4897H77.0092V54.9028H77.4852V56.4897H79.2081V56.9317H77.4852V60.1394C77.4852 60.8535 77.9046 61.1029 78.4713 61.1029C78.7094 61.1029 78.9134 61.0575 79.1968 60.9329V61.3862C78.9474 61.4996 78.7094 61.5563 78.392 61.5563C77.6326 61.5563 77.0092 61.1369 77.0092 60.1848Z" fill="#111111"/>
<path d="M82.1324 60.0033C82.1324 58.9718 83.0052 58.3824 84.286 58.3824C84.966 58.3824 85.4421 58.4731 85.9182 58.5978V58.3824C85.9182 57.3736 85.3061 56.8635 84.2973 56.8635C83.6966 56.8635 83.2092 57.0336 82.7558 57.2603L82.5858 56.8409C83.1298 56.5915 83.6512 56.4102 84.3313 56.4102C85.0001 56.4102 85.5328 56.5915 85.8842 56.9542C86.2129 57.2829 86.3829 57.7477 86.3829 58.3597V61.4541H85.9182V60.6267C85.5781 61.1027 84.9774 61.5674 84.0366 61.5674C83.1185 61.5788 82.1324 61.0574 82.1324 60.0033ZM85.9182 59.6065V59.0398C85.4988 58.9378 84.9547 58.8131 84.252 58.8131C83.2092 58.8131 82.6311 59.2778 82.6311 59.9919C82.6311 60.7173 83.3112 61.1367 84.0593 61.1367C85.0681 61.1367 85.9182 60.5133 85.9182 59.6065Z" fill="#111111"/>
<path d="M90.0667 54.3477H90.5427V61.4658H90.0667V54.3477Z" fill="#111111"/>
<path d="M99.2137 54.3477H99.6898V61.4658H99.2137V54.3477Z" fill="#111111"/>
<path d="M103.067 60.0033C103.067 58.9718 103.94 58.3824 105.221 58.3824C105.901 58.3824 106.377 58.4731 106.853 58.5978V58.3824C106.853 57.3736 106.241 56.8635 105.232 56.8635C104.632 56.8635 104.144 57.0336 103.691 57.2603L103.521 56.8409C104.065 56.5915 104.586 56.4102 105.266 56.4102C105.935 56.4102 106.468 56.5915 106.819 56.9542C107.148 57.2829 107.318 57.7477 107.318 58.3597V61.4541H106.853V60.6267C106.513 61.1027 105.912 61.5674 104.972 61.5674C104.054 61.5788 103.067 61.0574 103.067 60.0033ZM106.865 59.6065V59.0398C106.445 58.9378 105.901 58.8131 105.198 58.8131C104.156 58.8131 103.578 59.2778 103.578 59.9919C103.578 60.7173 104.258 61.1367 105.006 61.1367C106.003 61.1367 106.865 60.5133 106.865 59.6065Z" fill="#111111"/>
<path d="M111.41 60.389V61.4658H110.934V54.3477H111.41V57.6007C111.829 56.9433 112.464 56.3766 113.439 56.3766C114.629 56.3766 115.83 57.34 115.83 58.9835C115.83 60.6044 114.629 61.5905 113.439 61.5905C112.453 61.5792 111.818 61.0238 111.41 60.389ZM115.32 58.9835C115.32 57.68 114.425 56.8413 113.393 56.8413C112.373 56.8413 111.387 57.714 111.387 58.9949C111.387 60.2757 112.373 61.1258 113.393 61.1258C114.459 61.1258 115.32 60.3324 115.32 58.9835Z" fill="#111111"/>
<path d="M118.891 58.9834C118.891 57.5893 119.967 56.3765 121.43 56.3765C122.892 56.3765 123.946 57.5666 123.946 58.9834C123.946 60.3776 122.88 61.5904 121.407 61.5904C119.956 61.5791 118.891 60.3889 118.891 58.9834ZM123.436 58.9834C123.436 57.782 122.518 56.8299 121.407 56.8299C120.296 56.8299 119.401 57.7933 119.401 58.9834C119.401 60.1849 120.285 61.137 121.43 61.137C122.518 61.137 123.436 60.1736 123.436 58.9834Z" fill="#111111"/>
<path d="M127.335 56.501H127.811V57.9179C128.196 57.0338 129.013 56.3877 129.987 56.4217V56.9431H129.942C128.808 56.9431 127.811 57.8159 127.811 59.4254V61.4656H127.335V56.501Z" fill="#111111"/>
<path d="M132.47 60.0033C132.47 58.9718 133.342 58.3824 134.623 58.3824C135.303 58.3824 135.779 58.4731 136.255 58.5978V58.3824C136.255 57.3736 135.643 56.8635 134.635 56.8635C134.034 56.8635 133.546 57.0336 133.093 57.2603L132.923 56.8409C133.467 56.5915 134 56.4102 134.669 56.4102C135.337 56.4102 135.87 56.5915 136.221 56.9542C136.55 57.2829 136.72 57.7477 136.72 58.3597V61.4541H136.255V60.6267C135.915 61.1027 135.315 61.5674 134.374 61.5674C133.456 61.5788 132.47 61.0574 132.47 60.0033ZM136.267 59.6065V59.0398C135.847 58.9378 135.303 58.8131 134.601 58.8131C133.558 58.8131 132.98 59.2778 132.98 59.9919C132.98 60.7173 133.66 61.1367 134.408 61.1367C135.405 61.1367 136.267 60.5133 136.267 59.6065Z" fill="#111111"/>
<path d="M140.597 60.1848V56.9317H139.882V56.4897H140.597V54.9028H141.073V56.4897H142.795V56.9317H141.073V60.1394C141.073 60.8535 141.492 61.1029 142.059 61.1029C142.297 61.1029 142.501 61.0575 142.784 60.9329V61.3862C142.535 61.4996 142.297 61.5563 141.979 61.5563C141.22 61.5563 140.597 61.1369 140.597 60.1848Z" fill="#111111"/>
<path d="M145.64 58.9834C145.64 57.5893 146.717 56.3765 148.179 56.3765C149.642 56.3765 150.696 57.5666 150.696 58.9834C150.696 60.3776 149.63 61.5904 148.157 61.5904C146.706 61.5791 145.64 60.3889 145.64 58.9834ZM150.186 58.9834C150.186 57.782 149.268 56.8299 148.157 56.8299C147.046 56.8299 146.151 57.7933 146.151 58.9834C146.151 60.1849 147.035 61.137 148.179 61.137C149.268 61.137 150.186 60.1736 150.186 58.9834Z" fill="#111111"/>
<path d="M154.085 56.501H154.561V57.9179C154.946 57.0338 155.762 56.3877 156.737 56.4217V56.9431H156.692C155.558 56.9431 154.561 57.8159 154.561 59.4254V61.4656H154.085V56.501Z" fill="#111111"/>
<path d="M159.491 62.8372L159.65 62.4178C159.911 62.5424 160.126 62.5991 160.489 62.5991C160.999 62.5991 161.339 62.2931 161.702 61.4317L159.333 56.4897H159.888L161.928 60.9329L163.708 56.4897H164.229L162.098 61.6357C161.668 62.6785 161.158 63.0525 160.455 63.0525C160.092 63.0525 159.82 62.9845 159.491 62.8372Z" fill="#111111"/>
<path d="M39.9447 47.6034L37.0544 52.262L38.5959 39.9639L39.9447 47.6034Z" fill="#111111"/>
<path d="M35.5356 16.603L34.3454 25.8634L37.2584 32.1088L38.1879 25.0133L35.5356 16.603Z" fill="#9F0221"/>
<path d="M33.28 13.826L34.7082 14.2454L34.4588 12.4092L33.2347 10.2669L31.0697 8L24.2803 9.13347L16.8221 11.3777L11.9822 14.7781C14.2604 16.8637 17.5022 19.7767 18.4203 20.5135L30.6277 13.9734L33.28 13.826Z" fill="#7B0E23"/>
<path d="M13.2403 25.7046L14.5891 25.8293L17.7175 21.2047C16.4593 20.1846 13.0476 17.0902 11.5401 15.7188L10.4406 22.6329L9.31848 26.1013L9.98723 29.309L11.166 27.3481L13.2403 25.7046Z" fill="#9F0221"/>
<path d="M13.535 26.7251L11.8461 28.0626L10.2819 30.7262L10.2933 30.7716L9.00112 32.3584L8.43439 37.2437L14.045 26.7704L13.535 26.7251Z" fill="#111111"/>
<path d="M8.44574 31.4853L9.22783 30.5105L8.96714 29.2637L8.06036 31.1792L8.44574 31.4853Z" fill="#111111"/>
<path d="M33.1666 14.8232L30.8997 14.9479L18.7263 21.4767L15.2352 26.634L8.11703 39.9182L7.879 42.0491L7.70898 41.5504L5 52.4996L5.75942 56.1834L7.77699 57.2602L13.161 42.2758L26.1845 27.5747L33.3933 25.5572L34.7081 15.2766L33.1666 14.8232Z" fill="#9F0221"/>
<path d="M26.7285 28.4477L14.0224 42.7973L8.62708 57.8044L10.2593 59.1986L12.3788 65.648L14.6684 67.9603L29.7209 27.6089L26.7285 28.4477Z" fill="#9F0221"/>
<path d="M17.2188 70.1366L20.3585 70.5334L25.017 71.3495L28.8028 69.5586L35.0709 54.7102L36.2383 53.01L38.0632 38.411L37.0658 33.9791L33.5747 26.5322L30.8884 27.2803L15.4506 68.6745L17.2188 70.1366Z" fill="#B81B3A"/>
<path d="M37.1904 53.3614L35.921 55.2203L30.4123 68.2891L31.9992 66.997L34.9915 63.7779L36.0343 62.5198C37.2811 60.2075 39.2534 56.4671 39.446 55.9797C39.5027 55.5716 39.7747 54.1435 40.2508 51.7178L39.8428 49.0542L37.1904 53.35V53.3614Z" fill="#111111"/>
</svg>
