<svg width="169" height="80" viewBox="0 0 169 80" fill="none" xmlns="http://www.w3.org/2000/svg">
<g clip-path="url(#clip0_41_274)">
<path d="M21.8147 49.14C26.2522 49.14 29.3615 46.7481 29.3615 42.731C29.3615 39.1126 27.0371 37.4874 22.5694 36.3835C18.5243 35.4022 17.5583 34.6663 17.5583 33.0104C17.5583 31.5385 18.8262 30.4039 20.9996 30.4039C22.9316 30.4039 24.8334 31.1705 26.7352 32.6118L28.7276 29.76C26.5843 28.0121 24.1391 27.0615 21.06 27.0615C16.864 27.0615 13.8452 29.6067 13.8452 33.2864C13.8452 37.3034 16.381 38.6527 20.8789 39.7259C24.8032 40.6765 25.6485 41.5045 25.6485 43.0377C25.6485 44.7242 24.1995 45.7975 21.9052 45.7975C19.2789 45.7975 17.2564 44.7855 15.2338 43.007L13 45.7055C15.5357 48.0053 18.5846 49.14 21.8147 49.14Z" fill="#111111"/>
<path d="M32.9734 48.8332H48.7914V45.4602H36.6865V39.6953H47.2822V36.3222H36.6865V30.7412H48.6405V27.3682H32.9734V48.8332Z" fill="#111111"/>
<path d="M52.8644 48.8332H54.3738V29.76L69.2561 48.8332H70.4334V27.3682H68.9242V46.0428L54.3435 27.3682H52.8644V48.8332Z" fill="#111111"/>
<path d="M75.9589 48.8332H91.1431V47.3614H77.5286V38.7447H89.6336V37.2728H77.5286V28.8401H90.9921V27.3682H75.9589V48.8332Z" fill="#111111"/>
<path d="M95.4273 48.8332H96.997V39.9406H103.91L110.642 48.8332H112.634L105.661 39.6646C109.223 39.174 111.849 37.1194 111.849 33.5317C111.849 31.9372 111.246 30.4959 110.249 29.484C108.981 28.1961 106.898 27.3682 104.302 27.3682H95.4273V48.8332ZM96.997 38.4993V28.8401H104.212C108.046 28.8401 110.28 30.6493 110.28 33.5317C110.28 36.6901 107.653 38.4993 104.121 38.4993H96.997Z" fill="#111111"/>
<path d="M126.178 49.2011C129.619 49.2011 132.577 47.6985 134.479 45.9813V37.7019H125.906V39.1738H132.97V45.3373C131.43 46.6559 128.925 47.7905 126.238 47.7905C120.593 47.7905 117.182 43.6508 117.182 38.1005C117.182 32.8569 120.774 28.4412 125.906 28.4412C129.106 28.4412 131.038 29.5451 132.698 31.017L133.725 29.8211C131.611 28.0426 129.438 27 125.997 27C119.687 27 115.552 32.3049 115.552 38.1005C115.552 44.2027 119.506 49.2011 126.178 49.2011Z" fill="#111111"/>
<path d="M145.374 48.8332H146.944V40.3085L156 27.3682H154.128L146.189 38.898L138.28 27.3682H136.318L145.374 40.3392V48.8332Z" fill="#111111"/>
<path d="M15.6409 62.9908C16.5172 62.9908 17.0799 62.4943 17.4673 61.9132V62.8879H18.1775V56.0479H17.4673V58.9713C17.0983 58.4278 16.5264 57.9406 15.6409 57.9406C14.4972 57.9406 13.3626 58.8775 13.3626 60.461C13.3626 62.0727 14.4972 62.9908 15.6409 62.9908ZM15.7701 62.3444C14.8661 62.3444 14.0913 61.6135 14.0913 60.4704C14.0913 59.2804 14.8477 58.5871 15.7701 58.5871C16.6556 58.5871 17.4949 59.3367 17.4949 60.4516C17.4949 61.5853 16.6556 62.3444 15.7701 62.3444Z" fill="#111111"/>
<path d="M27.1068 60.7606H30.8886C30.8978 60.6483 30.8978 60.5732 30.8978 60.5078C30.8978 59.0835 30.0861 57.9404 28.6749 57.9404C27.3558 57.9404 26.3873 59.0647 26.3873 60.4702C26.3873 61.9788 27.4573 63.0001 28.7671 63.0001C29.671 63.0001 30.2522 62.6346 30.7318 62.0911L30.289 61.6884C29.9016 62.1005 29.4404 62.3724 28.7855 62.3724C27.9462 62.3724 27.2083 61.782 27.1068 60.7606ZM27.1068 60.1798C27.2083 59.2428 27.8355 58.5494 28.6564 58.5494C29.5972 58.5494 30.0953 59.299 30.1784 60.1798H27.1068Z" fill="#111111"/>
<path d="M39.0591 62.8877H39.7693V60.1142C39.7693 59.2054 40.3781 58.5963 41.1991 58.5963C42.0384 58.5963 42.5181 59.1585 42.5181 60.0579V62.8877H43.2284V59.8801C43.2284 58.7274 42.5551 57.9404 41.402 57.9404C40.581 57.9404 40.083 58.3622 39.7693 58.8867V58.0434H39.0591V62.8877Z" fill="#111111"/>
<path d="M53.2567 62.9717C53.5978 62.9717 53.8654 62.8968 54.1144 62.7655V62.1471C53.8654 62.2689 53.6625 62.3158 53.4226 62.3158C52.943 62.3158 52.6202 62.1002 52.6202 61.5101V58.6805H54.1329V58.0431H52.6202V56.5815H51.91V58.0431H51.2458V58.6805H51.91V61.6037C51.91 62.5874 52.491 62.9717 53.2567 62.9717Z" fill="#111111"/>
<path d="M63.7285 62.9909C64.5678 62.9909 65.1121 62.5973 65.4441 62.1663V62.8879H66.1451V59.9269C66.1451 59.3086 65.9791 58.8402 65.647 58.5029C65.3058 58.1562 64.78 57.9688 64.1066 57.9688C63.4056 57.9688 62.8984 58.1374 62.3726 58.3809L62.5847 58.9713C63.0275 58.7651 63.4702 58.6246 64.0328 58.6246C64.9277 58.6246 65.4441 59.0743 65.4441 59.9363V60.0862C65.0198 59.9645 64.5955 59.8802 63.9868 59.8802C62.7784 59.8802 61.9483 60.4235 61.9483 61.4636C61.9483 62.4755 62.8338 62.9909 63.7285 62.9909ZM63.8668 62.4101C63.2211 62.4101 62.6678 62.054 62.6678 61.4448C62.6678 60.8453 63.175 60.4517 64.0605 60.4517C64.6417 60.4517 65.1029 60.5549 65.4533 60.6578V61.1075C65.4533 61.876 64.743 62.4101 63.8668 62.4101Z" fill="#111111"/>
<path d="M74.6321 62.8879H75.3422V56.0479H74.6321V62.8879Z" fill="#111111"/>
<path d="M95.169 62.9811C96.1191 62.9811 96.8663 62.447 96.8663 61.5289C96.8663 60.6387 96.0729 60.3483 95.3352 60.1233C94.6985 59.9265 94.1083 59.7485 94.1083 59.2895C94.1083 58.8679 94.4679 58.5679 95.0307 58.5679C95.4919 58.5679 95.9993 58.746 96.442 59.0366L96.7647 58.4931C96.2758 58.1652 95.6302 57.959 95.0492 57.959C94.1083 57.959 93.4257 58.5119 93.4257 59.3457C93.4257 60.2545 94.2558 60.5169 95.003 60.7323C95.6302 60.9103 96.1929 61.0977 96.1929 61.5849C96.1929 62.0724 95.7779 62.3721 95.2059 62.3721C94.6433 62.3721 94.0713 62.1472 93.555 61.7536L93.1951 62.2689C93.7302 62.7095 94.4864 62.9811 95.169 62.9811Z" fill="#111111"/>
<path d="M106.609 62.9717C106.951 62.9717 107.218 62.8968 107.467 62.7655V62.1471C107.218 62.2689 107.015 62.3158 106.775 62.3158C106.296 62.3158 105.973 62.1002 105.973 61.5101V58.6805H107.485V58.0431H105.973V56.5815H105.262V58.0431H104.598V58.6805H105.262V61.6037C105.262 62.5874 105.844 62.9717 106.609 62.9717Z" fill="#111111"/>
<path d="M117.413 62.9907C118.234 62.9907 118.723 62.5692 119.046 62.0445V62.8877H119.747V58.0435H119.046V60.817C119.046 61.7259 118.428 62.3349 117.616 62.3349C116.777 62.3349 116.297 61.7726 116.297 60.8733V58.0435H115.587V61.0513C115.587 62.2037 116.26 62.9907 117.413 62.9907Z" fill="#111111"/>
<path d="M130.264 62.9908C131.14 62.9908 131.703 62.4943 132.09 61.9132V62.8879H132.801V56.0479H132.09V58.9713C131.721 58.4278 131.15 57.9406 130.264 57.9406C129.12 57.9406 127.986 58.8775 127.986 60.461C127.986 62.0727 129.12 62.9908 130.264 62.9908ZM130.393 62.3444C129.489 62.3444 128.714 61.6135 128.714 60.4704C128.714 59.2804 129.471 58.5871 130.393 58.5871C131.279 58.5871 132.118 59.3367 132.118 60.4516C132.118 61.5853 131.279 62.3444 130.393 62.3444Z" fill="#111111"/>
<path d="M141.324 56.9846H142.136V56.188H141.324V56.9846ZM141.37 62.8875H142.08V58.0432H141.37V62.8875Z" fill="#111111"/>
<path d="M152.823 63.0001C154.262 63.0001 155.323 61.8382 155.323 60.4702C155.323 59.0835 154.272 57.9404 152.842 57.9404C151.403 57.9404 150.351 59.1022 150.351 60.4702C150.351 61.857 151.394 63.0001 152.823 63.0001ZM152.842 62.3536C151.836 62.3536 151.08 61.5103 151.08 60.4702C151.08 59.4302 151.79 58.5775 152.823 58.5775C153.829 58.5775 154.594 59.4302 154.594 60.4702C154.594 61.5103 153.875 62.3536 152.842 62.3536Z" fill="#111111"/>
</g>
<defs>
<clipPath id="clip0_41_274">
<rect width="143" height="36" fill="white" transform="translate(13 27)"/>
</clipPath>
</defs>
</svg>
