<svg width="169" height="80" viewBox="0 0 169 80" fill="none" xmlns="http://www.w3.org/2000/svg">
<path d="M62.3103 28.9307C62.3103 24.5977 65.5893 21.0845 70.215 21.0845C73.0841 21.0845 74.6651 22.197 76.0704 23.5437L74.0796 25.8273C72.9085 24.7734 71.9131 24.1293 70.1565 24.1293C67.5801 24.1293 65.7649 26.2372 65.7649 28.8721C65.7649 31.4485 67.5801 33.615 70.1565 33.615C71.9131 33.615 72.967 32.9123 74.1381 31.8584L76.246 34.142C74.6651 35.84 72.967 36.7183 70.0393 36.7183C65.5893 36.7769 62.3103 33.3222 62.3103 28.9307Z" fill="#111111"/>
<path d="M84.1508 21.2603H87.2542L93.7536 36.5428H90.2404L88.8351 33.1467H82.3942L80.9889 36.5428H77.5928L84.1508 21.2603ZM87.664 30.1604L85.6732 25.2419L83.6824 30.1604H87.664Z" fill="#111111"/>
<path d="M96.0958 21.3188H102.01C106.753 21.3188 110.09 24.5979 110.09 28.9308C110.09 33.2053 106.811 36.5428 102.01 36.5428H96.0958V21.3188ZM102.01 33.498C104.762 33.498 106.577 31.6829 106.577 28.9308C106.577 26.2374 104.762 24.3636 102.01 24.3636H99.4333V33.498H102.01Z" fill="#111111"/>
<path d="M117.409 28.6382C117.409 24.3052 120.688 20.792 125.314 20.792C128.183 20.792 129.764 21.9045 131.17 23.2513L129.179 25.5348C128.008 24.4809 127.012 23.8368 125.256 23.8368C122.679 23.8368 120.864 25.9447 120.864 28.5796C120.864 31.156 122.679 33.3225 125.256 33.3225C127.012 33.3225 128.066 32.6198 129.237 31.5659L131.345 33.8495C129.764 35.5475 128.066 36.4258 125.138 36.4258C120.747 36.4844 117.409 33.0883 117.409 28.6382Z" fill="#111111"/>
<path d="M139.309 20.9678H142.412L148.911 36.2503H145.398L143.993 32.8542H137.552L136.147 36.2503H132.75L139.309 20.9678ZM142.822 29.8679L140.831 24.9494L138.84 29.8679H142.822Z" fill="#111111"/>
<path d="M151.253 21.0845H154.825L158.807 27.5254L162.789 21.0845H166.36V36.2499H163.023V26.3543L158.748 32.8538H158.69L154.474 26.4129V36.2499H151.195V21.0845H151.253Z" fill="#111111"/>
<path d="M64.067 41.5195H76.4218V43.2761H65.9993V49.1315H75.3093V50.8881H65.9993V56.8606H76.5389V58.6172H64.067V41.5195Z" fill="#B60214"/>
<path d="M80.4621 41.5195H82.2772L93.0511 55.2211V41.5195H94.9248V58.6172H93.4024L82.3358 44.5643V58.6172H80.4621V41.5195Z" fill="#B60214"/>
<path d="M99.7848 41.5195H112.14V43.2761H101.717V49.1315H111.027V50.8881H101.717V56.8606H112.257V58.6172H99.7848V41.5195Z" fill="#B60214"/>
<path d="M116.18 41.5195H123.499C125.607 41.5195 127.305 42.1636 128.359 43.2176C129.179 44.0373 129.706 45.267 129.706 46.6137C129.706 49.4243 127.773 51.1223 125.08 51.5908L130.35 58.5587H128.008L123.031 51.8835H118.112V58.5587H116.18V41.5195ZM123.323 50.244C125.9 50.244 127.715 48.8973 127.715 46.6723C127.715 44.5643 126.075 43.2761 123.323 43.2761H118.054V50.244H123.323Z" fill="#B60214"/>
<path d="M133.102 50.0687C133.102 45.3844 136.557 41.2271 141.709 41.2271C144.578 41.2271 146.394 42.0468 148.092 43.5106L146.862 44.9745C145.515 43.8034 144.051 43.0422 141.651 43.0422C137.845 43.0422 135.151 46.2627 135.151 50.1272C135.151 54.226 137.786 57.2708 141.943 57.2708C143.876 57.2708 145.691 56.5096 146.862 55.5727V51.2983H141.651V49.5417H148.677V56.3339C147.096 57.7392 144.695 58.9688 141.826 58.9688C136.381 58.9103 133.102 55.0457 133.102 50.0687Z" fill="#B60214"/>
<path d="M157.636 51.8835L150.492 41.5195H152.834L158.631 50.0684L164.428 41.5195H166.653L159.51 51.825V58.6172H157.577V51.8835H157.636Z" fill="#B60214"/>
<path d="M40.8211 37.0699C41.6994 41.2858 40.6454 45.9115 37.5421 49.3662C32.3893 55.163 23.4892 55.6314 17.6924 50.4787C11.8955 45.326 11.4271 36.4258 16.5798 30.629C19.7417 27.0572 24.3089 25.5348 28.7005 26.0618L35.3756 18.5669C26.7096 15.1708 16.4627 17.3373 9.84617 24.6565C1.41443 34.0837 2.17563 48.6635 11.6613 57.1538C21.0885 65.5856 35.6684 64.8244 44.1587 55.3387C50.6581 48.078 51.6535 37.7725 47.4962 29.575L40.8211 37.0699Z" fill="#111111"/>
<path d="M42.285 22.7243C40.4698 21.1433 38.7132 20.0894 37.3079 19.3867C35.0243 21.9631 32.7992 24.4809 30.5156 27.0573C31.8624 27.5257 33.9703 28.4625 36.0783 30.3948C38.0105 32.1514 39.123 33.9666 39.7086 35.1962C41.9922 32.737 44.2758 30.2777 46.5008 27.7599C45.7396 26.4717 44.3929 24.5394 42.285 22.7243Z" fill="#B60214"/>
</svg>
