<svg width="167" height="243" viewBox="0 0 167 243" fill="none" xmlns="http://www.w3.org/2000/svg">
<path d="M83.4417 243C67.592 243 53.435 240.267 40.9707 234.8C28.5833 229.333 18.7734 221.749 11.541 212.048C4.3856 202.269 0.538582 190.951 0 178.092H36.2389C36.7005 185.099 39.0472 191.182 43.2789 196.34C47.5875 201.422 53.2042 205.349 60.1288 208.121C67.0534 210.893 74.7474 212.279 83.2109 212.279C92.5206 212.279 100.753 210.662 107.909 207.428C115.141 204.194 120.796 199.69 124.874 193.915C128.952 188.063 130.991 181.326 130.991 173.703C130.991 165.773 128.952 158.805 124.874 152.799C120.873 146.716 114.987 141.942 107.216 138.478C99.5222 135.013 90.2124 133.28 79.2869 133.28H59.3209V104.176H79.2869C88.0581 104.176 95.7521 102.597 102.369 99.4406C109.063 96.2837 114.295 91.895 118.065 86.2742C121.835 80.5765 123.72 73.9163 123.72 66.2937C123.72 58.9791 122.066 52.6269 118.757 47.2372C115.526 41.7704 110.909 37.4971 104.908 34.4173C98.9836 31.3374 91.9821 29.7975 83.9033 29.7975C76.2093 29.7975 69.0154 31.222 62.3216 34.0708C55.7047 36.8427 50.3189 40.8465 46.1641 46.0822C42.0094 51.241 39.7781 57.4391 39.4703 64.6768H4.96265C5.34735 51.8954 9.11742 40.654 16.2729 30.9525C23.5052 21.2509 33.0458 13.6668 44.8946 8.20009C56.7434 2.73336 69.9002 0 84.365 0C99.5222 0 112.602 2.96435 123.604 8.89306C134.684 14.7448 143.224 22.5599 149.226 32.3384C155.304 42.1169 158.305 52.8194 158.228 64.4458C158.305 77.6892 154.611 88.9306 147.148 98.1701C139.762 107.41 129.914 113.608 117.603 116.765V118.613C133.299 121 145.456 127.236 154.073 137.323C162.767 147.409 167.076 159.921 166.999 174.858C167.076 187.871 163.46 199.536 156.15 209.853C148.918 220.171 139.031 228.294 126.49 234.222C113.948 240.074 99.5991 243 83.4417 243Z" fill="black" fill-opacity="0.1"/>
</svg>
