<svg width="150" height="49" viewBox="0 0 150 49" fill="none" xmlns="http://www.w3.org/2000/svg">
<path d="M19.0902 20.4342H34.4082V17.2168H22.6843V11.7324H32.9489V8.52527H22.6843V3.20716H34.2674V0H19.0902V20.4342Z" fill="white"/>
<path d="M8.69157 29.5752C13.0866 29.5752 16.1274 27.2725 16.1274 23.4222C16.1274 19.9062 13.8417 18.3773 9.43991 17.3134C5.45047 16.3546 4.49172 15.6521 4.49172 14.0621C4.49172 12.6469 5.73895 11.5574 7.88384 11.5574C9.95237 11.6304 11.9395 12.3787 13.5447 13.6837L15.5047 10.933C13.3632 9.19195 10.6702 8.26883 7.91099 8.33162C3.80617 8.33162 0.880696 10.7837 0.880696 14.3251C0.880696 18.1839 3.37685 19.4837 7.81596 20.4781C11.6832 21.3571 12.5181 22.192 12.5181 23.6683C12.5181 25.2854 11.0859 26.3053 8.82732 26.3053C6.37189 26.2832 4.01998 25.3194 2.2535 23.6157L0 26.2696C2.38755 28.4111 5.48441 29.5905 8.69157 29.5735" fill="white"/>
<path d="M43.8838 29.5751H47.522V12.3651H54.0348V9.01709H37.3711V12.3651H43.8838V29.5751Z" fill="white"/>
<path d="M57.8579 29.5751H61.4706V22.4125H65.9182L71.0242 29.5751H75.2783L69.7328 21.788C72.6074 20.9701 74.6369 18.9406 74.6369 15.5655C74.6369 11.6015 71.8149 9.01709 66.9991 9.01709H57.8579V29.5751ZM61.4706 19.2036V12.304H66.7446C69.3816 12.304 70.9987 13.5088 70.9987 15.7148C70.9987 17.9208 69.3544 19.2308 66.7802 19.2308L61.4723 19.2036H61.4706Z" fill="white"/>
<path d="M77.3417 29.5751H81.0427L83.1163 24.61H92.8277L94.92 29.5751H98.7431L89.6901 8.87793H86.3506L77.3417 29.5751ZM84.4789 21.4096L87.9949 13.1915L91.5109 21.4096H84.4806H84.4789Z" fill="white"/>
<path d="M102.251 29.565H109.914C116.366 29.565 120.83 25.0834 120.83 19.3004C120.83 13.5173 116.366 9.01709 109.914 9.01709H102.251V29.565ZM105.863 26.2865V12.304H109.916C113.637 12.0919 116.827 14.9376 117.039 18.6589C117.053 18.8846 117.053 19.1103 117.044 19.336C117.044 23.4137 114.222 26.3663 109.917 26.3663L105.865 26.2865H105.863Z" fill="white"/>
<path d="M125.207 29.5751H140.587V26.3408H128.819V20.8208H139.12V17.595H128.819V12.2514H140.438V9.01709H125.207V29.5751Z" fill="white"/>
<path d="M148.128 25.5488H144.225V29.5654H148.128V25.5488Z" fill="white"/>
<path d="M58.3313 48.584H61.5656V47.89H59.0881V46.7038H61.2585V46.0098H59.0881V44.8576H61.5317V44.1636H58.3313V48.584Z" fill="white"/>
<path d="M62.4718 48.584H63.3423L64.4843 46.9058L65.6178 48.584H66.5138L64.9408 46.3254L66.4442 44.1636H65.5822L64.5013 45.7468L63.4288 44.1636H62.5413L64.0448 46.3356L62.4718 48.584Z" fill="white"/>
<path d="M67.6745 48.5839H68.4296V47.1602H69.3086C70.1486 47.2824 70.9291 46.6987 71.0513 45.857C71.0615 45.7874 71.0666 45.7179 71.0666 45.6483C71.0768 44.8321 70.4235 44.1635 69.6089 44.1533C69.5479 44.1533 69.4851 44.155 69.424 44.1635H67.6745V48.5839ZM68.4296 46.4577V44.8677H69.3086C69.8805 44.8677 70.2402 45.1409 70.2402 45.6585C70.2351 46.1099 69.8652 46.4713 69.4138 46.4662C69.3782 46.4662 69.3442 46.4628 69.3086 46.4577H68.4296Z" fill="white"/>
<path d="M72.0864 48.584H75.3122V47.89H72.8432V46.7038H75.0051V46.0098H72.8432V44.8576H75.2766V44.1636H72.0864V48.584Z" fill="white"/>
<path d="M78.5466 48.6552C79.2219 48.6806 79.8701 48.3905 80.3046 47.8729L79.8209 47.3723C79.5087 47.7304 79.0573 47.9391 78.5822 47.9442C77.7151 47.8797 77.0652 47.1246 77.1313 46.2574C77.189 45.482 77.8067 44.8643 78.5822 44.8066C79.0421 44.8219 79.4782 45.0187 79.7955 45.3513L80.2791 44.7794C79.3984 43.875 77.9526 43.8563 77.0482 44.7353C76.1437 45.616 76.1251 47.0618 77.0041 47.9662C77.4045 48.3786 77.9475 48.6246 78.5211 48.6535" fill="white"/>
<path d="M82.4919 48.584H83.2572V44.8848H84.6283V44.1636H81.131V44.8848H82.4919V48.584Z" fill="white"/>
<path d="M87.9509 48.584H88.6975V45.4295L90.0517 47.4946H90.0771L91.4313 45.4125V48.584H92.1864V44.1636H91.3871L90.0771 46.2559L88.7586 44.1636H87.9509V48.584Z" fill="white"/>
<path d="M95.7023 48.6555C96.9648 48.6742 98.0033 47.6679 98.022 46.4054C98.0407 45.1429 97.0344 44.1044 95.7719 44.0857C94.5094 44.067 93.4709 45.0733 93.4522 46.3358C93.4522 46.3477 93.4522 46.3596 93.4522 46.3714C93.4234 47.6034 94.3991 48.6266 95.6311 48.6555C95.6548 48.6555 95.6786 48.6555 95.7023 48.6555ZM95.7023 47.9428C94.8725 47.9241 94.2141 47.2369 94.2328 46.4071C94.2328 46.3952 94.2328 46.3816 94.2328 46.3697C94.1989 45.5501 94.8352 44.8578 95.6548 44.8239C95.6701 44.8239 95.6853 44.8239 95.7006 44.8239C96.5304 44.8476 97.1837 45.5383 97.16 46.368C97.16 46.3782 97.16 46.3867 97.16 46.3969C97.2177 47.2046 96.6102 47.9088 95.8007 47.9665C95.7702 47.9682 95.7397 47.9699 95.7091 47.9699" fill="white"/>
<path d="M99.2182 48.584H99.9734V47.0466H100.905L101.95 48.584H102.829L101.66 46.9058C102.283 46.77 102.716 46.2066 102.688 45.5703C102.688 44.6913 102.1 44.1636 101.088 44.1636H99.1724L99.2165 48.584H99.2182ZM99.9734 46.3509V44.8661H101.071C101.633 44.8661 101.95 45.1291 101.95 45.6042C101.95 46.0794 101.607 46.3509 101.071 46.3509H99.9734Z" fill="white"/>
<path d="M104.009 48.584H107.233V47.89H104.764V46.7038H106.926V46.0098H104.764V44.8576H107.199V44.1636H104.009V48.584Z" fill="white"/>
<path d="M109.159 47.7153H108.341V48.5774H109.159V47.7153Z" fill="white"/>
<path d="M114.696 48.6553C115.359 48.652 115.999 48.4093 116.498 47.9698V46.1151H114.662V46.7921H115.76V47.6185C115.458 47.8374 115.095 47.9545 114.723 47.9528C113.917 47.9613 113.259 47.3131 113.25 46.5088C113.25 46.4629 113.25 46.4171 113.255 46.3713C113.219 45.5602 113.842 44.8712 114.653 44.8237C115.105 44.8085 115.541 44.9764 115.867 45.2904L116.342 44.71C115.894 44.2977 115.298 44.0822 114.689 44.1127C113.46 44.1314 112.481 45.1427 112.5 46.3713C112.435 47.5693 113.355 48.5909 114.553 48.6536C114.613 48.657 114.674 48.657 114.733 48.6553" fill="white"/>
<path d="M117.823 48.584H121.049V47.89H118.58V46.7038H120.742V46.0098H118.58V44.8576H121.015V44.1636H117.823V48.584Z" fill="white"/>
<path d="M123.343 48.584H124.109V44.8848H125.48V44.1636H121.981V44.8848H123.343V48.584Z" fill="white"/>
<path d="M128.802 48.584H129.549V45.4295L130.901 47.4946H130.929L132.283 45.4125V48.584H133.046V44.1636H132.239L130.929 46.2559L129.61 44.1636H128.802V48.584Z" fill="white"/>
<path d="M136.554 48.6555C137.816 48.6742 138.855 47.6679 138.873 46.4054C138.892 45.1429 137.886 44.1044 136.623 44.0857C135.361 44.067 134.322 45.0733 134.304 46.3358C134.304 46.3477 134.304 46.3596 134.304 46.3714C134.275 47.6034 135.25 48.6266 136.482 48.6555C136.506 48.6555 136.53 48.6555 136.554 48.6555ZM136.554 47.9428C135.683 48.0259 134.911 47.3879 134.83 46.5174C134.747 45.6469 135.385 44.8748 136.255 44.7933C137.126 44.7102 137.898 45.3482 137.979 46.2187C137.984 46.2696 137.986 46.3188 137.986 46.3697C138.044 47.1775 137.436 47.8817 136.627 47.9394C136.596 47.9411 136.566 47.9428 136.535 47.9428" fill="white"/>
<path d="M140.068 48.584H140.823V47.0466H141.755L142.827 48.584H143.706L142.537 46.9058C143.16 46.77 143.592 46.2066 143.565 45.5703C143.565 44.6913 142.976 44.1636 141.965 44.1636H140.049L140.066 48.584H140.068ZM140.823 46.3509V44.8661H141.921C142.483 44.8661 142.8 45.1291 142.8 45.6042C142.8 46.0794 142.457 46.3509 141.921 46.3509H140.823Z" fill="white"/>
<path d="M144.858 48.584H148.084V47.89H145.615V46.7038H147.777V46.0098H145.615V44.8576H148.057V44.1636H144.858V48.584Z" fill="white"/>
<path d="M150 47.7153H149.182V48.5774H150V47.7153Z" fill="white"/>
</svg>
