<svg width="163" height="46" viewBox="0 0 163 46" fill="none" xmlns="http://www.w3.org/2000/svg">
<path d="M58.3102 11.9307C58.3102 7.5977 61.5893 4.08447 66.215 4.08447C69.0841 4.08447 70.6651 5.197 72.0704 6.54373L70.0795 8.82732C68.9085 7.77336 67.913 7.12927 66.1564 7.12927C63.5801 7.12927 61.7649 9.2372 61.7649 11.8721C61.7649 14.4485 63.5801 16.615 66.1564 16.615C67.913 16.615 68.967 15.9123 70.1381 14.8584L72.246 17.142C70.6651 18.84 68.967 19.7183 66.0393 19.7183C61.5892 19.7769 58.3102 16.3222 58.3102 11.9307Z" fill="white"/>
<path d="M80.1508 4.26025H83.2541L89.7536 19.5428H86.2404L84.8351 16.1467H78.3942L76.9889 19.5428H73.5928L80.1508 4.26025ZM83.664 13.1604L81.6732 8.2419L79.6824 13.1604H83.664Z" fill="white"/>
<path d="M92.0958 4.31885H98.0097C102.753 4.31885 106.09 7.59786 106.09 11.9308C106.09 16.2053 102.811 19.5428 98.0097 19.5428H92.0958V4.31885ZM98.0097 16.498C100.762 16.498 102.577 14.6829 102.577 11.9308C102.577 9.23736 100.762 7.36364 98.0097 7.36364H95.4333V16.498H98.0097Z" fill="white"/>
<path d="M113.409 11.6382C113.409 7.30522 116.688 3.79199 121.314 3.79199C124.183 3.79199 125.764 4.90452 127.169 6.25125L125.179 8.53484C124.008 7.48088 123.012 6.83679 121.256 6.83679C118.679 6.83679 116.864 8.94472 116.864 11.5796C116.864 14.156 118.679 16.3225 121.256 16.3225C123.012 16.3225 124.066 15.6198 125.237 14.5659L127.345 16.8495C125.764 18.5475 124.066 19.4258 121.138 19.4258C116.747 19.4844 113.409 16.0883 113.409 11.6382Z" fill="white"/>
<path d="M135.309 3.96777H138.412L144.911 19.2503H141.398L139.993 15.8542H133.552L132.147 19.2503H128.75L135.309 3.96777ZM138.822 12.8679L136.831 7.94942L134.84 12.8679H138.822Z" fill="white"/>
<path d="M147.253 4.08447H150.825L154.807 10.5254L158.789 4.08447H162.36V19.2499H159.023V9.35431L154.748 15.8538H154.69L150.474 9.41286V19.2499H147.195V4.08447H147.253Z" fill="white"/>
<path d="M60.067 24.5195H72.4218V26.2761H61.9992V32.1315H71.3093V33.8881H61.9992V39.8606H72.5389V41.6172H60.067V24.5195Z" fill="#B60214"/>
<path d="M76.462 24.5195H78.2772L89.0511 38.2211V24.5195H90.9248V41.6172H89.4024L78.3358 27.5643V41.6172H76.462V24.5195Z" fill="#B60214"/>
<path d="M95.7847 24.5195H108.14V26.2761H97.717V32.1315H107.027V33.8881H97.717V39.8606H108.257V41.6172H95.7847V24.5195Z" fill="#B60214"/>
<path d="M112.18 24.5195H119.499C121.607 24.5195 123.305 25.1636 124.359 26.2176C125.179 27.0373 125.706 28.267 125.706 29.6137C125.706 32.4243 123.773 34.1223 121.08 34.5908L126.35 41.5587H124.008L119.031 34.8835H114.112V41.5587H112.18V24.5195ZM119.323 33.244C121.9 33.244 123.715 31.8973 123.715 29.6723C123.715 27.5643 122.075 26.2761 119.323 26.2761H114.054V33.244H119.323Z" fill="#B60214"/>
<path d="M129.102 33.0687C129.102 28.3844 132.556 24.2271 137.709 24.2271C140.578 24.2271 142.394 25.0468 144.092 26.5106L142.862 27.9745C141.515 26.8034 140.051 26.0422 137.651 26.0422C133.845 26.0422 131.151 29.2627 131.151 33.1272C131.151 37.226 133.786 40.2708 137.943 40.2708C139.876 40.2708 141.691 39.5096 142.862 38.5727V34.2983H137.651V32.5417H144.677V39.3339C143.096 40.7392 140.695 41.9688 137.826 41.9688C132.381 41.9103 129.102 38.0457 129.102 33.0687Z" fill="#B60214"/>
<path d="M153.636 34.8835L146.492 24.5195H148.834L154.631 33.0684L160.428 24.5195H162.653L155.51 34.825V41.6172H153.577V34.8835H153.636Z" fill="#B60214"/>
<path d="M36.8211 20.0699C37.6994 24.2858 36.6454 28.9115 33.5421 32.3662C28.3893 38.163 19.4892 38.6314 13.6924 33.4787C7.89555 28.326 7.42712 19.4258 12.5798 13.629C15.7417 10.0572 20.3089 8.53482 24.7005 9.0618L31.3756 1.56693C22.7096 -1.82919 12.4627 0.337294 5.84617 7.65651C-2.58557 17.0837 -1.82437 31.6635 7.66133 40.1538C17.0885 48.5856 31.6684 47.8244 40.1587 38.3387C46.6581 31.078 47.6535 20.7725 43.4962 12.575L36.8211 20.0699Z" fill="white"/>
<path d="M38.2849 5.72428C36.4698 4.14333 34.7132 3.08936 33.3079 2.38672C31.0243 4.96308 28.7992 7.4809 26.5156 10.0573C27.8624 10.5257 29.9703 11.4625 32.0782 13.3948C34.0105 15.1514 35.123 16.9666 35.7086 18.1962C37.9922 15.737 40.2758 13.2777 42.5008 10.7599C41.7396 9.47172 40.3929 7.53945 38.2849 5.72428Z" fill="#B60214"/>
</svg>
