<svg width="160" height="64" viewBox="0 0 160 64" fill="none" xmlns="http://www.w3.org/2000/svg">
<path d="M48.0363 32.893C48.0363 29.0052 50.9153 25.7861 54.8371 25.7861C57.2627 25.7861 58.6682 26.7496 60.0623 28.0417L59.4049 28.7331C58.2148 27.577 56.8546 26.7156 54.8144 26.7156C51.55 26.7156 49.0791 29.4019 49.0791 32.9043C49.0791 36.384 51.584 39.093 54.8371 39.093C56.798 39.093 58.1354 38.3223 59.5183 36.9508L60.1984 37.6195C58.7589 39.059 57.206 40.0111 54.7917 40.0111C50.9039 39.9998 48.0363 36.8828 48.0363 32.893Z" fill="white"/>
<path d="M63.9275 32.893C63.9275 29.1412 66.6705 25.7861 70.7849 25.7861C74.8994 25.7861 77.6084 29.1072 77.6084 32.893C77.6084 36.6447 74.8654 39.9998 70.7509 39.9998C66.6365 39.9998 63.9275 36.6787 63.9275 32.893ZM76.5543 32.893C76.5543 29.4926 74.106 26.7042 70.7396 26.7042C67.3732 26.7042 64.9703 29.4586 64.9703 32.893C64.9703 36.2934 67.4185 39.0817 70.7849 39.0817C74.1513 39.0817 76.5543 36.3274 76.5543 32.893Z" fill="white"/>
<path d="M82.9923 26.0132H83.9444L93.3295 37.9712V26.0132H94.3043V39.7621H93.5449L83.9671 27.5434V39.7621H82.9923V26.0132Z" fill="white"/>
<path d="M104.052 26.954H99.3142V26.0132H109.81V26.954H105.061V39.7621H104.052V26.954Z" fill="white"/>
<path d="M113.143 32.893C113.143 29.1412 115.886 25.7861 120 25.7861C124.114 25.7861 126.823 29.1072 126.823 32.893C126.823 36.6447 124.08 39.9998 119.966 39.9998C115.851 39.9998 113.143 36.6787 113.143 32.893ZM125.781 32.893C125.781 29.4926 123.332 26.7042 119.966 26.7042C116.6 26.7042 114.197 29.4586 114.197 32.893C114.197 36.2934 116.645 39.0817 120.011 39.0817C123.366 39.0817 125.781 36.3274 125.781 32.893Z" fill="white"/>
<path d="M131.992 34.0495V26.0132H133.001V33.9474C133.001 37.1892 134.735 39.0594 137.603 39.0594C140.357 39.0594 142.125 37.3705 142.125 34.0495V26.0132H143.134V33.9248C143.134 37.8692 140.856 39.9775 137.557 39.9775C134.304 39.9775 131.992 37.9032 131.992 34.0495Z" fill="white"/>
<path d="M148.915 26.0132H154.627C156.294 26.0132 157.642 26.5459 158.458 27.3733C159.105 28.0194 159.49 28.9489 159.49 29.969C159.49 32.2699 157.801 33.5847 155.511 33.9021L160 39.7735H158.719L154.389 34.0721H149.935V39.7735H148.926V26.0132H148.915ZM154.514 33.1427C156.792 33.1427 158.481 31.9866 158.481 29.9576C158.481 28.1101 157.042 26.954 154.571 26.954H149.923V33.1427H154.514Z" fill="white"/>
<path d="M47.7416 50.9835C47.7416 49.3627 48.9431 48.3766 50.1332 48.3766C51.1193 48.3766 51.7541 48.9433 52.1621 49.5667V46.3477H52.6382V53.4658H52.1621V52.355C51.7427 53.0124 51.108 53.5792 50.1332 53.5792C48.9431 53.5792 47.7416 52.6157 47.7416 50.9835ZM52.1848 50.9722C52.1848 49.6914 51.1987 48.8413 50.1786 48.8413C49.1131 48.8413 48.2517 49.6347 48.2517 50.9835C48.2517 52.287 49.1471 53.1258 50.1786 53.1258C51.1987 53.1258 52.1848 52.253 52.1848 50.9722Z" fill="white"/>
<path d="M56.0159 50.9721C56.0159 49.5326 57.0134 48.3765 58.3509 48.3765C59.7337 48.3765 60.6065 49.5099 60.6065 50.9834C60.6065 51.0741 60.6065 51.0968 60.5951 51.1761H56.5147C56.6053 52.4116 57.4781 53.137 58.4415 53.137C59.201 53.137 59.7224 52.797 60.1304 52.3549L60.4591 52.6496C59.9604 53.1937 59.371 53.5904 58.4189 53.5904C57.1267 53.5791 56.0159 52.5363 56.0159 50.9721ZM60.0964 50.7454C60.0284 49.7366 59.4617 48.8185 58.3282 48.8185C57.3534 48.8185 56.6053 49.6459 56.5147 50.7454H60.0964Z" fill="white"/>
<path d="M63.9162 48.501H64.3922V49.4305C64.7209 48.8411 65.265 48.3877 66.1718 48.3877C67.4186 48.3877 68.144 49.2491 68.144 50.4393V53.477H67.6566V50.5186C67.6566 49.4985 67.0899 48.8184 66.0924 48.8184C65.129 48.8184 64.3809 49.5552 64.3809 50.598V53.477H63.9162V48.501Z" fill="white"/>
<path d="M72.0092 52.1848V48.9317H71.2951V48.4897H72.0092V46.9028H72.4852V48.4897H74.2081V48.9317H72.4852V52.1394C72.4852 52.8535 72.9046 53.1029 73.4713 53.1029C73.7093 53.1029 73.9134 53.0575 74.1967 52.9329V53.3862C73.9474 53.4996 73.7093 53.5563 73.392 53.5563C72.6326 53.5563 72.0092 53.1369 72.0092 52.1848Z" fill="white"/>
<path d="M77.1324 52.0033C77.1324 50.9718 78.0052 50.3824 79.286 50.3824C79.9661 50.3824 80.4421 50.4731 80.9182 50.5978V50.3824C80.9182 49.3736 80.3061 48.8635 79.2973 48.8635C78.6966 48.8635 78.2092 49.0336 77.7558 49.2603L77.5858 48.8409C78.1299 48.5915 78.6512 48.4102 79.3313 48.4102C80.0001 48.4102 80.5328 48.5915 80.8842 48.9542C81.2129 49.2829 81.3829 49.7477 81.3829 50.3597V53.4541H80.9182V52.6267C80.5781 53.1027 79.9774 53.5674 79.0366 53.5674C78.1185 53.5788 77.1324 53.0574 77.1324 52.0033ZM80.9182 51.6065V51.0398C80.4988 50.9378 79.9547 50.8131 79.252 50.8131C78.2092 50.8131 77.6311 51.2778 77.6311 51.9919C77.6311 52.7173 78.3112 53.1367 79.0593 53.1367C80.0681 53.1367 80.9182 52.5133 80.9182 51.6065Z" fill="white"/>
<path d="M85.0666 46.3477H85.5427V53.4658H85.0666V46.3477Z" fill="white"/>
<path d="M94.2137 46.3477H94.6898V53.4658H94.2137V46.3477Z" fill="white"/>
<path d="M98.0675 52.0033C98.0675 50.9718 98.9402 50.3824 100.221 50.3824C100.901 50.3824 101.377 50.4731 101.853 50.5978V50.3824C101.853 49.3736 101.241 48.8635 100.232 48.8635C99.6316 48.8635 99.1443 49.0336 98.6909 49.2603L98.5209 48.8409C99.0649 48.5915 99.5863 48.4102 100.266 48.4102C100.935 48.4102 101.468 48.5915 101.819 48.9542C102.148 49.2829 102.318 49.7477 102.318 50.3597V53.4541H101.853V52.6267C101.513 53.1027 100.912 53.5674 99.9717 53.5674C99.0536 53.5788 98.0675 53.0574 98.0675 52.0033ZM101.865 51.6065V51.0398C101.445 50.9378 100.901 50.8131 100.198 50.8131C99.1556 50.8131 98.5775 51.2778 98.5775 51.9919C98.5775 52.7173 99.2576 53.1367 100.006 53.1367C101.003 53.1367 101.865 52.5133 101.865 51.6065Z" fill="white"/>
<path d="M106.41 52.389V53.4658H105.934V46.3477H106.41V49.6007C106.829 48.9433 107.464 48.3766 108.439 48.3766C109.629 48.3766 110.83 49.34 110.83 50.9835C110.83 52.6044 109.629 53.5905 108.439 53.5905C107.453 53.5792 106.818 53.0238 106.41 52.389ZM110.32 50.9835C110.32 49.68 109.425 48.8413 108.393 48.8413C107.373 48.8413 106.387 49.714 106.387 50.9949C106.387 52.2757 107.373 53.1258 108.393 53.1258C109.459 53.1258 110.32 52.3324 110.32 50.9835Z" fill="white"/>
<path d="M113.891 50.9834C113.891 49.5893 114.967 48.3765 116.43 48.3765C117.892 48.3765 118.946 49.5666 118.946 50.9834C118.946 52.3776 117.88 53.5904 116.407 53.5904C114.956 53.5791 113.891 52.3889 113.891 50.9834ZM118.436 50.9834C118.436 49.782 117.518 48.8299 116.407 48.8299C115.296 48.8299 114.401 49.7933 114.401 50.9834C114.401 52.1849 115.285 53.137 116.43 53.137C117.518 53.137 118.436 52.1736 118.436 50.9834Z" fill="white"/>
<path d="M122.335 48.501H122.811V49.9179C123.196 49.0338 124.013 48.3877 124.987 48.4217V48.9431H124.942C123.808 48.9431 122.811 49.8159 122.811 51.4254V53.4656H122.335V48.501Z" fill="white"/>
<path d="M127.47 52.0033C127.47 50.9718 128.342 50.3824 129.623 50.3824C130.303 50.3824 130.779 50.4731 131.255 50.5978V50.3824C131.255 49.3736 130.643 48.8635 129.635 48.8635C129.034 48.8635 128.546 49.0336 128.093 49.2603L127.923 48.8409C128.467 48.5915 129 48.4102 129.669 48.4102C130.337 48.4102 130.87 48.5915 131.221 48.9542C131.55 49.2829 131.72 49.7477 131.72 50.3597V53.4541H131.255V52.6267C130.915 53.1027 130.315 53.5674 129.374 53.5674C128.456 53.5788 127.47 53.0574 127.47 52.0033ZM131.267 51.6065V51.0398C130.847 50.9378 130.303 50.8131 129.601 50.8131C128.558 50.8131 127.98 51.2778 127.98 51.9919C127.98 52.7173 128.66 53.1367 129.408 53.1367C130.405 53.1367 131.267 52.5133 131.267 51.6065Z" fill="white"/>
<path d="M135.597 52.1848V48.9317H134.882V48.4897H135.597V46.9028H136.073V48.4897H137.795V48.9317H136.073V52.1394C136.073 52.8535 136.492 53.1029 137.059 53.1029C137.297 53.1029 137.501 53.0575 137.784 52.9329V53.3862C137.535 53.4996 137.297 53.5563 136.979 53.5563C136.22 53.5563 135.597 53.1369 135.597 52.1848Z" fill="white"/>
<path d="M140.64 50.9834C140.64 49.5893 141.717 48.3765 143.179 48.3765C144.642 48.3765 145.696 49.5666 145.696 50.9834C145.696 52.3776 144.63 53.5904 143.157 53.5904C141.706 53.5791 140.64 52.3889 140.64 50.9834ZM145.186 50.9834C145.186 49.782 144.268 48.8299 143.157 48.8299C142.046 48.8299 141.151 49.7933 141.151 50.9834C141.151 52.1849 142.035 53.137 143.179 53.137C144.268 53.137 145.186 52.1736 145.186 50.9834Z" fill="white"/>
<path d="M149.085 48.501H149.561V49.9179C149.946 49.0338 150.762 48.3877 151.737 48.4217V48.9431H151.692C150.558 48.9431 149.561 49.8159 149.561 51.4254V53.4656H149.085V48.501Z" fill="white"/>
<path d="M154.491 54.8372L154.65 54.4178C154.911 54.5424 155.126 54.5991 155.489 54.5991C155.999 54.5991 156.339 54.2931 156.702 53.4317L154.333 48.4897H154.888L156.928 52.9329L158.708 48.4897H159.229L157.098 53.6357C156.668 54.6785 156.158 55.0525 155.455 55.0525C155.092 55.0525 154.82 54.9845 154.491 54.8372Z" fill="white"/>
<path d="M34.9447 39.6034L32.0544 44.262L33.5959 31.9639L34.9447 39.6034Z" fill="white"/>
<path d="M30.5356 8.60303L29.3454 17.8634L32.2584 24.1088L33.1879 17.0133L30.5356 8.60303Z" fill="#9F0221"/>
<path d="M28.28 5.82602L29.7081 6.24539L29.4588 4.40918L28.2346 2.26693L26.0697 0L19.2803 1.13347L11.8221 3.37773L6.98216 6.77812C9.26043 8.8637 12.5021 11.7767 13.4202 12.5135L25.6277 5.97336L28.28 5.82602Z" fill="#7B0E23"/>
<path d="M8.24028 17.7046L9.58911 17.8293L12.7175 13.2047C11.4593 12.1846 8.04759 9.09024 6.54008 7.71875L5.44063 14.6329L4.31849 18.1013L4.98724 21.309L6.16604 19.3481L8.24028 17.7046Z" fill="#9F0221"/>
<path d="M8.53499 18.7251L6.84613 20.0626L5.28195 22.7262L5.29328 22.7716L4.00113 24.3584L3.43439 29.2437L9.04505 18.7704L8.53499 18.7251Z" fill="white"/>
<path d="M3.44572 23.4853L4.22781 22.5105L3.96712 21.2637L3.06034 23.1792L3.44572 23.4853Z" fill="white"/>
<path d="M28.1666 6.82324L25.8997 6.94792L13.7263 13.4767L10.2352 18.634L3.11703 31.9182L2.879 34.0491L2.70898 33.5504L0 44.4996L0.75942 48.1834L2.77699 49.2602L8.16095 34.2758L21.1845 19.5747L28.3933 17.5572L29.7081 7.27663L28.1666 6.82324Z" fill="#9F0221"/>
<path d="M21.7285 20.4477L9.0224 34.7973L3.6271 49.8044L5.25929 51.1986L7.37887 57.648L9.66847 59.9603L24.7209 19.6089L21.7285 20.4477Z" fill="#9F0221"/>
<path d="M12.2188 62.1366L15.3585 62.5334L20.017 63.3495L23.8028 61.5586L30.0709 46.7102L31.2384 45.01L33.0632 30.411L32.0658 25.9791L28.5747 18.5322L25.8884 19.2803L10.4506 60.6745L12.2188 62.1366Z" fill="#B81B3A"/>
<path d="M32.1905 45.3614L30.921 47.2203L25.4123 60.2891L26.9992 58.997L29.9915 55.7779L31.0343 54.5198C32.2811 52.2075 34.2534 48.4671 34.4461 47.9797C34.5027 47.5716 34.7748 46.1435 35.2508 43.7178L34.8428 41.0542L32.1905 45.35V45.3614Z" fill="white"/>
</svg>
