<svg width="143" height="36" viewBox="0 0 143 36" fill="none" xmlns="http://www.w3.org/2000/svg">
<g clip-path="url(#clip0_41_178)">
<path d="M8.81468 22.14C13.2522 22.14 16.3615 19.7481 16.3615 15.731C16.3615 12.1126 14.0371 10.4874 9.56936 9.3835C5.52427 8.40225 4.55829 7.6663 4.55829 6.01041C4.55829 4.53853 5.82615 3.40394 7.99963 3.40394C9.93161 3.40394 11.8334 4.17054 13.7352 5.61179L15.7276 2.76C13.5843 1.01212 11.1391 0.0615234 8.06 0.0615234C3.86396 0.0615234 0.845244 2.60666 0.845244 6.28641C0.845244 10.3034 3.38098 11.6527 7.87889 12.7259C11.8032 13.6765 12.6485 14.5045 12.6485 16.0377C12.6485 17.7242 11.1995 18.7975 8.90525 18.7975C6.27894 18.7975 4.2564 17.7855 2.23385 16.007L0 18.7055C2.53574 21.0053 5.58464 22.14 8.81468 22.14Z" fill="white"/>
<path d="M19.9734 21.8332H35.7914V18.4602H23.6865V12.6953H34.2822V9.32216H23.6865V3.74125H35.6405V0.368164H19.9734V21.8332Z" fill="white"/>
<path d="M39.8644 21.8332H41.3738V2.76L56.2561 21.8332H57.4334V0.368164H55.9242V19.0428L41.3435 0.368164H39.8644V21.8332Z" fill="white"/>
<path d="M62.9589 21.8332H78.1431V20.3614H64.5286V11.7447H76.6336V10.2728H64.5286V1.84006H77.9921V0.368164H62.9589V21.8332Z" fill="white"/>
<path d="M82.4272 21.8332H83.997V12.9406H90.91L97.6417 21.8332H99.6341L92.6608 12.6646C96.2229 12.174 98.8493 10.1194 98.8493 6.5317C98.8493 4.93717 98.2455 3.49592 97.2492 2.48402C95.9813 1.1961 93.8984 0.368164 91.3023 0.368164H82.4272V21.8332ZM83.997 11.4993V1.84006H91.2119C95.0456 1.84006 97.2795 3.64926 97.2795 6.5317C97.2795 9.69015 94.6531 11.4993 91.1213 11.4993H83.997Z" fill="white"/>
<path d="M113.178 22.2011C116.619 22.2011 119.577 20.6985 121.479 18.9813V10.7019H112.906V12.1738H119.97V18.3373C118.43 19.6559 115.925 20.7905 113.238 20.7905C107.593 20.7905 104.182 16.6508 104.182 11.1005C104.182 5.85689 107.774 1.44123 112.906 1.44123C116.106 1.44123 118.038 2.54513 119.698 4.01703L120.725 2.82113C118.611 1.04259 116.438 0 112.997 0C106.687 0 102.552 5.30494 102.552 11.1005C102.552 17.2027 106.506 22.2011 113.178 22.2011Z" fill="white"/>
<path d="M132.374 21.8332H133.944V13.3085L143 0.368164H141.128L133.189 11.898L125.28 0.368164H123.318L132.374 13.3392V21.8332Z" fill="white"/>
<path d="M2.64094 35.9908C3.51721 35.9908 4.07987 35.4943 4.46728 34.9132V35.8879H5.17751V29.0479H4.46728V31.9713C4.09831 31.4278 3.52644 30.9406 2.64094 30.9406C1.49718 30.9406 0.36264 31.8775 0.36264 33.461C0.36264 35.0727 1.49718 35.9908 2.64094 35.9908ZM2.77007 35.3444C1.86614 35.3444 1.09133 34.6135 1.09133 33.4704C1.09133 32.2804 1.84769 31.5871 2.77007 31.5871C3.65557 31.5871 4.49493 32.3367 4.49493 33.4516C4.49493 34.5853 3.65557 35.3444 2.77007 35.3444Z" fill="white"/>
<path d="M14.1068 33.7606H17.8886C17.8978 33.6483 17.8978 33.5732 17.8978 33.5078C17.8978 32.0835 17.0861 30.9404 15.6749 30.9404C14.3558 30.9404 13.3873 32.0647 13.3873 33.4702C13.3873 34.9788 14.4573 36.0001 15.7671 36.0001C16.671 36.0001 17.2522 35.6346 17.7318 35.0911L17.289 34.6884C16.9016 35.1005 16.4404 35.3724 15.7855 35.3724C14.9462 35.3724 14.2083 34.782 14.1068 33.7606ZM14.1068 33.1798C14.2083 32.2428 14.8355 31.5494 15.6564 31.5494C16.5972 31.5494 17.0953 32.299 17.1784 33.1798H14.1068Z" fill="white"/>
<path d="M26.0591 35.8877H26.7694V33.1142C26.7694 32.2054 27.3781 31.5963 28.1991 31.5963C29.0385 31.5963 29.5181 32.1585 29.5181 33.0579V35.8877H30.2284V32.8801C30.2284 31.7274 29.5551 30.9404 28.402 30.9404C27.581 30.9404 27.0831 31.3622 26.7694 31.8867V31.0434H26.0591V35.8877Z" fill="white"/>
<path d="M40.2567 35.9717C40.5978 35.9717 40.8654 35.8968 41.1144 35.7655V35.1471C40.8654 35.2689 40.6625 35.3158 40.4226 35.3158C39.943 35.3158 39.6202 35.1002 39.6202 34.5101V31.6805H41.1329V31.0431H39.6202V29.5815H38.91V31.0431H38.2458V31.6805H38.91V34.6037C38.91 35.5874 39.491 35.9717 40.2567 35.9717Z" fill="white"/>
<path d="M50.7285 35.9909C51.5678 35.9909 52.1121 35.5973 52.4441 35.1663V35.8879H53.1451V32.9269C53.1451 32.3086 52.9791 31.8402 52.647 31.5029C52.3058 31.1562 51.78 30.9688 51.1066 30.9688C50.4056 30.9688 49.8984 31.1374 49.3726 31.3809L49.5847 31.9713C50.0275 31.7651 50.4702 31.6246 51.0328 31.6246C51.9277 31.6246 52.4441 32.0743 52.4441 32.9363V33.0862C52.0198 32.9645 51.5955 32.8802 50.9868 32.8802C49.7784 32.8802 48.9483 33.4235 48.9483 34.4636C48.9483 35.4755 49.8338 35.9909 50.7285 35.9909ZM50.8668 35.4101C50.2211 35.4101 49.6678 35.054 49.6678 34.4448C49.6678 33.8453 50.175 33.4517 51.0605 33.4517C51.6417 33.4517 52.1029 33.5549 52.4533 33.6578V34.1075C52.4533 34.876 51.743 35.4101 50.8668 35.4101Z" fill="white"/>
<path d="M61.6321 35.8879H62.3422V29.0479H61.6321V35.8879Z" fill="white"/>
<path d="M82.169 35.9811C83.1191 35.9811 83.8663 35.447 83.8663 34.5289C83.8663 33.6387 83.0729 33.3483 82.3352 33.1233C81.6985 32.9265 81.1083 32.7485 81.1083 32.2895C81.1083 31.8679 81.4679 31.5679 82.0307 31.5679C82.4919 31.5679 82.9993 31.746 83.442 32.0366L83.7647 31.4931C83.2758 31.1652 82.6302 30.959 82.0492 30.959C81.1083 30.959 80.4257 31.5119 80.4257 32.3457C80.4257 33.2545 81.2558 33.5169 82.003 33.7323C82.6302 33.9103 83.1929 34.0977 83.1929 34.5849C83.1929 35.0724 82.7779 35.3721 82.2059 35.3721C81.6433 35.3721 81.0713 35.1472 80.555 34.7536L80.1951 35.2689C80.7302 35.7095 81.4864 35.9811 82.169 35.9811Z" fill="white"/>
<path d="M93.6092 35.9717C93.9506 35.9717 94.2181 35.8968 94.4672 35.7655V35.1471C94.2181 35.2689 94.0152 35.3158 93.7754 35.3158C93.2957 35.3158 92.9728 35.1002 92.9728 34.5101V31.6805H94.4854V31.0431H92.9728V29.5815H92.2625V31.0431H91.5984V31.6805H92.2625V34.6037C92.2625 35.5874 92.8437 35.9717 93.6092 35.9717Z" fill="white"/>
<path d="M104.413 35.9907C105.234 35.9907 105.723 35.5692 106.046 35.0445V35.8877H106.747V31.0435H106.046V33.817C106.046 34.7259 105.428 35.3349 104.616 35.3349C103.777 35.3349 103.297 34.7726 103.297 33.8733V31.0435H102.587V34.0513C102.587 35.2037 103.26 35.9907 104.413 35.9907Z" fill="white"/>
<path d="M117.264 35.9908C118.14 35.9908 118.703 35.4943 119.09 34.9132V35.8879H119.801V29.0479H119.09V31.9713C118.721 31.4278 118.15 30.9406 117.264 30.9406C116.12 30.9406 114.986 31.8775 114.986 33.461C114.986 35.0727 116.12 35.9908 117.264 35.9908ZM117.393 35.3444C116.489 35.3444 115.714 34.6135 115.714 33.4704C115.714 32.2804 116.471 31.5871 117.393 31.5871C118.279 31.5871 119.118 32.3367 119.118 33.4516C119.118 34.5853 118.279 35.3444 117.393 35.3444Z" fill="white"/>
<path d="M128.324 29.9846H129.136V29.188H128.324V29.9846ZM128.37 35.8875H129.08V31.0432H128.37V35.8875Z" fill="white"/>
<path d="M139.824 36.0001C141.262 36.0001 142.323 34.8382 142.323 33.4702C142.323 32.0835 141.272 30.9404 139.842 30.9404C138.403 30.9404 137.352 32.1022 137.352 33.4702C137.352 34.857 138.394 36.0001 139.824 36.0001ZM139.842 35.3536C138.836 35.3536 138.08 34.5103 138.08 33.4702C138.08 32.4302 138.79 31.5775 139.824 31.5775C140.829 31.5775 141.594 32.4302 141.594 33.4702C141.594 34.5103 140.875 35.3536 139.842 35.3536Z" fill="white"/>
</g>
<defs>
<clipPath id="clip0_41_178">
<rect width="143" height="36" fill="white"/>
</clipPath>
</defs>
</svg>
