<svg width="155" height="19" viewBox="0 0 155 19" fill="none" xmlns="http://www.w3.org/2000/svg">
<path d="M155.003 9.35932C155.003 11.3462 154.626 13.0366 153.873 14.4304C153.125 15.8243 152.105 16.8889 150.812 17.6243C149.525 18.3539 148.078 18.7186 146.471 18.7186C144.852 18.7186 143.398 18.3509 142.111 17.6155C140.824 16.88 139.807 15.8154 139.06 14.4215C138.312 13.0277 137.939 11.3403 137.939 9.35932C137.939 7.37239 138.312 5.68202 139.06 4.28821C139.807 2.89439 140.824 1.83272 142.111 1.10319C143.398 0.36773 144.852 0 146.471 0C148.078 0 149.525 0.36773 150.812 1.10319C152.105 1.83272 153.125 2.89439 153.873 4.28821C154.626 5.68202 155.003 7.37239 155.003 9.35932ZM151.097 9.35932C151.097 8.07227 150.904 6.98687 150.519 6.10313C150.139 5.21939 149.602 4.54918 148.908 4.09248C148.214 3.63578 147.402 3.40743 146.471 3.40743C145.54 3.40743 144.727 3.63578 144.033 4.09248C143.339 4.54918 142.799 5.21939 142.414 6.10313C142.034 6.98687 141.844 8.07227 141.844 9.35932C141.844 10.6464 142.034 11.7318 142.414 12.6155C142.799 13.4993 143.339 14.1695 144.033 14.6262C144.727 15.0829 145.54 15.3112 146.471 15.3112C147.402 15.3112 148.214 15.0829 148.908 14.6262C149.602 14.1695 150.139 13.4993 150.519 12.6155C150.904 11.7318 151.097 10.6464 151.097 9.35932Z" fill="white"/>
<path d="M135.09 0.249023V18.4694H131.237V0.249023H135.09Z" fill="white"/>
<path d="M119.469 18.4694H113.01V0.249023H119.523C121.355 0.249023 122.933 0.613788 124.256 1.34332C125.578 2.06691 126.595 3.10783 127.307 4.46606C128.025 5.82428 128.384 7.44941 128.384 9.34144C128.384 11.2394 128.025 12.8705 127.307 14.2346C126.595 15.5988 125.572 16.6456 124.238 17.3752C122.909 18.1047 121.32 18.4694 119.469 18.4694ZM116.862 15.1688H119.309C120.448 15.1688 121.406 14.9671 122.183 14.5638C122.966 14.1546 123.553 13.5229 123.944 12.6688C124.342 11.8088 124.54 10.6997 124.54 9.34144C124.54 7.99508 124.342 6.89485 123.944 6.04077C123.553 5.18669 122.969 4.55799 122.192 4.15467C121.415 3.75135 120.457 3.5497 119.318 3.5497H116.862V15.1688Z" fill="white"/>
<path d="M105.989 0.249023H109.841V12.0816C109.841 13.4102 109.523 14.5727 108.889 15.5691C108.26 16.5656 107.379 17.3425 106.247 17.9001C105.114 18.4517 103.794 18.7275 102.287 18.7275C100.775 18.7275 99.4524 18.4517 98.3196 17.9001C97.1867 17.3425 96.3059 16.5656 95.6772 15.5691C95.0485 14.5727 94.7342 13.4102 94.7342 12.0816V0.249023H98.5865V11.7524C98.5865 12.4464 98.7377 13.0632 99.0402 13.603C99.3486 14.1427 99.7816 14.5668 100.339 14.8752C100.897 15.1836 101.546 15.3378 102.287 15.3378C103.035 15.3378 103.684 15.1836 104.236 14.8752C104.793 14.5668 105.223 14.1427 105.526 13.603C105.834 13.0632 105.989 12.4464 105.989 11.7524V0.249023Z" fill="white"/>
<path d="M77.3055 3.42514V0.249023H92.2698V3.42514H86.6916V18.4694H82.8838V3.42514H77.3055Z" fill="white"/>
<path d="M71.4671 5.48926C71.396 4.77159 71.0905 4.21407 70.5508 3.81668C70.011 3.4193 69.2786 3.2206 68.3533 3.2206C67.7246 3.2206 67.1938 3.30957 66.7608 3.4875C66.3278 3.65951 65.9957 3.89972 65.7644 4.20814C65.539 4.51655 65.4263 4.86649 65.4263 5.25795C65.4144 5.58416 65.4826 5.86885 65.6309 6.11203C65.7851 6.35521 65.9957 6.56576 66.2626 6.74369C66.5295 6.9157 66.8379 7.06694 67.1878 7.19742C67.5378 7.32198 67.9114 7.42874 68.3088 7.51771L69.9458 7.90916C70.7406 8.08709 71.4701 8.32434 72.1344 8.6209C72.7987 8.91745 73.374 9.28222 73.8603 9.71519C74.3467 10.1482 74.7233 10.6582 74.9902 11.2454C75.2631 11.8326 75.4024 12.5058 75.4084 13.265C75.4024 14.38 75.1177 15.3468 74.5543 16.1653C73.9968 16.9779 73.1901 17.6095 72.1344 18.0603C71.0846 18.5051 69.8183 18.7275 68.3355 18.7275C66.8646 18.7275 65.5835 18.5022 64.4921 18.0514C63.4067 17.6006 62.5586 16.9334 61.9477 16.0496C61.3427 15.16 61.0254 14.0597 60.9957 12.749H64.7234C64.765 13.3599 64.9399 13.8699 65.2483 14.2792C65.5627 14.6825 65.9808 14.988 66.5028 15.1956C67.0306 15.3972 67.6267 15.498 68.291 15.498C68.9434 15.498 69.5099 15.4031 69.9903 15.2133C70.4766 15.0235 70.8533 14.7596 71.1202 14.4215C71.3871 14.0835 71.5205 13.695 71.5205 13.2561C71.5205 12.8468 71.3989 12.5028 71.1558 12.2241C70.9185 11.9453 70.5686 11.708 70.1059 11.5123C69.6492 11.3166 69.0888 11.1387 68.4245 10.9785L66.4405 10.4803C64.9043 10.1066 63.6914 9.52243 62.8018 8.72766C61.9121 7.93288 61.4702 6.86232 61.4761 5.51595C61.4702 4.41276 61.7638 3.44895 62.3569 2.62453C62.956 1.8001 63.7774 1.15657 64.8213 0.693942C65.8652 0.231314 67.0514 0 68.38 0C69.7323 0 70.9126 0.231314 71.9209 0.693942C72.9351 1.15657 73.7239 1.8001 74.2874 2.62453C74.8508 3.44895 75.1415 4.40386 75.1593 5.48926H71.4671Z" fill="white"/>
<path d="M44.0164 18.4694H37.5574V0.249023H44.0698C45.9025 0.249023 47.4802 0.613788 48.8028 1.34332C50.1255 2.06691 51.1427 3.10783 51.8544 4.46606C52.5721 5.82428 52.9309 7.44941 52.9309 9.34144C52.9309 11.2394 52.5721 12.8705 51.8544 14.2346C51.1427 15.5988 50.1195 16.6456 48.785 17.3752C47.4565 18.1047 45.8669 18.4694 44.0164 18.4694ZM41.4097 15.1688H43.8563C44.995 15.1688 45.9529 14.9671 46.7299 14.5638C47.5128 14.1546 48.1 13.5229 48.4914 12.6688C48.8888 11.8088 49.0875 10.6997 49.0875 9.34144C49.0875 7.99508 48.8888 6.89485 48.4914 6.04077C48.1 5.18669 47.5158 4.55799 46.7388 4.15467C45.9618 3.75135 45.0039 3.5497 43.8652 3.5497H41.4097V15.1688Z" fill="#AF0009"/>
<path d="M21.9569 18.4694H17.8289L24.1188 0.249023H29.0832L35.3642 18.4694H31.2362L26.6722 4.41268H26.5298L21.9569 18.4694ZM21.6989 11.3076H31.4497V14.3147H21.6989V11.3076Z" fill="#AF0009"/>
<path d="M16.3966 6.62804H12.4999C12.4287 6.12389 12.2834 5.67609 12.0639 5.28464C11.8445 4.88725 11.5627 4.54918 11.2187 4.27041C10.8747 3.99165 10.4773 3.77813 10.0266 3.62985C9.58174 3.48157 9.09835 3.40743 8.57641 3.40743C7.63336 3.40743 6.8119 3.64171 6.11203 4.11027C5.41216 4.5729 4.86946 5.24905 4.48393 6.13872C4.09841 7.02246 3.90565 8.09599 3.90565 9.35932C3.90565 10.6582 4.09841 11.7496 4.48393 12.6333C4.87539 13.517 5.42105 14.1843 6.12092 14.6351C6.8208 15.0858 7.6304 15.3112 8.54972 15.3112C9.06573 15.3112 9.54319 15.243 9.98209 15.1066C10.4269 14.9702 10.8213 14.7715 11.1654 14.5105C11.5094 14.2436 11.7941 13.9204 12.0194 13.5408C12.2507 13.1612 12.4109 12.7282 12.4999 12.2418L16.3966 12.2596C16.2958 13.0959 16.0437 13.9026 15.6404 14.6795C15.243 15.4506 14.7062 16.1416 14.0301 16.7525C13.3599 17.3574 12.5592 17.8379 11.628 18.1937C10.7027 18.5437 9.65588 18.7186 8.48745 18.7186C6.86232 18.7186 5.40919 18.3509 4.12807 17.6155C2.85287 16.88 1.84458 15.8154 1.10319 14.4215C0.36773 13.0277 0 11.3403 0 9.35932C0 7.37239 0.373661 5.68202 1.12098 4.28821C1.86831 2.89439 2.88253 1.83272 4.16365 1.10319C5.44478 0.36773 6.88604 0 8.48745 0C9.54319 0 10.5218 0.148278 11.4234 0.444835C12.3308 0.741391 13.1345 1.17436 13.8344 1.74375C14.5342 2.30721 15.1036 2.99819 15.5425 3.81668C15.9874 4.63518 16.2721 5.5723 16.3966 6.62804Z" fill="#AF0009"/>
</svg>
